<?xml version="1.0" encoding="utf-8"?>
<svg xmlns="http://www.w3.org/2000/svg" xmlns:xlink="http://www.w3.org/1999/xlink" width="600" height="400" viewBox="0 0 2400 1600">
<defs>
  <clipPath id="clip970">
    <rect x="0" y="0" width="2400" height="1600"/>
  </clipPath>
</defs>
<path clip-path="url(#clip970)" d="M0 1600 L2400 1600 L2400 0 L0 0  Z" fill="#ffffff" fill-rule="evenodd" fill-opacity="1"/>
<defs>
  <clipPath id="clip971">
    <rect x="480" y="0" width="1681" height="1600"/>
  </clipPath>
</defs>
<path clip-path="url(#clip970)" d="M287.366 1423.18 L2352.76 1423.18 L2352.76 123.472 L287.366 123.472  Z" fill="#ffffff" fill-rule="evenodd" fill-opacity="1"/>
<defs>
  <clipPath id="clip972">
    <rect x="287" y="123" width="2066" height="1301"/>
  </clipPath>
</defs>
<polyline clip-path="url(#clip972)" style="stroke:#000000; stroke-linecap:round; stroke-linejoin:round; stroke-width:2; stroke-opacity:0.1; fill:none" points="345.82,1423.18 345.82,123.472 "/>
<polyline clip-path="url(#clip972)" style="stroke:#000000; stroke-linecap:round; stroke-linejoin:round; stroke-width:2; stroke-opacity:0.1; fill:none" points="832.941,1423.18 832.941,123.472 "/>
<polyline clip-path="url(#clip972)" style="stroke:#000000; stroke-linecap:round; stroke-linejoin:round; stroke-width:2; stroke-opacity:0.1; fill:none" points="1320.06,1423.18 1320.06,123.472 "/>
<polyline clip-path="url(#clip972)" style="stroke:#000000; stroke-linecap:round; stroke-linejoin:round; stroke-width:2; stroke-opacity:0.1; fill:none" points="1807.18,1423.18 1807.18,123.472 "/>
<polyline clip-path="url(#clip972)" style="stroke:#000000; stroke-linecap:round; stroke-linejoin:round; stroke-width:2; stroke-opacity:0.1; fill:none" points="2294.3,1423.18 2294.3,123.472 "/>
<polyline clip-path="url(#clip970)" style="stroke:#000000; stroke-linecap:round; stroke-linejoin:round; stroke-width:4; stroke-opacity:1; fill:none" points="287.366,1423.18 2352.76,1423.18 "/>
<polyline clip-path="url(#clip970)" style="stroke:#000000; stroke-linecap:round; stroke-linejoin:round; stroke-width:4; stroke-opacity:1; fill:none" points="345.82,1423.18 345.82,1404.28 "/>
<polyline clip-path="url(#clip970)" style="stroke:#000000; stroke-linecap:round; stroke-linejoin:round; stroke-width:4; stroke-opacity:1; fill:none" points="832.941,1423.18 832.941,1404.28 "/>
<polyline clip-path="url(#clip970)" style="stroke:#000000; stroke-linecap:round; stroke-linejoin:round; stroke-width:4; stroke-opacity:1; fill:none" points="1320.06,1423.18 1320.06,1404.28 "/>
<polyline clip-path="url(#clip970)" style="stroke:#000000; stroke-linecap:round; stroke-linejoin:round; stroke-width:4; stroke-opacity:1; fill:none" points="1807.18,1423.18 1807.18,1404.28 "/>
<polyline clip-path="url(#clip970)" style="stroke:#000000; stroke-linecap:round; stroke-linejoin:round; stroke-width:4; stroke-opacity:1; fill:none" points="2294.3,1423.18 2294.3,1404.28 "/>
<path clip-path="url(#clip970)" d="M292.348 1468.75 L322.024 1468.75 L322.024 1472.69 L292.348 1472.69 L292.348 1468.75 Z" fill="#000000" fill-rule="nonzero" fill-opacity="1" /><path clip-path="url(#clip970)" d="M332.927 1481.64 L340.566 1481.64 L340.566 1455.28 L332.256 1456.95 L332.256 1452.69 L340.519 1451.02 L345.195 1451.02 L345.195 1481.64 L352.834 1481.64 L352.834 1485.58 L332.927 1485.58 L332.927 1481.64 Z" fill="#000000" fill-rule="nonzero" fill-opacity="1" /><path clip-path="url(#clip970)" d="M362.279 1479.7 L367.163 1479.7 L367.163 1485.58 L362.279 1485.58 L362.279 1479.7 Z" fill="#000000" fill-rule="nonzero" fill-opacity="1" /><path clip-path="url(#clip970)" d="M387.348 1454.1 Q383.737 1454.1 381.908 1457.66 Q380.103 1461.2 380.103 1468.33 Q380.103 1475.44 381.908 1479.01 Q383.737 1482.55 387.348 1482.55 Q390.982 1482.55 392.788 1479.01 Q394.616 1475.44 394.616 1468.33 Q394.616 1461.2 392.788 1457.66 Q390.982 1454.1 387.348 1454.1 M387.348 1450.39 Q393.158 1450.39 396.214 1455 Q399.292 1459.58 399.292 1468.33 Q399.292 1477.06 396.214 1481.67 Q393.158 1486.25 387.348 1486.25 Q381.538 1486.25 378.459 1481.67 Q375.404 1477.06 375.404 1468.33 Q375.404 1459.58 378.459 1455 Q381.538 1450.39 387.348 1450.39 Z" fill="#000000" fill-rule="nonzero" fill-opacity="1" /><path clip-path="url(#clip970)" d="M779.966 1468.75 L809.642 1468.75 L809.642 1472.69 L779.966 1472.69 L779.966 1468.75 Z" fill="#000000" fill-rule="nonzero" fill-opacity="1" /><path clip-path="url(#clip970)" d="M829.735 1454.1 Q826.124 1454.1 824.295 1457.66 Q822.489 1461.2 822.489 1468.33 Q822.489 1475.44 824.295 1479.01 Q826.124 1482.55 829.735 1482.55 Q833.369 1482.55 835.174 1479.01 Q837.003 1475.44 837.003 1468.33 Q837.003 1461.2 835.174 1457.66 Q833.369 1454.1 829.735 1454.1 M829.735 1450.39 Q835.545 1450.39 838.6 1455 Q841.679 1459.58 841.679 1468.33 Q841.679 1477.06 838.6 1481.67 Q835.545 1486.25 829.735 1486.25 Q823.924 1486.25 820.846 1481.67 Q817.79 1477.06 817.79 1468.33 Q817.79 1459.58 820.846 1455 Q823.924 1450.39 829.735 1450.39 Z" fill="#000000" fill-rule="nonzero" fill-opacity="1" /><path clip-path="url(#clip970)" d="M849.897 1479.7 L854.781 1479.7 L854.781 1485.58 L849.897 1485.58 L849.897 1479.7 Z" fill="#000000" fill-rule="nonzero" fill-opacity="1" /><path clip-path="url(#clip970)" d="M865.012 1451.02 L883.369 1451.02 L883.369 1454.96 L869.295 1454.96 L869.295 1463.43 Q870.313 1463.08 871.332 1462.92 Q872.35 1462.73 873.369 1462.73 Q879.156 1462.73 882.535 1465.9 Q885.915 1469.08 885.915 1474.49 Q885.915 1480.07 882.443 1483.17 Q878.97 1486.25 872.651 1486.25 Q870.475 1486.25 868.207 1485.88 Q865.961 1485.51 863.554 1484.77 L863.554 1480.07 Q865.637 1481.2 867.859 1481.76 Q870.082 1482.32 872.558 1482.32 Q876.563 1482.32 878.901 1480.21 Q881.239 1478.1 881.239 1474.49 Q881.239 1470.88 878.901 1468.77 Q876.563 1466.67 872.558 1466.67 Q870.683 1466.67 868.808 1467.08 Q866.957 1467.5 865.012 1468.38 L865.012 1451.02 Z" fill="#000000" fill-rule="nonzero" fill-opacity="1" /><path clip-path="url(#clip970)" d="M1297.45 1454.1 Q1293.83 1454.1 1292.01 1457.66 Q1290.2 1461.2 1290.2 1468.33 Q1290.2 1475.44 1292.01 1479.01 Q1293.83 1482.55 1297.45 1482.55 Q1301.08 1482.55 1302.89 1479.01 Q1304.71 1475.44 1304.71 1468.33 Q1304.71 1461.2 1302.89 1457.66 Q1301.08 1454.1 1297.45 1454.1 M1297.45 1450.39 Q1303.26 1450.39 1306.31 1455 Q1309.39 1459.58 1309.39 1468.33 Q1309.39 1477.06 1306.31 1481.67 Q1303.26 1486.25 1297.45 1486.25 Q1291.64 1486.25 1288.56 1481.67 Q1285.5 1477.06 1285.5 1468.33 Q1285.5 1459.58 1288.56 1455 Q1291.64 1450.39 1297.45 1450.39 Z" fill="#000000" fill-rule="nonzero" fill-opacity="1" /><path clip-path="url(#clip970)" d="M1317.61 1479.7 L1322.49 1479.7 L1322.49 1485.58 L1317.61 1485.58 L1317.61 1479.7 Z" fill="#000000" fill-rule="nonzero" fill-opacity="1" /><path clip-path="url(#clip970)" d="M1342.68 1454.1 Q1339.07 1454.1 1337.24 1457.66 Q1335.43 1461.2 1335.43 1468.33 Q1335.43 1475.44 1337.24 1479.01 Q1339.07 1482.55 1342.68 1482.55 Q1346.31 1482.55 1348.12 1479.01 Q1349.95 1475.44 1349.95 1468.33 Q1349.95 1461.2 1348.12 1457.66 Q1346.31 1454.1 1342.68 1454.1 M1342.68 1450.39 Q1348.49 1450.39 1351.54 1455 Q1354.62 1459.58 1354.62 1468.33 Q1354.62 1477.06 1351.54 1481.67 Q1348.49 1486.25 1342.68 1486.25 Q1336.87 1486.25 1333.79 1481.67 Q1330.73 1477.06 1330.73 1468.33 Q1330.73 1459.58 1333.79 1455 Q1336.87 1450.39 1342.68 1450.39 Z" fill="#000000" fill-rule="nonzero" fill-opacity="1" /><path clip-path="url(#clip970)" d="M1785.06 1454.1 Q1781.45 1454.1 1779.62 1457.66 Q1777.82 1461.2 1777.82 1468.33 Q1777.82 1475.44 1779.62 1479.01 Q1781.45 1482.55 1785.06 1482.55 Q1788.7 1482.55 1790.5 1479.01 Q1792.33 1475.44 1792.33 1468.33 Q1792.33 1461.2 1790.5 1457.66 Q1788.7 1454.1 1785.06 1454.1 M1785.06 1450.39 Q1790.87 1450.39 1793.93 1455 Q1797.01 1459.58 1797.01 1468.33 Q1797.01 1477.06 1793.93 1481.67 Q1790.87 1486.25 1785.06 1486.25 Q1779.25 1486.25 1776.17 1481.67 Q1773.12 1477.06 1773.12 1468.33 Q1773.12 1459.58 1776.17 1455 Q1779.25 1450.39 1785.06 1450.39 Z" fill="#000000" fill-rule="nonzero" fill-opacity="1" /><path clip-path="url(#clip970)" d="M1805.23 1479.7 L1810.11 1479.7 L1810.11 1485.58 L1805.23 1485.58 L1805.23 1479.7 Z" fill="#000000" fill-rule="nonzero" fill-opacity="1" /><path clip-path="url(#clip970)" d="M1820.34 1451.02 L1838.7 1451.02 L1838.7 1454.96 L1824.62 1454.96 L1824.62 1463.43 Q1825.64 1463.08 1826.66 1462.92 Q1827.68 1462.73 1828.7 1462.73 Q1834.48 1462.73 1837.86 1465.9 Q1841.24 1469.08 1841.24 1474.49 Q1841.24 1480.07 1837.77 1483.17 Q1834.3 1486.25 1827.98 1486.25 Q1825.8 1486.25 1823.54 1485.88 Q1821.29 1485.51 1818.88 1484.77 L1818.88 1480.07 Q1820.97 1481.2 1823.19 1481.76 Q1825.41 1482.32 1827.89 1482.32 Q1831.89 1482.32 1834.23 1480.21 Q1836.57 1478.1 1836.57 1474.49 Q1836.57 1470.88 1834.23 1468.77 Q1831.89 1466.67 1827.89 1466.67 Q1826.01 1466.67 1824.14 1467.08 Q1822.29 1467.5 1820.34 1468.38 L1820.34 1451.02 Z" fill="#000000" fill-rule="nonzero" fill-opacity="1" /><path clip-path="url(#clip970)" d="M2261.45 1481.64 L2269.09 1481.64 L2269.09 1455.28 L2260.78 1456.95 L2260.78 1452.69 L2269.05 1451.02 L2273.72 1451.02 L2273.72 1481.64 L2281.36 1481.64 L2281.36 1485.58 L2261.45 1485.58 L2261.45 1481.64 Z" fill="#000000" fill-rule="nonzero" fill-opacity="1" /><path clip-path="url(#clip970)" d="M2290.81 1479.7 L2295.69 1479.7 L2295.69 1485.58 L2290.81 1485.58 L2290.81 1479.7 Z" fill="#000000" fill-rule="nonzero" fill-opacity="1" /><path clip-path="url(#clip970)" d="M2315.88 1454.1 Q2312.26 1454.1 2310.44 1457.66 Q2308.63 1461.2 2308.63 1468.33 Q2308.63 1475.44 2310.44 1479.01 Q2312.26 1482.55 2315.88 1482.55 Q2319.51 1482.55 2321.32 1479.01 Q2323.14 1475.44 2323.14 1468.33 Q2323.14 1461.2 2321.32 1457.66 Q2319.51 1454.1 2315.88 1454.1 M2315.88 1450.39 Q2321.69 1450.39 2324.74 1455 Q2327.82 1459.58 2327.82 1468.33 Q2327.82 1477.06 2324.74 1481.67 Q2321.69 1486.25 2315.88 1486.25 Q2310.07 1486.25 2306.99 1481.67 Q2303.93 1477.06 2303.93 1468.33 Q2303.93 1459.58 2306.99 1455 Q2310.07 1450.39 2315.88 1450.39 Z" fill="#000000" fill-rule="nonzero" fill-opacity="1" /><path clip-path="url(#clip970)" d="M1242.3 1548.76 L1242.3 1551.62 L1215.38 1551.62 Q1215.76 1557.67 1219.01 1560.85 Q1222.28 1564 1228.11 1564 Q1231.48 1564 1234.63 1563.17 Q1237.82 1562.35 1240.94 1560.69 L1240.94 1566.23 Q1237.78 1567.57 1234.47 1568.27 Q1231.16 1568.97 1227.76 1568.97 Q1219.23 1568.97 1214.23 1564 Q1209.27 1559.04 1209.27 1550.57 Q1209.27 1541.82 1213.98 1536.69 Q1218.72 1531.54 1226.74 1531.54 Q1233.93 1531.54 1238.1 1536.18 Q1242.3 1540.8 1242.3 1548.76 M1236.45 1547.04 Q1236.38 1542.23 1233.74 1539.37 Q1231.13 1536.5 1226.8 1536.5 Q1221.9 1536.5 1218.94 1539.27 Q1216.01 1542.04 1215.57 1547.07 L1236.45 1547.04 Z" fill="#000000" fill-rule="nonzero" fill-opacity="1" /><path clip-path="url(#clip970)" d="M1281.55 1546.53 L1281.55 1568.04 L1275.69 1568.04 L1275.69 1546.72 Q1275.69 1541.66 1273.72 1539.14 Q1271.75 1536.63 1267.8 1536.63 Q1263.06 1536.63 1260.32 1539.65 Q1257.58 1542.68 1257.58 1547.9 L1257.58 1568.04 L1251.69 1568.04 L1251.69 1532.4 L1257.58 1532.4 L1257.58 1537.93 Q1259.68 1534.72 1262.51 1533.13 Q1265.38 1531.54 1269.1 1531.54 Q1275.25 1531.54 1278.4 1535.36 Q1281.55 1539.14 1281.55 1546.53 Z" fill="#000000" fill-rule="nonzero" fill-opacity="1" /><path clip-path="url(#clip970)" d="M1323.72 1548.76 L1323.72 1551.62 L1296.79 1551.62 Q1297.18 1557.67 1300.42 1560.85 Q1303.7 1564 1309.53 1564 Q1312.9 1564 1316.05 1563.17 Q1319.23 1562.35 1322.35 1560.69 L1322.35 1566.23 Q1319.2 1567.57 1315.89 1568.27 Q1312.58 1568.97 1309.18 1568.97 Q1300.65 1568.97 1295.65 1564 Q1290.68 1559.04 1290.68 1550.57 Q1290.68 1541.82 1295.39 1536.69 Q1300.14 1531.54 1308.16 1531.54 Q1315.35 1531.54 1319.52 1536.18 Q1323.72 1540.8 1323.72 1548.76 M1317.86 1547.04 Q1317.8 1542.23 1315.16 1539.37 Q1312.55 1536.5 1308.22 1536.5 Q1303.32 1536.5 1300.36 1539.27 Q1297.43 1542.04 1296.99 1547.07 L1317.86 1547.04 Z" fill="#000000" fill-rule="nonzero" fill-opacity="1" /><path clip-path="url(#clip970)" d="M1353.99 1537.87 Q1353 1537.3 1351.83 1537.04 Q1350.68 1536.76 1349.28 1536.76 Q1344.31 1536.76 1341.64 1540 Q1339 1543.22 1339 1549.27 L1339 1568.04 L1333.11 1568.04 L1333.11 1532.4 L1339 1532.4 L1339 1537.93 Q1340.84 1534.69 1343.8 1533.13 Q1346.77 1531.54 1351 1531.54 Q1351.6 1531.54 1352.34 1531.63 Q1353.07 1531.7 1353.96 1531.85 L1353.99 1537.87 Z" fill="#000000" fill-rule="nonzero" fill-opacity="1" /><path clip-path="url(#clip970)" d="M1382.44 1549.81 Q1382.44 1543.44 1379.8 1539.94 Q1377.19 1536.44 1372.45 1536.44 Q1367.74 1536.44 1365.1 1539.94 Q1362.49 1543.44 1362.49 1549.81 Q1362.49 1556.14 1365.1 1559.64 Q1367.74 1563.14 1372.45 1563.14 Q1377.19 1563.14 1379.8 1559.64 Q1382.44 1556.14 1382.44 1549.81 M1388.3 1563.62 Q1388.3 1572.72 1384.26 1577.15 Q1380.22 1581.6 1371.88 1581.6 Q1368.79 1581.6 1366.05 1581.13 Q1363.32 1580.68 1360.74 1579.72 L1360.74 1574.03 Q1363.32 1575.43 1365.83 1576.1 Q1368.34 1576.76 1370.95 1576.76 Q1376.72 1576.76 1379.58 1573.74 Q1382.44 1570.75 1382.44 1564.67 L1382.44 1561.77 Q1380.63 1564.92 1377.8 1566.48 Q1374.97 1568.04 1371.02 1568.04 Q1364.46 1568.04 1360.45 1563.05 Q1356.44 1558.05 1356.44 1549.81 Q1356.44 1541.53 1360.45 1536.53 Q1364.46 1531.54 1371.02 1531.54 Q1374.97 1531.54 1377.8 1533.1 Q1380.63 1534.66 1382.44 1537.81 L1382.44 1532.4 L1388.3 1532.4 L1388.3 1563.62 Z" fill="#000000" fill-rule="nonzero" fill-opacity="1" /><path clip-path="url(#clip970)" d="M1415.2 1571.35 Q1412.71 1577.72 1410.36 1579.66 Q1408 1581.6 1404.06 1581.6 L1399.38 1581.6 L1399.38 1576.7 L1402.82 1576.7 Q1405.23 1576.7 1406.57 1575.56 Q1407.91 1574.41 1409.53 1570.14 L1410.58 1567.47 L1396.16 1532.4 L1402.37 1532.4 L1413.51 1560.28 L1424.65 1532.4 L1430.86 1532.4 L1415.2 1571.35 Z" fill="#000000" fill-rule="nonzero" fill-opacity="1" /><polyline clip-path="url(#clip972)" style="stroke:#000000; stroke-linecap:round; stroke-linejoin:round; stroke-width:2; stroke-opacity:0.1; fill:none" points="287.366,1217.21 2352.76,1217.21 "/>
<polyline clip-path="url(#clip972)" style="stroke:#000000; stroke-linecap:round; stroke-linejoin:round; stroke-width:2; stroke-opacity:0.1; fill:none" points="287.366,994.494 2352.76,994.494 "/>
<polyline clip-path="url(#clip972)" style="stroke:#000000; stroke-linecap:round; stroke-linejoin:round; stroke-width:2; stroke-opacity:0.1; fill:none" points="287.366,771.775 2352.76,771.775 "/>
<polyline clip-path="url(#clip972)" style="stroke:#000000; stroke-linecap:round; stroke-linejoin:round; stroke-width:2; stroke-opacity:0.1; fill:none" points="287.366,549.057 2352.76,549.057 "/>
<polyline clip-path="url(#clip972)" style="stroke:#000000; stroke-linecap:round; stroke-linejoin:round; stroke-width:2; stroke-opacity:0.1; fill:none" points="287.366,326.339 2352.76,326.339 "/>
<polyline clip-path="url(#clip970)" style="stroke:#000000; stroke-linecap:round; stroke-linejoin:round; stroke-width:4; stroke-opacity:1; fill:none" points="287.366,1423.18 287.366,123.472 "/>
<polyline clip-path="url(#clip970)" style="stroke:#000000; stroke-linecap:round; stroke-linejoin:round; stroke-width:4; stroke-opacity:1; fill:none" points="287.366,1217.21 306.264,1217.21 "/>
<polyline clip-path="url(#clip970)" style="stroke:#000000; stroke-linecap:round; stroke-linejoin:round; stroke-width:4; stroke-opacity:1; fill:none" points="287.366,994.494 306.264,994.494 "/>
<polyline clip-path="url(#clip970)" style="stroke:#000000; stroke-linecap:round; stroke-linejoin:round; stroke-width:4; stroke-opacity:1; fill:none" points="287.366,771.775 306.264,771.775 "/>
<polyline clip-path="url(#clip970)" style="stroke:#000000; stroke-linecap:round; stroke-linejoin:round; stroke-width:4; stroke-opacity:1; fill:none" points="287.366,549.057 306.264,549.057 "/>
<polyline clip-path="url(#clip970)" style="stroke:#000000; stroke-linecap:round; stroke-linejoin:round; stroke-width:4; stroke-opacity:1; fill:none" points="287.366,326.339 306.264,326.339 "/>
<path clip-path="url(#clip970)" d="M114.26 1217.66 L143.936 1217.66 L143.936 1221.6 L114.26 1221.6 L114.26 1217.66 Z" fill="#000000" fill-rule="nonzero" fill-opacity="1" /><path clip-path="url(#clip970)" d="M164.028 1203.01 Q160.417 1203.01 158.589 1206.58 Q156.783 1210.12 156.783 1217.25 Q156.783 1224.35 158.589 1227.92 Q160.417 1231.46 164.028 1231.46 Q167.663 1231.46 169.468 1227.92 Q171.297 1224.35 171.297 1217.25 Q171.297 1210.12 169.468 1206.58 Q167.663 1203.01 164.028 1203.01 M164.028 1199.31 Q169.839 1199.31 172.894 1203.91 Q175.973 1208.5 175.973 1217.25 Q175.973 1225.97 172.894 1230.58 Q169.839 1235.16 164.028 1235.16 Q158.218 1235.16 155.14 1230.58 Q152.084 1225.97 152.084 1217.25 Q152.084 1208.5 155.14 1203.91 Q158.218 1199.31 164.028 1199.31 Z" fill="#000000" fill-rule="nonzero" fill-opacity="1" /><path clip-path="url(#clip970)" d="M184.19 1228.61 L189.075 1228.61 L189.075 1234.49 L184.19 1234.49 L184.19 1228.61 Z" fill="#000000" fill-rule="nonzero" fill-opacity="1" /><path clip-path="url(#clip970)" d="M199.306 1199.93 L217.662 1199.93 L217.662 1203.87 L203.588 1203.87 L203.588 1212.34 Q204.607 1211.99 205.625 1211.83 Q206.644 1211.65 207.662 1211.65 Q213.449 1211.65 216.829 1214.82 Q220.209 1217.99 220.209 1223.4 Q220.209 1228.98 216.736 1232.08 Q213.264 1235.16 206.945 1235.16 Q204.769 1235.16 202.5 1234.79 Q200.255 1234.42 197.848 1233.68 L197.848 1228.98 Q199.931 1230.12 202.153 1230.67 Q204.375 1231.23 206.852 1231.23 Q210.857 1231.23 213.195 1229.12 Q215.533 1227.02 215.533 1223.4 Q215.533 1219.79 213.195 1217.69 Q210.857 1215.58 206.852 1215.58 Q204.977 1215.58 203.102 1216 Q201.25 1216.41 199.306 1217.29 L199.306 1199.93 Z" fill="#000000" fill-rule="nonzero" fill-opacity="1" /><path clip-path="url(#clip970)" d="M239.422 1203.01 Q235.81 1203.01 233.982 1206.58 Q232.176 1210.12 232.176 1217.25 Q232.176 1224.35 233.982 1227.92 Q235.81 1231.46 239.422 1231.46 Q243.056 1231.46 244.861 1227.92 Q246.69 1224.35 246.69 1217.25 Q246.69 1210.12 244.861 1206.58 Q243.056 1203.01 239.422 1203.01 M239.422 1199.31 Q245.232 1199.31 248.287 1203.91 Q251.366 1208.5 251.366 1217.25 Q251.366 1225.97 248.287 1230.58 Q245.232 1235.16 239.422 1235.16 Q233.611 1235.16 230.533 1230.58 Q227.477 1225.97 227.477 1217.25 Q227.477 1208.5 230.533 1203.91 Q233.611 1199.31 239.422 1199.31 Z" fill="#000000" fill-rule="nonzero" fill-opacity="1" /><path clip-path="url(#clip970)" d="M115.256 994.945 L144.931 994.945 L144.931 998.88 L115.256 998.88 L115.256 994.945 Z" fill="#000000" fill-rule="nonzero" fill-opacity="1" /><path clip-path="url(#clip970)" d="M165.024 980.293 Q161.413 980.293 159.584 983.857 Q157.778 987.399 157.778 994.529 Q157.778 1001.64 159.584 1005.2 Q161.413 1008.74 165.024 1008.74 Q168.658 1008.74 170.464 1005.2 Q172.292 1001.64 172.292 994.529 Q172.292 987.399 170.464 983.857 Q168.658 980.293 165.024 980.293 M165.024 976.589 Q170.834 976.589 173.889 981.195 Q176.968 985.779 176.968 994.529 Q176.968 1003.26 173.889 1007.86 Q170.834 1012.45 165.024 1012.45 Q159.214 1012.45 156.135 1007.86 Q153.079 1003.26 153.079 994.529 Q153.079 985.779 156.135 981.195 Q159.214 976.589 165.024 976.589 Z" fill="#000000" fill-rule="nonzero" fill-opacity="1" /><path clip-path="url(#clip970)" d="M185.186 1005.89 L190.07 1005.89 L190.07 1011.77 L185.186 1011.77 L185.186 1005.89 Z" fill="#000000" fill-rule="nonzero" fill-opacity="1" /><path clip-path="url(#clip970)" d="M204.283 1007.84 L220.602 1007.84 L220.602 1011.77 L198.658 1011.77 L198.658 1007.84 Q201.32 1005.08 205.903 1000.45 Q210.51 995.802 211.69 994.459 Q213.936 991.936 214.815 990.2 Q215.718 988.441 215.718 986.751 Q215.718 983.996 213.774 982.26 Q211.852 980.524 208.75 980.524 Q206.551 980.524 204.098 981.288 Q201.667 982.052 198.889 983.603 L198.889 978.881 Q201.713 977.746 204.167 977.168 Q206.621 976.589 208.658 976.589 Q214.028 976.589 217.223 979.274 Q220.417 981.959 220.417 986.45 Q220.417 988.58 219.607 990.501 Q218.82 992.399 216.713 994.992 Q216.135 995.663 213.033 998.88 Q209.931 1002.07 204.283 1007.84 Z" fill="#000000" fill-rule="nonzero" fill-opacity="1" /><path clip-path="url(#clip970)" d="M230.463 977.214 L248.82 977.214 L248.82 981.149 L234.746 981.149 L234.746 989.621 Q235.764 989.274 236.783 989.112 Q237.801 988.927 238.82 988.927 Q244.607 988.927 247.986 992.098 Q251.366 995.269 251.366 1000.69 Q251.366 1006.26 247.894 1009.37 Q244.421 1012.45 238.102 1012.45 Q235.926 1012.45 233.658 1012.07 Q231.412 1011.7 229.005 1010.96 L229.005 1006.26 Q231.088 1007.4 233.31 1007.95 Q235.533 1008.51 238.009 1008.51 Q242.014 1008.51 244.352 1006.4 Q246.69 1004.3 246.69 1000.69 Q246.69 997.075 244.352 994.968 Q242.014 992.862 238.009 992.862 Q236.135 992.862 234.26 993.279 Q232.408 993.695 230.463 994.575 L230.463 977.214 Z" fill="#000000" fill-rule="nonzero" fill-opacity="1" /><path clip-path="url(#clip970)" d="M164.028 757.574 Q160.417 757.574 158.589 761.139 Q156.783 764.681 156.783 771.81 Q156.783 778.917 158.589 782.481 Q160.417 786.023 164.028 786.023 Q167.663 786.023 169.468 782.481 Q171.297 778.917 171.297 771.81 Q171.297 764.681 169.468 761.139 Q167.663 757.574 164.028 757.574 M164.028 753.87 Q169.839 753.87 172.894 758.477 Q175.973 763.06 175.973 771.81 Q175.973 780.537 172.894 785.143 Q169.839 789.727 164.028 789.727 Q158.218 789.727 155.14 785.143 Q152.084 780.537 152.084 771.81 Q152.084 763.06 155.14 758.477 Q158.218 753.87 164.028 753.87 Z" fill="#000000" fill-rule="nonzero" fill-opacity="1" /><path clip-path="url(#clip970)" d="M184.19 783.176 L189.075 783.176 L189.075 789.055 L184.19 789.055 L184.19 783.176 Z" fill="#000000" fill-rule="nonzero" fill-opacity="1" /><path clip-path="url(#clip970)" d="M209.26 757.574 Q205.649 757.574 203.82 761.139 Q202.014 764.681 202.014 771.81 Q202.014 778.917 203.82 782.481 Q205.649 786.023 209.26 786.023 Q212.894 786.023 214.699 782.481 Q216.528 778.917 216.528 771.81 Q216.528 764.681 214.699 761.139 Q212.894 757.574 209.26 757.574 M209.26 753.87 Q215.07 753.87 218.125 758.477 Q221.204 763.06 221.204 771.81 Q221.204 780.537 218.125 785.143 Q215.07 789.727 209.26 789.727 Q203.449 789.727 200.371 785.143 Q197.315 780.537 197.315 771.81 Q197.315 763.06 200.371 758.477 Q203.449 753.87 209.26 753.87 Z" fill="#000000" fill-rule="nonzero" fill-opacity="1" /><path clip-path="url(#clip970)" d="M239.422 757.574 Q235.81 757.574 233.982 761.139 Q232.176 764.681 232.176 771.81 Q232.176 778.917 233.982 782.481 Q235.81 786.023 239.422 786.023 Q243.056 786.023 244.861 782.481 Q246.69 778.917 246.69 771.81 Q246.69 764.681 244.861 761.139 Q243.056 757.574 239.422 757.574 M239.422 753.87 Q245.232 753.87 248.287 758.477 Q251.366 763.06 251.366 771.81 Q251.366 780.537 248.287 785.143 Q245.232 789.727 239.422 789.727 Q233.611 789.727 230.533 785.143 Q227.477 780.537 227.477 771.81 Q227.477 763.06 230.533 758.477 Q233.611 753.87 239.422 753.87 Z" fill="#000000" fill-rule="nonzero" fill-opacity="1" /><path clip-path="url(#clip970)" d="M165.024 534.856 Q161.413 534.856 159.584 538.42 Q157.778 541.962 157.778 549.092 Q157.778 556.198 159.584 559.763 Q161.413 563.305 165.024 563.305 Q168.658 563.305 170.464 559.763 Q172.292 556.198 172.292 549.092 Q172.292 541.962 170.464 538.42 Q168.658 534.856 165.024 534.856 M165.024 531.152 Q170.834 531.152 173.889 535.758 Q176.968 540.342 176.968 549.092 Q176.968 557.819 173.889 562.425 Q170.834 567.008 165.024 567.008 Q159.214 567.008 156.135 562.425 Q153.079 557.819 153.079 549.092 Q153.079 540.342 156.135 535.758 Q159.214 531.152 165.024 531.152 Z" fill="#000000" fill-rule="nonzero" fill-opacity="1" /><path clip-path="url(#clip970)" d="M185.186 560.457 L190.07 560.457 L190.07 566.337 L185.186 566.337 L185.186 560.457 Z" fill="#000000" fill-rule="nonzero" fill-opacity="1" /><path clip-path="url(#clip970)" d="M204.283 562.402 L220.602 562.402 L220.602 566.337 L198.658 566.337 L198.658 562.402 Q201.32 559.647 205.903 555.018 Q210.51 550.365 211.69 549.022 Q213.936 546.499 214.815 544.763 Q215.718 543.004 215.718 541.314 Q215.718 538.559 213.774 536.823 Q211.852 535.087 208.75 535.087 Q206.551 535.087 204.098 535.851 Q201.667 536.615 198.889 538.166 L198.889 533.444 Q201.713 532.309 204.167 531.731 Q206.621 531.152 208.658 531.152 Q214.028 531.152 217.223 533.837 Q220.417 536.522 220.417 541.013 Q220.417 543.143 219.607 545.064 Q218.82 546.962 216.713 549.555 Q216.135 550.226 213.033 553.444 Q209.931 556.638 204.283 562.402 Z" fill="#000000" fill-rule="nonzero" fill-opacity="1" /><path clip-path="url(#clip970)" d="M230.463 531.777 L248.82 531.777 L248.82 535.712 L234.746 535.712 L234.746 544.184 Q235.764 543.837 236.783 543.675 Q237.801 543.49 238.82 543.49 Q244.607 543.49 247.986 546.661 Q251.366 549.832 251.366 555.249 Q251.366 560.828 247.894 563.93 Q244.421 567.008 238.102 567.008 Q235.926 567.008 233.658 566.638 Q231.412 566.268 229.005 565.527 L229.005 560.828 Q231.088 561.962 233.31 562.518 Q235.533 563.073 238.009 563.073 Q242.014 563.073 244.352 560.967 Q246.69 558.86 246.69 555.249 Q246.69 551.638 244.352 549.532 Q242.014 547.425 238.009 547.425 Q236.135 547.425 234.26 547.842 Q232.408 548.258 230.463 549.138 L230.463 531.777 Z" fill="#000000" fill-rule="nonzero" fill-opacity="1" /><path clip-path="url(#clip970)" d="M164.028 312.137 Q160.417 312.137 158.589 315.702 Q156.783 319.244 156.783 326.373 Q156.783 333.48 158.589 337.045 Q160.417 340.586 164.028 340.586 Q167.663 340.586 169.468 337.045 Q171.297 333.48 171.297 326.373 Q171.297 319.244 169.468 315.702 Q167.663 312.137 164.028 312.137 M164.028 308.434 Q169.839 308.434 172.894 313.04 Q175.973 317.623 175.973 326.373 Q175.973 335.1 172.894 339.707 Q169.839 344.29 164.028 344.29 Q158.218 344.29 155.14 339.707 Q152.084 335.1 152.084 326.373 Q152.084 317.623 155.14 313.04 Q158.218 308.434 164.028 308.434 Z" fill="#000000" fill-rule="nonzero" fill-opacity="1" /><path clip-path="url(#clip970)" d="M184.19 337.739 L189.075 337.739 L189.075 343.619 L184.19 343.619 L184.19 337.739 Z" fill="#000000" fill-rule="nonzero" fill-opacity="1" /><path clip-path="url(#clip970)" d="M199.306 309.059 L217.662 309.059 L217.662 312.994 L203.588 312.994 L203.588 321.466 Q204.607 321.119 205.625 320.957 Q206.644 320.771 207.662 320.771 Q213.449 320.771 216.829 323.943 Q220.209 327.114 220.209 332.531 Q220.209 338.109 216.736 341.211 Q213.264 344.29 206.945 344.29 Q204.769 344.29 202.5 343.92 Q200.255 343.549 197.848 342.808 L197.848 338.109 Q199.931 339.244 202.153 339.799 Q204.375 340.355 206.852 340.355 Q210.857 340.355 213.195 338.248 Q215.533 336.142 215.533 332.531 Q215.533 328.92 213.195 326.813 Q210.857 324.707 206.852 324.707 Q204.977 324.707 203.102 325.123 Q201.25 325.54 199.306 326.42 L199.306 309.059 Z" fill="#000000" fill-rule="nonzero" fill-opacity="1" /><path clip-path="url(#clip970)" d="M239.422 312.137 Q235.81 312.137 233.982 315.702 Q232.176 319.244 232.176 326.373 Q232.176 333.48 233.982 337.045 Q235.81 340.586 239.422 340.586 Q243.056 340.586 244.861 337.045 Q246.69 333.48 246.69 326.373 Q246.69 319.244 244.861 315.702 Q243.056 312.137 239.422 312.137 M239.422 308.434 Q245.232 308.434 248.287 313.04 Q251.366 317.623 251.366 326.373 Q251.366 335.1 248.287 339.707 Q245.232 344.29 239.422 344.29 Q233.611 344.29 230.533 339.707 Q227.477 335.1 227.477 326.373 Q227.477 317.623 230.533 313.04 Q233.611 308.434 239.422 308.434 Z" fill="#000000" fill-rule="nonzero" fill-opacity="1" /><path clip-path="url(#clip970)" d="M33.7671 864.053 L14.479 864.053 L14.479 858.197 L64.0042 858.197 L64.0042 864.053 L58.657 864.053 Q61.8398 865.899 63.3994 868.732 Q64.9272 871.533 64.9272 875.48 Q64.9272 881.941 59.771 886.015 Q54.6147 890.057 46.212 890.057 Q37.8093 890.057 32.6531 886.015 Q27.4968 881.941 27.4968 875.48 Q27.4968 871.533 29.0564 868.732 Q30.5842 865.899 33.7671 864.053 M46.212 884.01 Q52.6732 884.01 56.3653 881.368 Q60.0256 878.694 60.0256 874.047 Q60.0256 869.4 56.3653 866.727 Q52.6732 864.053 46.212 864.053 Q39.7508 864.053 36.0905 866.727 Q32.3984 869.4 32.3984 874.047 Q32.3984 878.694 36.0905 881.368 Q39.7508 884.01 46.212 884.01 Z" fill="#000000" fill-rule="nonzero" fill-opacity="1" /><path clip-path="url(#clip970)" d="M44.7161 815.642 L47.5806 815.642 L47.5806 842.569 Q53.6281 842.187 56.8109 838.941 Q59.9619 835.662 59.9619 829.838 Q59.9619 826.464 59.1344 823.313 Q58.3069 820.13 56.6518 817.011 L62.1899 817.011 Q63.5267 820.162 64.227 823.472 Q64.9272 826.782 64.9272 830.188 Q64.9272 838.718 59.9619 843.715 Q54.9967 848.68 46.5303 848.68 Q37.7774 848.68 32.6531 843.969 Q27.4968 839.227 27.4968 831.206 Q27.4968 824.013 32.1438 819.843 Q36.7589 815.642 44.7161 815.642 M42.9973 821.498 Q38.1912 821.562 35.3266 824.204 Q32.4621 826.814 32.4621 831.143 Q32.4621 836.044 35.2312 839.004 Q38.0002 841.932 43.0292 842.378 L42.9973 821.498 Z" fill="#000000" fill-rule="nonzero" fill-opacity="1" /><path clip-path="url(#clip970)" d="M42.4881 776.397 L64.0042 776.397 L64.0042 782.254 L42.679 782.254 Q37.6183 782.254 35.1038 784.227 Q32.5894 786.201 32.5894 790.147 Q32.5894 794.89 35.6131 797.627 Q38.6368 800.364 43.8567 800.364 L64.0042 800.364 L64.0042 806.253 L28.3562 806.253 L28.3562 800.364 L33.8944 800.364 Q30.6797 798.264 29.0883 795.431 Q27.4968 792.566 27.4968 788.842 Q27.4968 782.699 31.3163 779.548 Q35.1038 776.397 42.4881 776.397 Z" fill="#000000" fill-rule="nonzero" fill-opacity="1" /><path clip-path="url(#clip970)" d="M29.4065 741.991 L34.9447 741.991 Q33.6716 744.473 33.035 747.147 Q32.3984 749.821 32.3984 752.685 Q32.3984 757.046 33.7352 759.242 Q35.072 761.406 37.7456 761.406 Q39.7826 761.406 40.9603 759.847 Q42.1061 758.287 43.1565 753.576 L43.6021 751.571 Q44.9389 745.333 47.3897 742.723 Q49.8086 740.081 54.1691 740.081 Q59.1344 740.081 62.0308 744.028 Q64.9272 747.943 64.9272 754.818 Q64.9272 757.682 64.3543 760.801 Q63.8132 763.889 62.6992 767.326 L56.6518 767.326 Q58.3387 764.08 59.198 760.929 Q60.0256 757.778 60.0256 754.69 Q60.0256 750.553 58.6251 748.325 Q57.1929 746.097 54.6147 746.097 Q52.2276 746.097 50.9545 747.72 Q49.6813 749.311 48.5037 754.754 L48.0262 756.791 Q46.8804 762.234 44.5251 764.653 Q42.138 767.072 38.0002 767.072 Q32.9713 767.072 30.2341 763.507 Q27.4968 759.942 27.4968 753.385 Q27.4968 750.139 27.9743 747.274 Q28.4517 744.41 29.4065 741.991 Z" fill="#000000" fill-rule="nonzero" fill-opacity="1" /><path clip-path="url(#clip970)" d="M28.3562 730.755 L28.3562 724.899 L64.0042 724.899 L64.0042 730.755 L28.3562 730.755 M14.479 730.755 L14.479 724.899 L21.895 724.899 L21.895 730.755 L14.479 730.755 Z" fill="#000000" fill-rule="nonzero" fill-opacity="1" /><path clip-path="url(#clip970)" d="M18.2347 706.852 L28.3562 706.852 L28.3562 694.789 L32.9077 694.789 L32.9077 706.852 L52.2594 706.852 Q56.6199 706.852 57.8613 705.674 Q59.1026 704.465 59.1026 700.805 L59.1026 694.789 L64.0042 694.789 L64.0042 700.805 Q64.0042 707.584 61.4897 710.162 Q58.9434 712.74 52.2594 712.74 L32.9077 712.74 L32.9077 717.037 L28.3562 717.037 L28.3562 712.74 L18.2347 712.74 L18.2347 706.852 Z" fill="#000000" fill-rule="nonzero" fill-opacity="1" /><path clip-path="url(#clip970)" d="M67.3143 672.254 Q73.68 674.737 75.6216 677.092 Q77.5631 679.448 77.5631 683.394 L77.5631 688.073 L72.6615 688.073 L72.6615 684.636 Q72.6615 682.217 71.5157 680.88 Q70.3699 679.543 66.1048 677.92 L63.4312 676.87 L28.3562 691.288 L28.3562 685.081 L56.238 673.941 L28.3562 662.801 L28.3562 656.595 L67.3143 672.254 Z" fill="#000000" fill-rule="nonzero" fill-opacity="1" /><path clip-path="url(#clip970)" d="M1035.55 18.8205 L1035.55 65.8515 L1045.43 65.8515 Q1057.95 65.8515 1063.74 60.1802 Q1069.57 54.509 1069.57 42.2752 Q1069.57 30.1225 1063.74 24.4918 Q1057.95 18.8205 1045.43 18.8205 L1035.55 18.8205 M1027.36 12.096 L1044.17 12.096 Q1061.75 12.096 1069.98 19.4281 Q1078.2 26.7198 1078.2 42.2752 Q1078.2 57.9117 1069.94 65.2439 Q1061.67 72.576 1044.17 72.576 L1027.36 72.576 L1027.36 12.096 Z" fill="#000000" fill-rule="nonzero" fill-opacity="1" /><path clip-path="url(#clip970)" d="M1115.79 17.6457 Q1106.88 17.6457 1101.62 24.2892 Q1096.39 30.9327 1096.39 42.3968 Q1096.39 53.8203 1101.62 60.4638 Q1106.88 67.1073 1115.79 67.1073 Q1124.71 67.1073 1129.89 60.4638 Q1135.12 53.8203 1135.12 42.3968 Q1135.12 30.9327 1129.89 24.2892 Q1124.71 17.6457 1115.79 17.6457 M1115.79 11.0023 Q1128.51 11.0023 1136.13 19.5497 Q1143.75 28.0566 1143.75 42.3968 Q1143.75 56.6965 1136.13 65.2439 Q1128.51 73.7508 1115.79 73.7508 Q1103.03 73.7508 1095.38 65.2439 Q1087.76 56.737 1087.76 42.3968 Q1087.76 28.0566 1095.38 19.5497 Q1103.03 11.0023 1115.79 11.0023 Z" fill="#000000" fill-rule="nonzero" fill-opacity="1" /><path clip-path="url(#clip970)" d="M1192.8 14.0809 L1192.8 22.0612 Q1188.14 19.8332 1184.01 18.7395 Q1179.88 17.6457 1176.03 17.6457 Q1169.35 17.6457 1165.7 20.2383 Q1162.1 22.8309 1162.1 27.611 Q1162.1 31.6214 1164.49 33.6873 Q1166.92 35.7128 1173.64 36.9686 L1178.58 37.9813 Q1187.74 39.7232 1192.07 44.1387 Q1196.45 48.5136 1196.45 55.8863 Q1196.45 64.6767 1190.53 69.2137 Q1184.66 73.7508 1173.28 73.7508 Q1168.98 73.7508 1164.12 72.7785 Q1159.3 71.8063 1154.12 69.9024 L1154.12 61.4765 Q1159.1 64.2716 1163.88 65.6895 Q1168.66 67.1073 1173.28 67.1073 Q1180.28 67.1073 1184.09 64.3527 Q1187.9 61.598 1187.9 56.4939 Q1187.9 52.0379 1185.15 49.5264 Q1182.43 47.0148 1176.19 45.759 L1171.21 44.7868 Q1162.06 42.9639 1157.96 39.075 Q1153.87 35.1862 1153.87 28.2591 Q1153.87 20.2383 1159.5 15.6203 Q1165.17 11.0023 1175.1 11.0023 Q1179.35 11.0023 1183.77 11.7719 Q1188.18 12.5416 1192.8 14.0809 Z" fill="#000000" fill-rule="nonzero" fill-opacity="1" /><path clip-path="url(#clip970)" d="M1230.92 27.2059 L1238.37 27.2059 L1247.69 62.6108 L1256.97 27.2059 L1265.76 27.2059 L1275.08 62.6108 L1284.35 27.2059 L1291.81 27.2059 L1279.94 72.576 L1271.15 72.576 L1261.38 35.3887 L1251.58 72.576 L1242.79 72.576 L1230.92 27.2059 Z" fill="#000000" fill-rule="nonzero" fill-opacity="1" /><path clip-path="url(#clip970)" d="M1341.92 48.0275 L1341.92 51.6733 L1307.64 51.6733 Q1308.13 59.3701 1312.26 63.421 Q1316.44 67.4314 1323.85 67.4314 Q1328.14 67.4314 1332.15 66.3781 Q1336.2 65.3249 1340.17 63.2184 L1340.17 70.267 Q1336.16 71.9684 1331.95 72.8596 Q1327.74 73.7508 1323.4 73.7508 Q1312.55 73.7508 1306.19 67.4314 Q1299.87 61.1119 1299.87 50.3365 Q1299.87 39.1965 1305.86 32.6746 Q1311.9 26.1121 1322.11 26.1121 Q1331.26 26.1121 1336.57 32.0264 Q1341.92 37.9003 1341.92 48.0275 M1334.46 45.84 Q1334.38 39.7232 1331.02 36.0774 Q1327.7 32.4315 1322.19 32.4315 Q1315.95 32.4315 1312.18 35.9558 Q1308.46 39.4801 1307.89 45.8805 L1334.46 45.84 Z" fill="#000000" fill-rule="nonzero" fill-opacity="1" /><path clip-path="url(#clip970)" d="M1373.03 76.7889 Q1369.87 84.8907 1366.87 87.3618 Q1363.87 89.8329 1358.85 89.8329 L1352.89 89.8329 L1352.89 83.5945 L1357.27 83.5945 Q1360.35 83.5945 1362.05 82.1361 Q1363.75 80.6778 1365.82 75.2496 L1367.15 71.8468 L1348.8 27.2059 L1356.7 27.2059 L1370.88 62.6918 L1385.06 27.2059 L1392.96 27.2059 L1373.03 76.7889 Z" fill="#000000" fill-rule="nonzero" fill-opacity="1" /><path clip-path="url(#clip970)" d="M1403.25 9.54393 L1410.7 9.54393 L1410.7 72.576 L1403.25 72.576 L1403.25 9.54393 Z" fill="#000000" fill-rule="nonzero" fill-opacity="1" /><path clip-path="url(#clip970)" d="M1452.99 12.096 L1461.17 12.096 L1461.17 37.6572 L1488.32 12.096 L1498.85 12.096 L1468.83 40.2903 L1500.99 72.576 L1490.22 72.576 L1461.17 43.45 L1461.17 72.576 L1452.99 72.576 L1452.99 12.096 Z" fill="#000000" fill-rule="nonzero" fill-opacity="1" /><path clip-path="url(#clip970)" d="M1515.58 18.8205 L1515.58 41.5461 L1525.87 41.5461 Q1531.58 41.5461 1534.7 38.5889 Q1537.82 35.6318 1537.82 30.163 Q1537.82 24.7348 1534.7 21.7777 Q1531.58 18.8205 1525.87 18.8205 L1515.58 18.8205 M1507.39 12.096 L1525.87 12.096 Q1536.03 12.096 1541.22 16.714 Q1546.45 21.2916 1546.45 30.163 Q1546.45 39.1155 1541.22 43.6931 Q1536.03 48.2706 1525.87 48.2706 L1515.58 48.2706 L1515.58 72.576 L1507.39 72.576 L1507.39 12.096 Z" fill="#000000" fill-rule="nonzero" fill-opacity="1" /><path clip-path="url(#clip970)" d="M1557.42 12.096 L1569.62 12.096 L1585.05 53.2532 L1600.57 12.096 L1612.76 12.096 L1612.76 72.576 L1604.78 72.576 L1604.78 19.4686 L1589.18 60.9499 L1580.96 60.9499 L1565.36 19.4686 L1565.36 72.576 L1557.42 72.576 L1557.42 12.096 Z" fill="#000000" fill-rule="nonzero" fill-opacity="1" /><polyline clip-path="url(#clip972)" style="stroke:#009af9; stroke-linecap:round; stroke-linejoin:round; stroke-width:4; stroke-opacity:1; fill:none" points="346.794,771.554 347.768,763.491 348.742,760.668 349.715,757.688 350.689,751.969 351.663,752.178 352.637,744.119 353.61,749.873 354.584,745.509 355.558,738.759 356.532,739.027 357.505,740.68 358.479,741.105 359.453,735.127 360.427,729.464 361.4,735.187 362.374,732.401 363.348,730.617 364.322,727.574 365.295,728.889 366.269,724.309 367.243,721.303 368.217,722.955 369.19,723.151 370.164,723.325 371.138,719.403 372.112,717.874 373.085,719.07 374.059,715.855 375.033,714.32 376.007,715.137 376.98,714.925 377.954,716.895 378.928,710.749 379.902,707.405 380.875,709.565 381.849,709.601 382.823,710.849 383.797,711.004 384.77,709.196 385.744,704.31 386.718,698.903 387.692,701.645 388.666,704.934 389.639,702.58 390.613,698.545 391.587,698.151 392.561,700.748 393.534,700.537 394.508,697.396 395.482,696.177 396.456,695.493 397.429,693.275 398.403,690.923 399.377,690.896 400.351,692.59 401.324,691.964 402.298,690.666 403.272,691.104 404.246,690.463 405.219,687.351 406.193,683.991 407.167,683.223 408.141,684.351 409.114,683.763 410.088,681.79 411.062,681.93 412.036,683.796 413.009,684.012 413.983,681.745 414.957,678.658 415.931,675.432 416.904,672.396 417.878,671.895 418.852,674.939 419.826,678.251 420.799,679.063 421.773,678.472 422.747,677.649 423.721,675.303 424.694,670.584 425.668,665.956 426.642,664.884 427.616,666.783 428.589,667.413 429.563,665.702 430.537,665.716 431.511,669.009 432.484,670.959 433.458,668.405 434.432,664.103 435.406,660.97 436.379,658.91 437.353,657.838 438.327,657.831 439.301,657.695 440.274,657.177 441.248,657.792 442.222,659.521 443.196,660.135 444.169,658.678 445.143,656.446 446.117,654.447 447.091,652.564 448.064,650.91 449.038,650.182 450.012,650.982 450.986,653.027 451.959,654.539 452.933,653.602 453.907,650.568 454.881,647.358 455.855,644.863 456.828,643.414 457.802,644.107 458.776,646.685 459.75,648.165 460.723,646.428 461.697,643.058 462.671,640.426 463.645,638.578 464.618,637.03 465.592,636.827 466.566,638.5 467.54,640.318 468.513,640.717 469.487,640.407 470.461,640.219 471.435,639.029 472.408,635.937 473.382,632.618 474.356,631.392 475.33,632.202 476.303,633.18 477.277,633.157 478.251,632.358 479.225,631.424 480.198,630.677 481.172,629.967 482.146,628.94 483.12,627.839 484.093,627.718 485.067,629.021 486.041,630.283 487.015,629.448 487.988,626.422 488.962,623.182 489.936,621.209 490.91,620.013 491.883,618.485 492.857,616.656 493.831,615.616 494.805,616.452 495.778,619.435 496.752,623.353 497.726,625.504 498.7,623.536 499.673,617.901 500.647,611.712 501.621,607.794 502.595,606.584 503.568,607.019 504.542,608.348 505.516,610.426 506.49,612.977 507.463,615.319 508.437,616.538 509.411,615.704 510.385,612.424 511.358,607.58 512.332,603.139 513.306,600.78 514.28,600.636 515.253,601.449 516.227,601.792 517.201,601.187 518.175,600.264 519.148,599.942 520.122,600.342 521.096,600.56 522.07,599.664 523.044,597.819 524.017,596.167 524.991,595.559 525.965,595.679 526.939,595.5 527.912,594.394 528.886,592.673 529.86,591.233 530.834,590.806 531.807,591.438 532.781,592.424 533.755,592.723 534.729,591.648 535.702,589.373 536.676,586.867 537.65,585.26 538.624,585.087 539.597,585.912 540.571,586.619 541.545,586.189 542.519,584.45 543.492,582.156 544.466,580.294 545.44,579.216 546.414,578.471 547.387,577.47 548.361,576.245 549.335,575.433 550.309,575.538 551.282,576.27 552.256,576.68 553.23,575.873 554.204,573.65 555.177,570.592 556.151,567.709 557.125,565.911 558.099,565.573 559.072,566.374 560.046,567.543 561.02,568.37 561.994,568.564 562.967,568.159 563.941,567.173 564.915,565.52 565.889,563.283 566.862,560.957 567.836,559.24 568.81,558.515 569.784,558.573 570.757,558.869 571.731,558.997 572.705,558.865 573.679,558.471 574.652,557.638 575.626,556.103 576.6,553.882 577.574,551.499 578.547,549.747 579.521,549.117 580.495,549.375 581.469,549.678 582.442,549.18 583.416,547.639 584.39,545.561 585.364,543.791 586.337,542.912 587.311,542.899 588.285,543.24 589.259,543.348 590.233,542.934 591.206,542.103 592.18,541.146 593.154,540.199 594.128,539.076 595.101,537.434 596.075,535.179 597.049,532.727 598.023,530.817 598.996,529.943 599.97,529.892 600.944,529.849 601.918,529.027 602.891,527.298 603.865,525.3 604.839,523.927 605.813,523.631 606.786,524.086 607.76,524.426 608.734,523.858 609.708,522.185 610.681,519.898 611.655,517.798 612.629,516.436 613.603,515.793 614.576,515.412 615.55,514.856 616.524,514.092 617.498,513.48 618.471,513.375 619.445,513.696 620.419,513.837 621.393,513.034 622.366,510.907 623.34,507.792 624.314,504.601 625.288,502.309 626.261,501.416 627.235,501.73 628.209,502.565 629.183,503.191 630.156,503.181 631.13,502.469 632.104,501.126 633.078,499.117 634.051,496.293 635.025,492.652 635.999,488.646 636.973,485.201 637.946,483.321 638.92,483.481 639.894,485.262 640.868,487.542 641.841,489.124 642.815,489.327 643.789,488.115 644.763,485.762 645.736,482.469 646.71,478.352 647.684,473.765 648.658,469.56 649.631,466.857 650.605,466.402 651.579,468.031 652.553,470.719 653.527,473.198 654.5,474.639 655.474,474.854 656.448,473.972 657.422,472.002 658.395,468.78 659.369,464.357 660.343,459.406 661.317,455.152 662.29,452.774 663.264,452.687 664.238,454.276 665.212,456.266 666.185,457.438 667.159,457.163 668.133,455.472 669.107,452.758 670.08,449.449 671.054,445.887 672.028,442.422 673.002,439.488 673.975,437.54 674.949,436.862 675.923,437.383 676.897,438.648 677.87,439.959 678.844,440.618 679.818,440.157 680.792,438.469 681.765,435.798 682.739,432.6 683.713,429.342 684.687,426.365 685.66,423.832 686.634,421.778 687.608,420.164 688.582,418.893 689.555,417.804 690.529,416.719 691.503,415.532 692.477,414.3 693.45,413.185 694.424,412.281 695.398,411.402 696.372,410.068 697.345,407.722 698.319,404.09 699.293,399.426 700.267,394.468 701.24,390.138 702.214,387.162 703.188,385.823 704.162,385.933 705.135,386.963 706.109,388.229 707.083,389.049 708.057,388.85 709.03,387.253 710.004,384.134 710.978,379.663 711.952,374.307 712.925,368.766 713.899,363.836 714.873,360.2 715.847,358.196 716.82,357.682 717.794,358.082 718.768,358.596 719.742,358.483 720.716,357.256 721.689,354.727 722.663,350.942 723.637,346.127 724.611,340.681 725.584,335.175 726.558,330.235 727.532,326.311 728.506,323.456 729.479,321.318 730.453,319.381 731.427,317.316 732.401,315.142 733.374,313.032 734.348,310.895 735.322,308.103 736.296,303.666 737.269,296.831 738.243,287.71 739.217,277.468 740.191,267.892 741.164,260.596 742.138,256.361 743.112,254.941 744.086,255.29 745.059,255.913 746.033,255.097 747.007,251.093 747.981,242.488 748.954,228.845 749.928,211.315 750.902,192.699 751.876,176.637 752.849,166.201 753.823,162.599 754.797,164.76 755.771,170.001 756.744,175.331 757.718,178.619 758.692,179.067 759.666,176.979 760.639,173.211 761.613,168.75 762.587,164.559 763.561,161.514 764.534,160.256 765.508,160.937 766.482,163.078 767.456,165.731 768.429,167.922 769.403,169.106 770.377,169.334 771.351,169.048 772.324,168.684 773.298,168.401 774.272,168.105 775.246,167.702 776.219,167.303 777.193,167.201 778.167,167.636 779.141,168.569 780.114,169.68 781.088,170.611 782.062,171.269 783.036,171.926 784.009,173.013 784.983,174.746 785.957,176.856 786.931,178.636 787.905,179.283 788.878,178.326 789.852,175.872 790.826,172.562 791.8,169.28 792.773,166.823 793.747,165.694 794.721,166.044 795.695,167.737 796.668,170.439 797.642,173.682 798.616,176.92 799.59,179.601 800.563,181.241 801.537,181.513 802.511,180.317 803.485,177.825 804.458,174.508 805.432,171.115 806.406,168.55 807.38,167.652 808.353,168.885 809.327,172.093 810.301,176.426 811.275,180.555 812.248,183.115 813.222,183.23 814.196,180.859 815.17,176.824 816.143,172.473 817.117,169.142 818.091,167.658 819.065,168.103 820.038,169.928 821.012,172.308 821.986,174.55 822.96,176.32 823.933,177.626 824.907,178.61 825.881,179.327 826.855,179.663 827.828,179.429 828.802,178.553 829.776,177.234 830.75,175.942 831.723,175.262 832.697,175.664 833.671,177.307 834.645,179.957 835.618,183.054 836.592,185.876 837.566,187.772 838.54,188.381 839.513,187.771 840.487,186.424 841.461,185.058 842.435,184.333 843.408,184.58 844.382,185.678 845.356,187.162 846.33,188.483 847.303,189.278 848.277,189.491 849.251,189.298 850.225,188.922 851.199,188.476 852.172,187.948 853.146,187.309 854.12,186.629 855.094,186.097 856.067,185.898 857.041,186.054 858.015,186.352 858.989,186.437 859.962,186.027 860.936,185.13 861.91,184.101 862.884,183.513 863.857,183.888 864.831,185.424 865.805,187.862 866.779,190.539 867.752,192.607 868.726,193.331 869.7,192.353 870.674,189.845 871.647,186.491 872.621,183.295 873.595,181.278 874.569,181.144 875.542,183.025 876.516,186.415 877.49,190.31 878.464,193.526 879.437,195.086 880.411,194.532 881.385,192.083 882.359,188.573 883.332,185.191 884.306,183.128 885.28,183.21 886.254,185.645 887.227,189.951 888.201,195.088 889.175,199.768 890.149,202.835 891.122,203.602 892.096,202.043 893.07,198.788 894.044,194.922 895.017,191.669 895.991,190.043 896.965,190.567 897.939,193.124 898.912,196.972 899.886,200.946 900.86,203.786 901.834,204.536 902.807,202.868 903.781,199.225 904.755,194.698 905.729,190.68 906.702,188.391 907.676,188.486 908.65,190.861 909.624,194.744 910.597,198.985 911.571,202.433 912.545,204.253 913.519,204.092 914.492,202.11 915.466,198.883 916.44,195.259 917.414,192.175 918.388,190.461 919.361,190.648 920.335,192.817 921.309,196.544 922.283,200.975 923.256,205.024 924.23,207.66 925.204,208.187 926.178,206.448 927.151,202.884 928.125,198.432 929.099,194.286 930.073,191.578 931.046,191.072 932.02,192.955 932.994,196.803 933.968,201.732 934.941,206.681 935.915,210.745 936.889,213.436 937.863,214.8 938.836,215.358 939.81,215.919 940.784,217.309 941.758,220.113 942.731,224.488 943.705,230.096 944.679,236.189 945.653,241.831 946.626,246.209 947.6,248.921 948.574,250.135 949.548,250.535 950.521,251.069 951.495,252.596 952.469,255.566 953.443,259.88 954.416,264.946 955.39,269.905 956.364,273.909 957.338,276.349 958.311,276.996 959.285,276.047 960.259,274.087 961.233,271.984 962.206,270.71 963.18,271.074 964.154,273.455 965.128,277.616 966.101,282.717 967.075,287.561 968.049,291.004 969.023,292.37 969.996,291.692 970.97,289.686 971.944,287.468 972.918,286.152 973.891,286.491 974.865,288.67 975.839,292.32 976.813,296.687 977.786,300.895 978.76,304.21 979.734,306.25 980.708,307.074 981.681,307.132 982.655,307.074 983.629,307.484 984.603,308.631 985.577,310.355 986.55,312.151 987.524,313.425 988.498,313.807 989.472,313.367 990.445,312.628 991.419,312.355 992.393,313.224 993.367,315.517 994.34,318.973 995.314,322.866 996.288,326.263 997.262,328.353 998.235,328.737 999.209,327.564 1000.18,325.491 1001.16,323.46 1002.13,322.373 1003.1,322.776 1004.08,324.654 1005.05,327.434 1006.03,330.227 1007,332.213 1007.97,333.018 1008.95,332.893 1009.92,332.585 1010.89,332.93 1011.87,334.374 1012.84,336.668 1013.82,338.94 1014.79,340.14 1015.76,339.641 1016.74,337.66 1017.71,335.236 1018.68,333.737 1019.66,334.135 1020.63,336.449 1021.61,339.668 1022.58,342.239 1023.55,342.849 1024.53,341.096 1025.5,337.675 1026.47,334.008 1027.45,331.539 1028.42,331.079 1029.4,332.559 1030.37,335.23 1031.34,338.149 1032.32,340.611 1033.29,342.305 1034.26,343.174 1035.24,343.181 1036.21,342.191 1037.19,340.082 1038.16,336.992 1039.13,333.49 1040.11,330.481 1041.08,328.874 1042.05,329.158 1043.03,331.152 1044,334.074 1044.98,336.897 1045.95,338.785 1046.92,339.382 1047.9,338.836 1048.87,337.577 1049.84,336.037 1050.82,334.471 1051.79,332.95 1052.77,331.482 1053.74,330.137 1054.71,329.077 1055.69,328.475 1056.66,328.396 1057.63,328.725 1058.61,329.193 1059.58,329.494 1060.56,329.405 1061.53,328.856 1062.5,327.91 1063.48,326.686 1064.45,325.271 1065.42,323.68 1066.4,321.877 1067.37,319.84 1068.35,317.633 1069.32,315.451 1070.29,313.599 1071.27,312.413 1072.24,312.134 1073.21,312.765 1074.19,313.998 1075.16,315.23 1076.14,315.731 1077.11,314.91 1078.08,312.616 1079.06,309.345 1080.03,306.256 1081,304.951 1081.98,307.067 1082.95,313.818 1083.93,325.637 1084.9,342.04 1085.87,361.776 1086.85,383.178 1087.82,404.614 1088.79,424.881 1089.77,443.42 1090.74,460.306 1091.72,476.056 1092.69,491.325 1093.66,506.62 1094.64,522.11 1095.61,537.606 1096.58,552.668 1097.56,566.804 1098.53,579.646 1099.51,591.053 1100.48,601.091 1101.45,609.928 1102.43,617.701 1103.4,624.437 1104.37,630.065 1105.35,634.502 1106.32,637.778 1107.3,640.113 1108.27,641.898 1109.24,643.594 1110.22,645.588 1111.19,648.078 1112.16,651.04 1113.14,654.297 1114.11,657.63 1115.09,660.886 1116.06,664.027 1117.03,667.099 1118.01,670.153 1118.98,673.174 1119.95,676.057 1120.93,678.639 1121.9,680.781 1122.88,682.437 1123.85,683.683 1124.82,684.688 1125.8,685.651 1126.77,686.736 1127.74,688.033 1128.72,689.573 1129.69,691.362 1130.67,693.418 1131.64,695.779 1132.61,698.469 1133.59,701.444 1134.56,704.553 1135.53,707.532 1136.51,710.061 1137.48,711.86 1138.46,712.794 1139.43,712.927 1140.4,712.525 1141.38,711.967 1142.35,711.631 1143.32,711.775 1144.3,712.479 1145.27,713.658 1146.25,715.135 1147.22,716.745 1148.19,718.403 1149.17,720.12 1150.14,721.959 1151.11,723.964 1152.09,726.103 1153.06,728.253 1154.04,730.245 1155.01,731.925 1155.98,733.211 1156.96,734.109 1157.93,734.695 1158.9,735.07 1159.88,735.336 1160.85,735.589 1161.83,735.938 1162.8,736.52 1163.77,737.475 1164.75,738.901 1165.72,740.78 1166.69,742.937 1167.67,745.064 1168.64,746.802 1169.62,747.868 1170.59,748.168 1171.56,747.84 1172.54,747.215 1173.51,746.691 1174.48,746.601 1175.46,747.104 1176.43,748.162 1177.41,749.59 1178.38,751.159 1179.35,752.693 1180.33,754.114 1181.3,755.435 1182.27,756.703 1183.25,757.935 1184.22,759.091 1185.2,760.085 1186.17,760.839 1187.14,761.337 1188.12,761.645 1189.09,761.897 1190.06,762.23 1191.04,762.73 1192.01,763.39 1192.99,764.123 1193.96,764.818 1194.93,765.402 1195.91,765.886 1196.88,766.359 1197.85,766.94 1198.83,767.71 1199.8,768.654 1200.78,769.656 1201.75,770.537 1202.72,771.139 1203.7,771.393 1204.67,771.358 1205.64,771.202 1206.62,771.133 1207.59,771.32 1208.57,771.825 1209.54,772.589 1210.51,773.459 1211.49,774.261 1212.46,774.869 1213.43,775.247 1214.41,775.454 1215.38,775.612 1216.36,775.85 1217.33,776.252 1218.3,776.837 1219.28,777.555 1220.25,778.322 1221.22,779.055 1222.2,779.699 1223.17,780.243 1224.15,780.712 1225.12,781.152 1226.09,781.606 1227.07,782.097 1228.04,782.629 1229.01,783.187 1229.99,783.749 1230.96,784.295 1231.94,784.812 1232.91,785.296 1233.88,785.738 1234.86,786.129 1235.83,786.454 1236.8,786.697 1237.78,786.857 1238.75,786.945 1239.73,786.988 1240.7,787.014 1241.67,787.029 1242.65,787.007 1243.62,786.881 1244.59,786.559 1245.57,785.959 1246.54,785.044 1247.52,783.848 1248.49,782.478 1249.46,781.09 1250.44,779.844 1251.41,778.855 1252.39,778.166 1253.36,777.738 1254.33,777.479 1255.31,777.284 1256.28,777.07 1257.25,776.803 1258.23,776.495 1259.2,776.191 1260.18,775.933 1261.15,775.744 1262.12,775.614 1263.1,775.507 1264.07,775.381 1265.04,775.206 1266.02,774.976 1266.99,774.717 1267.97,774.466 1268.94,774.258 1269.91,774.107 1270.89,773.994 1271.86,773.876 1272.83,773.703 1273.81,773.442 1274.78,773.096 1275.76,772.706 1276.73,772.343 1277.7,772.077 1278.68,771.955 1279.65,771.979 1280.62,772.109 1281.6,772.276 1282.57,772.41 1283.55,772.462 1284.52,772.418 1285.49,772.299 1286.47,772.146 1287.44,772.003 1288.41,771.902 1289.39,771.854 1290.36,771.857 1291.34,771.892 1292.31,771.942 1293.28,771.989 1294.26,772.02 1295.23,772.03 1296.2,772.018 1297.18,771.988 1298.15,771.948 1299.13,771.907 1300.1,771.871 1301.07,771.843 1302.05,771.823 1303.02,771.806 1303.99,771.792 1304.97,771.782 1305.94,771.78 1306.92,771.794 1307.89,771.824 1308.86,771.867 1309.84,771.911 1310.81,771.939 1311.78,771.939 1312.76,771.902 1313.73,771.834 1314.71,771.749 1315.68,771.67 1316.65,771.616 1317.63,771.603 1318.6,771.632 1319.57,771.695 1320.55,771.773 1321.52,771.843 1322.5,771.885 1323.47,771.887 1324.44,771.849 1325.42,771.783 1326.39,771.71 1327.36,771.65 1328.34,771.622 1329.31,771.63 1330.29,771.669 1331.26,771.725 1332.23,771.782 1333.21,771.827 1334.18,771.855 1335.15,771.868 1336.13,771.87 1337.1,771.868 1338.08,771.865 1339.05,771.862 1340.02,771.862 1341,771.866 1341.97,771.879 1342.94,771.904 1343.92,771.942 1344.89,771.992 1345.87,772.048 1346.84,772.102 1347.81,772.146 1348.79,772.166 1349.76,772.145 1350.73,772.061 1351.71,771.9 1352.68,771.66 1353.66,771.365 1354.63,771.065 1355.6,770.825 1356.58,770.704 1357.55,770.727 1358.52,770.872 1359.5,771.063 1360.47,771.202 1361.45,771.199 1362.42,771.016 1363.39,770.681 1364.37,770.283 1365.34,769.937 1366.31,769.738 1367.29,769.725 1368.26,769.867 1369.24,770.074 1370.21,770.239 1371.18,770.271 1372.16,770.13 1373.13,769.835 1374.1,769.442 1375.08,769.023 1376.05,768.629 1377.03,768.277 1378,767.952 1378.97,767.617 1379.95,767.245 1380.92,766.833 1381.89,766.412 1382.87,766.038 1383.84,765.762 1384.82,765.603 1385.79,765.526 1386.76,765.439 1387.74,765.218 1388.71,764.74 1389.68,763.93 1390.66,762.794 1391.63,761.421 1392.61,759.963 1393.58,758.594 1394.55,757.462 1395.53,756.652 1396.5,756.171 1397.47,755.964 1398.45,755.94 1399.42,756.004 1400.4,756.092 1401.37,756.179 1402.34,756.281 1403.32,756.431 1404.29,756.665 1405.26,757.006 1406.24,757.45 1407.21,757.975 1408.19,758.544 1409.16,759.122 1410.13,759.676 1411.11,760.187 1412.08,760.643 1413.05,761.041 1414.03,761.388 1415,761.699 1415.98,762.005 1416.95,762.338 1417.92,762.723 1418.9,763.162 1419.87,763.625 1420.84,764.049 1421.82,764.366 1422.79,764.533 1423.77,764.567 1424.74,764.562 1425.71,764.67 1426.69,765.053 1427.66,765.823 1428.63,766.981 1429.61,768.4 1430.58,769.85 1431.56,771.072 1432.53,771.872 1433.5,772.193 1434.48,772.15 1435.45,771.986 1436.42,771.986 1437.4,772.366 1438.37,773.191 1439.35,774.356 1440.32,775.638 1441.29,776.793 1442.27,777.665 1443.24,778.251 1444.21,778.684 1445.19,779.162 1446.16,779.844 1447.14,780.762 1448.11,781.813 1449.08,782.801 1450.06,783.544 1451.03,783.959 1452,784.103 1452.98,784.142 1453.95,784.274 1454.93,784.637 1455.9,785.263 1456.87,786.09 1457.85,787.018 1458.82,787.985 1459.79,788.993 1460.77,790.095 1461.74,791.327 1462.72,792.641 1463.69,793.876 1464.66,794.808 1465.64,795.235 1466.61,795.097 1467.58,794.534 1468.56,793.873 1469.53,793.526 1470.51,793.843 1471.48,794.99 1472.45,796.892 1473.43,799.276 1474.4,801.777 1475.37,804.071 1476.35,805.97 1477.32,807.442 1478.3,808.568 1479.27,809.466 1480.24,810.231 1481.22,810.909 1482.19,811.517 1483.16,812.082 1484.14,812.66 1485.11,813.331 1486.09,814.16 1487.06,815.173 1488.03,816.343 1489.01,817.614 1489.98,818.949 1490.95,820.353 1491.93,821.868 1492.9,823.53 1493.88,825.314 1494.85,827.095 1495.82,828.672 1496.8,829.84 1497.77,830.491 1498.74,830.687 1499.72,830.677 1500.69,830.83 1501.67,831.514 1502.64,832.961 1503.61,835.184 1504.59,837.975 1505.56,840.981 1506.53,843.832 1507.51,846.268 1508.48,848.21 1509.46,849.749 1510.43,851.084 1511.4,852.414 1512.38,853.868 1513.35,855.473 1514.32,857.182 1515.3,858.933 1516.27,860.705 1517.25,862.533 1518.22,864.492 1519.19,866.648 1520.17,869.02 1521.14,871.576 1522.11,874.254 1523.09,877.006 1524.06,879.817 1525.04,882.699 1526.01,885.649 1526.98,888.617 1527.96,891.493 1528.93,894.146 1529.9,896.5 1530.88,898.603 1531.85,900.652 1532.83,902.962 1533.8,905.867 1534.77,909.626 1535.75,914.366 1536.72,920.088 1537.69,926.751 1538.67,934.368 1539.64,943.062 1540.62,953.055 1541.59,964.573 1542.56,977.709 1543.54,992.317 1544.51,1008 1545.48,1024.18 1546.46,1040.31 1547.43,1056.1 1548.41,1071.6 1549.38,1087.28 1550.35,1103.82 1551.33,1121.86 1552.3,1141.58 1553.27,1162.52 1554.25,1183.51 1555.22,1202.85 1556.2,1218.78 1557.17,1229.97 1558.14,1235.91 1559.12,1237.11 1560.09,1234.9 1561.06,1231.05 1562.04,1227.24 1563.01,1224.64 1563.99,1223.68 1564.96,1224.13 1565.93,1225.31 1566.91,1226.43 1567.88,1226.87 1568.85,1226.34 1569.83,1224.84 1570.8,1222.63 1571.78,1220.08 1572.75,1217.54 1573.72,1215.3 1574.7,1213.54 1575.67,1212.28 1576.65,1211.52 1577.62,1211.19 1578.59,1211.25 1579.57,1211.67 1580.54,1212.44 1581.51,1213.47 1582.49,1214.63 1583.46,1215.74 1584.44,1216.66 1585.41,1217.32 1586.38,1217.7 1587.36,1217.82 1588.33,1217.61 1589.3,1216.94 1590.28,1215.65 1591.25,1213.76 1592.23,1211.56 1593.2,1209.6 1594.17,1208.49 1595.15,1208.62 1596.12,1209.9 1597.09,1211.77 1598.07,1213.42 1599.04,1214.18 1600.02,1213.79 1600.99,1212.51 1601.96,1210.84 1602.94,1209.25 1603.91,1207.96 1604.88,1206.95 1605.86,1206.18 1606.83,1205.78 1607.81,1206.11 1608.78,1207.42 1609.75,1209.59 1610.73,1211.86 1611.7,1213.08 1612.67,1212.26 1613.65,1209.16 1614.62,1204.58 1615.6,1200.12 1616.57,1197.45 1617.54,1197.52 1618.52,1200.09 1619.49,1203.85 1620.46,1207.1 1621.44,1208.63 1622.41,1208.24 1623.39,1206.72 1624.36,1205.35 1625.33,1205.12 1626.31,1206.28 1627.28,1208.24 1628.25,1210.01 1629.23,1210.78 1630.2,1210.34 1631.18,1209.2 1632.15,1208.25 1633.12,1208.33 1634.1,1209.76 1635.07,1212.29 1636.04,1215.16 1637.02,1217.51 1637.99,1218.7 1638.97,1218.56 1639.94,1217.43 1640.91,1216.01 1641.89,1215.13 1642.86,1215.42 1643.83,1217.14 1644.81,1220.06 1645.78,1223.53 1646.76,1226.73 1647.73,1228.95 1648.7,1229.88 1649.68,1229.72 1650.65,1229.09 1651.62,1228.76 1652.6,1229.26 1653.57,1230.73 1654.55,1232.83 1655.52,1234.95 1656.49,1236.55 1657.47,1237.41 1658.44,1237.74 1659.41,1238.02 1660.39,1238.82 1661.36,1240.51 1662.34,1243.07 1663.31,1246.15 1664.28,1249.16 1665.26,1251.5 1666.23,1252.75 1667.2,1252.81 1668.18,1251.97 1669.15,1250.87 1670.13,1250.29 1671.1,1250.92 1672.07,1253.09 1673.05,1256.65 1674.02,1260.96 1674.99,1265.13 1675.97,1268.32 1676.94,1270.07 1677.92,1270.39 1678.89,1269.72 1679.86,1268.76 1680.84,1268.21 1681.81,1268.61 1682.78,1270.23 1683.76,1273.07 1684.73,1276.84 1685.71,1281.07 1686.68,1285.13 1687.65,1288.45 1688.63,1290.7 1689.6,1291.94 1690.57,1292.68 1691.55,1293.72 1692.52,1295.86 1693.5,1299.62 1694.47,1304.98 1695.44,1311.44 1696.42,1318.12 1697.39,1324.14 1698.36,1328.8 1699.34,1331.81 1700.31,1333.31 1701.29,1333.81 1702.26,1334.01 1703.23,1334.64 1704.21,1336.19 1705.18,1338.85 1706.15,1342.34 1707.13,1346 1708.1,1348.97 1709.08,1350.46 1710.05,1349.98 1711.02,1347.57 1712,1343.81 1712.97,1339.67 1713.94,1336.28 1714.92,1334.61 1715.89,1335.2 1716.87,1338 1717.84,1342.37 1718.81,1347.25 1719.79,1351.38 1720.76,1353.69 1721.73,1353.51 1722.71,1350.8 1723.68,1346.15 1724.66,1340.67 1725.63,1335.72 1726.6,1332.59 1727.58,1332.17 1728.55,1334.73 1729.52,1339.72 1730.5,1345.98 1731.47,1351.95 1732.45,1356.14 1733.42,1357.56 1734.39,1356.04 1735.37,1352.27 1736.34,1347.55 1737.31,1343.41 1738.29,1341.11 1739.26,1341.29 1740.24,1343.8 1741.21,1347.79 1742.18,1351.99 1743.16,1355.14 1744.13,1356.28 1745.1,1355.14 1746.08,1352.15 1747.05,1348.31 1748.03,1344.94 1749,1343.18 1749.97,1343.65 1750.95,1346.22 1751.92,1350.05 1752.89,1353.88 1753.87,1356.46 1754.84,1356.96 1755.82,1355.26 1756.79,1351.94 1757.76,1348.06 1758.74,1344.8 1759.71,1343.11 1760.68,1343.48 1761.66,1345.81 1762.63,1349.49 1763.61,1353.6 1764.58,1357.1 1765.55,1359.15 1766.53,1359.33 1767.5,1357.72 1768.47,1354.91 1769.45,1351.82 1770.42,1349.39 1771.4,1348.3 1772.37,1348.79 1773.34,1350.58 1774.32,1353 1775.29,1355.28 1776.26,1356.76 1777.24,1357.18 1778.21,1356.69 1779.19,1355.78 1780.16,1355.01 1781.13,1354.79 1782.11,1355.2 1783.08,1356.02 1784.05,1356.89 1785.03,1357.52 1786,1357.81 1786.98,1357.88 1787.95,1357.91 1788.92,1358.04 1789.9,1358.31 1790.87,1358.71 1791.84,1359.25 1792.82,1359.98 1793.79,1360.91 1794.77,1361.93 1795.74,1362.79 1796.71,1363.13 1797.69,1362.7 1798.66,1361.49 1799.63,1359.83 1800.61,1358.22 1801.58,1357.24 1802.56,1357.33 1803.53,1358.63 1804.5,1360.96 1805.48,1363.82 1806.45,1366.56 1807.42,1368.49 1808.4,1369.12 1809.37,1368.33 1810.35,1366.41 1811.32,1363.95 1812.29,1361.61 1813.27,1359.91 1814.24,1359.09 1815.21,1359.17 1816.19,1360.1 1817.16,1361.86 1818.14,1364.44 1819.11,1367.69 1820.08,1371.16 1821.06,1374.07 1822.03,1375.55 1823,1374.97 1823.98,1372.31 1824.95,1368.29 1825.93,1364.2 1826.9,1361.41 1827.87,1360.88 1828.85,1362.77 1829.82,1366.45 1830.79,1370.7 1831.77,1374.22 1832.74,1376.04 1833.72,1375.78 1834.69,1373.67 1835.66,1370.38 1836.64,1366.81 1837.61,1363.87 1838.58,1362.26 1839.56,1362.31 1840.53,1363.94 1841.51,1366.66 1842.48,1369.77 1843.45,1372.58 1844.43,1374.6 1845.4,1375.6 1846.37,1375.61 1847.35,1374.77 1848.32,1373.32 1849.3,1371.58 1850.27,1369.96 1851.24,1368.94 1852.22,1368.85 1853.19,1369.71 1854.16,1371.2 1855.14,1372.81 1856.11,1374.16 1857.09,1375.21 1858.06,1376.2 1859.03,1377.35 1860.01,1378.56 1860.98,1379.42 1861.95,1379.46 1862.93,1378.52 1863.9,1377.04 1864.88,1375.8 1865.85,1375.46 1866.82,1376.13 1867.8,1377.29 1868.77,1378.2 1869.74,1378.38 1870.72,1378.01 1871.69,1377.76 1872.67,1378.32 1873.64,1379.89 1874.61,1382.01 1875.59,1383.79 1876.56,1384.34 1877.53,1383.2 1878.51,1380.48 1879.48,1376.81 1880.46,1373.27 1881.43,1371.12 1882.4,1371.46 1883.38,1374.66 1884.35,1379.86 1885.32,1384.8 1886.3,1386.4 1887.27,1381.91 1888.25,1370.25 1889.22,1352.62 1890.19,1332.15 1891.17,1312.69 1892.14,1297.35 1893.11,1287.62 1894.09,1283.24 1895.06,1282.72 1896.04,1283.97 1897.01,1284.84 1897.98,1283.5 1898.96,1278.81 1899.93,1270.71 1900.9,1260.33 1901.88,1249.59 1902.85,1240.46 1903.83,1234.13 1904.8,1230.64 1905.77,1229.14 1906.75,1228.51 1907.72,1227.98 1908.7,1227.25 1909.67,1226.28 1910.64,1224.93 1911.62,1222.88 1912.59,1219.72 1913.56,1215.29 1914.54,1209.79 1915.51,1203.77 1916.49,1197.89 1917.46,1192.81 1918.43,1189.01 1919.41,1186.79 1920.38,1186.17 1921.35,1186.75 1922.33,1187.76 1923.3,1188.18 1924.28,1187.1 1925.25,1184.05 1926.22,1179.21 1927.2,1173.3 1928.17,1167.32 1929.14,1162.15 1930.12,1158.34 1931.09,1156.03 1932.07,1155.07 1933.04,1155.14 1934.01,1155.86 1934.99,1156.81 1935.96,1157.51 1936.93,1157.39 1937.91,1155.93 1938.88,1152.92 1939.86,1148.61 1940.83,1143.71 1941.8,1139.18 1942.78,1135.78 1943.75,1133.73 1944.72,1132.72 1945.7,1132.12 1946.67,1131.42 1947.65,1130.46 1948.62,1129.41 1949.59,1128.5 1950.57,1127.82 1951.54,1127.2 1952.51,1126.33 1953.49,1124.89 1954.46,1122.73 1955.44,1119.87 1956.41,1116.49 1957.38,1112.93 1958.36,1109.61 1959.33,1106.95 1960.3,1105.27 1961.28,1104.64 1962.25,1104.85 1963.23,1105.44 1964.2,1105.8 1965.17,1105.42 1966.15,1103.99 1967.12,1101.56 1968.09,1098.42 1969.07,1095.01 1970.04,1091.7 1971.02,1088.77 1971.99,1086.43 1972.96,1084.94 1973.94,1084.57 1974.91,1085.37 1975.88,1086.91 1976.86,1088.34 1977.83,1088.67 1978.81,1087.26 1979.78,1084.15 1980.75,1080 1981.73,1075.6 1982.7,1071.58 1983.67,1068.32 1984.65,1066.14 1985.62,1065.41 1986.6,1066.36 1987.57,1068.71 1988.54,1071.41 1989.52,1073.03 1990.49,1072.45 1991.46,1069.51 1992.44,1065.01 1993.41,1060.21 1994.39,1056.14 1995.36,1053.28 1996.33,1051.74 1997.31,1051.5 1998.28,1052.55 1999.25,1054.66 2000.23,1057.16 2001.2,1059.01 2002.18,1059.24 2003.15,1057.47 2004.12,1054.09 2005.1,1050.01 2006.07,1046.2 2007.04,1043.22 2008.02,1041.22 2008.99,1040.09 2009.97,1039.81 2010.94,1040.39 2011.91,1041.66 2012.89,1043.05 2013.86,1043.61 2014.83,1042.49 2015.81,1039.53 2016.78,1035.51 2017.76,1031.83 2018.73,1029.73 2019.7,1029.54 2020.68,1030.54 2021.65,1031.51 2022.62,1031.57 2023.6,1030.6 2024.57,1029.14 2025.55,1027.74 2026.52,1026.6 2027.49,1025.48 2028.47,1024.14 2029.44,1022.6 2030.41,1021.21 2031.39,1020.26 2032.36,1019.74 2033.34,1019.29 2034.31,1018.43 2035.28,1016.92 2036.26,1014.94 2037.23,1013.03 2038.2,1011.77 2039.18,1011.37 2040.15,1011.5 2041.13,1011.55 2042.1,1011.05 2043.07,1009.97 2044.05,1008.69 2045.02,1007.59 2045.99,1006.69 2046.97,1005.75 2047.94,1004.49 2048.92,1002.91 2049.89,1001.36 2050.86,1000.25 2051.84,999.818 2052.81,999.872 2053.78,999.905 2054.76,999.404 2055.73,998.242 2056.71,996.809 2057.68,995.713 2058.65,995.248 2059.63,995.095 2060.6,994.558 2061.57,993.18 2062.55,991.153 2063.52,989.176 2064.5,987.908 2065.47,987.544 2066.44,987.827 2067.42,988.363 2068.39,988.856 2069.36,989.074 2070.34,988.727 2071.31,987.514 2072.29,985.358 2073.26,982.597 2074.23,979.876 2075.21,977.784 2076.18,976.547 2077.15,976.062 2078.13,976.155 2079.1,976.737 2080.08,977.655 2081.05,978.467 2082.02,978.5 2083,977.235 2083.97,974.672 2084.94,971.362 2085.92,968.151 2086.89,965.881 2087.87,965.086 2088.84,965.693 2089.81,966.918 2090.79,967.672 2091.76,967.317 2092.73,966.116 2093.71,964.849 2094.68,963.997 2095.66,963.354 2096.63,962.436 2097.6,961.103 2098.58,959.699 2099.55,958.661 2100.52,958.1 2101.5,957.702 2102.47,956.962 2103.45,955.606 2104.42,953.972 2105.39,952.925 2106.37,953.159 2107.34,954.402 2108.31,955.453 2109.29,955.15 2110.26,953.311 2111.24,950.739 2112.21,948.445 2113.18,946.943 2114.16,946.07 2115.13,945.24 2116.1,943.987 2117.08,942.506 2118.05,941.628 2119.03,941.982 2120,943.182 2120.97,944.095 2121.95,943.995 2122.92,943.259 2123.89,942.862 2124.87,943.309 2125.84,944.021 2126.82,943.65 2127.79,941.138 2128.76,936.811 2129.74,932.432 2130.71,929.916 2131.68,929.924 2132.66,931.713 2133.63,934.001 2134.61,935.727 2135.58,936.391 2136.55,936.172 2137.53,935.44 2138.5,933.84 2139.47,930.46 2140.45,925.543 2141.42,921.342 2142.4,920.22 2143.37,922.16 2144.34,925.016 2145.32,926.875 2146.29,927.308 2147.26,926.773 2148.24,925.885 2149.21,925.08 2150.19,924.069 2151.16,921.906 2152.13,918.463 2153.11,915.418 2154.08,914.64 2155.05,915.822 2156.03,916.868 2157,916.503 2157.98,915.383 2158.95,914.644 2159.92,914.499 2160.9,914.424 2161.87,913.814 2162.84,912.456 2163.82,911.03 2164.79,910.669 2165.77,911.189 2166.74,910.732 2167.71,908.295 2168.69,905.314 2169.66,903.422 2170.63,902.372 2171.61,901.72 2172.58,902.394 2173.56,904.556 2174.53,906.075 2175.5,905.241 2176.48,902.938 2177.45,900.317 2178.42,896.924 2179.4,893.27 2180.37,892.33 2181.35,895.579 2182.32,899.932 2183.29,901.345 2184.27,899.293 2185.24,895.598 2186.21,891.634 2187.19,888.712 2188.16,888.308 2189.14,890.113 2190.11,892.027 2191.08,892.691 2192.06,892.37 2193.03,891.646 2194,890.492 2194.98,888.381 2195.95,885.5 2196.93,883.817 2197.9,885.034 2198.87,887.506 2199.85,888.171 2200.82,887.003 2201.79,885.841 2202.77,884.399 2203.74,881.798 2204.72,879.267 2205.69,877.425 2206.66,875.301 2207.64,874.134 2208.61,875.873 2209.58,878.054 2210.56,877.162 2211.53,874.885 2212.51,874.918 2213.48,876.6 2214.45,876.401 2215.43,873.344 2216.4,869.777 2217.37,867.857 2218.35,867.234 2219.32,866.593 2220.3,866.565 2221.27,868.504 2222.24,870.942 2223.22,871.325 2224.19,869.091 2225.16,864.457 2226.14,858.973 2227.11,856.373 2228.09,858.089 2229.06,860.823 2230.03,860.754 2231.01,858.506 2231.98,858.089 2232.95,859.835 2233.93,859.485 2234.9,855.997 2235.88,853.218 2236.85,853.487 2237.82,854.039 2238.8,852.057 2239.77,851.107 2240.75,853.257 2241.72,854.003 2242.69,852.545 2243.67,850.753 2244.64,848.868 2245.61,846.38 2246.59,842.904 2247.56,842.135 2248.54,844.937 2249.51,845.868 2250.48,842.465 2251.46,839.408 2252.43,842.354 2253.4,845.181 2254.38,839.95 2255.35,836.398 2256.33,834.114 2257.3,832.81 2258.27,835.46 2259.25,837.669 2260.22,839.194 2261.19,833.401 2262.17,826.795 2263.14,829.555 2264.12,829.072 2265.09,829.485 2266.06,828.266 2267.04,824.554 2268.01,825.269 2268.98,823.725 2269.96,818.483 2270.93,817.485 2271.91,818.676 2272.88,822.336 2273.85,817.035 2274.83,813.169 2275.8,816.502 2276.77,813.395 2277.75,809.989 2278.72,806.954 2279.7,812.956 2280.67,808.493 2281.64,803.411 2282.62,802.749 2283.59,805.516 2284.56,804.442 2285.54,798.498 2286.51,795.693 2287.49,799.467 2288.46,791.101 2289.43,791.244 2290.41,786.746 2291.38,782.991 2292.35,780.417 2293.33,771.923 "/>
</svg>
