<?xml version="1.0" encoding="utf-8"?>
<svg xmlns="http://www.w3.org/2000/svg" xmlns:xlink="http://www.w3.org/1999/xlink" width="600" height="400" viewBox="0 0 2400 1600">
<defs>
  <clipPath id="clip810">
    <rect x="0" y="0" width="2400" height="1600"/>
  </clipPath>
</defs>
<path clip-path="url(#clip810)" d="M0 1600 L2400 1600 L2400 0 L0 0  Z" fill="#ffffff" fill-rule="evenodd" fill-opacity="1"/>
<defs>
  <clipPath id="clip811">
    <rect x="480" y="0" width="1681" height="1600"/>
  </clipPath>
</defs>
<path clip-path="url(#clip810)" d="M219.38 1423.18 L2352.76 1423.18 L2352.76 123.472 L219.38 123.472  Z" fill="#ffffff" fill-rule="evenodd" fill-opacity="1"/>
<defs>
  <clipPath id="clip812">
    <rect x="219" y="123" width="2134" height="1301"/>
  </clipPath>
</defs>
<polyline clip-path="url(#clip812)" style="stroke:#000000; stroke-linecap:round; stroke-linejoin:round; stroke-width:2; stroke-opacity:0.1; fill:none" points="279.759,1423.18 279.759,123.472 "/>
<polyline clip-path="url(#clip812)" style="stroke:#000000; stroke-linecap:round; stroke-linejoin:round; stroke-width:2; stroke-opacity:0.1; fill:none" points="782.913,1423.18 782.913,123.472 "/>
<polyline clip-path="url(#clip812)" style="stroke:#000000; stroke-linecap:round; stroke-linejoin:round; stroke-width:2; stroke-opacity:0.1; fill:none" points="1286.07,1423.18 1286.07,123.472 "/>
<polyline clip-path="url(#clip812)" style="stroke:#000000; stroke-linecap:round; stroke-linejoin:round; stroke-width:2; stroke-opacity:0.1; fill:none" points="1789.22,1423.18 1789.22,123.472 "/>
<polyline clip-path="url(#clip812)" style="stroke:#000000; stroke-linecap:round; stroke-linejoin:round; stroke-width:2; stroke-opacity:0.1; fill:none" points="2292.38,1423.18 2292.38,123.472 "/>
<polyline clip-path="url(#clip810)" style="stroke:#000000; stroke-linecap:round; stroke-linejoin:round; stroke-width:4; stroke-opacity:1; fill:none" points="219.38,1423.18 2352.76,1423.18 "/>
<polyline clip-path="url(#clip810)" style="stroke:#000000; stroke-linecap:round; stroke-linejoin:round; stroke-width:4; stroke-opacity:1; fill:none" points="279.759,1423.18 279.759,1404.28 "/>
<polyline clip-path="url(#clip810)" style="stroke:#000000; stroke-linecap:round; stroke-linejoin:round; stroke-width:4; stroke-opacity:1; fill:none" points="782.913,1423.18 782.913,1404.28 "/>
<polyline clip-path="url(#clip810)" style="stroke:#000000; stroke-linecap:round; stroke-linejoin:round; stroke-width:4; stroke-opacity:1; fill:none" points="1286.07,1423.18 1286.07,1404.28 "/>
<polyline clip-path="url(#clip810)" style="stroke:#000000; stroke-linecap:round; stroke-linejoin:round; stroke-width:4; stroke-opacity:1; fill:none" points="1789.22,1423.18 1789.22,1404.28 "/>
<polyline clip-path="url(#clip810)" style="stroke:#000000; stroke-linecap:round; stroke-linejoin:round; stroke-width:4; stroke-opacity:1; fill:none" points="2292.38,1423.18 2292.38,1404.28 "/>
<path clip-path="url(#clip810)" d="M226.287 1468.75 L255.963 1468.75 L255.963 1472.69 L226.287 1472.69 L226.287 1468.75 Z" fill="#000000" fill-rule="nonzero" fill-opacity="1" /><path clip-path="url(#clip810)" d="M266.865 1481.64 L274.504 1481.64 L274.504 1455.28 L266.194 1456.95 L266.194 1452.69 L274.458 1451.02 L279.134 1451.02 L279.134 1481.64 L286.773 1481.64 L286.773 1485.58 L266.865 1485.58 L266.865 1481.64 Z" fill="#000000" fill-rule="nonzero" fill-opacity="1" /><path clip-path="url(#clip810)" d="M296.217 1479.7 L301.101 1479.7 L301.101 1485.58 L296.217 1485.58 L296.217 1479.7 Z" fill="#000000" fill-rule="nonzero" fill-opacity="1" /><path clip-path="url(#clip810)" d="M321.286 1454.1 Q317.675 1454.1 315.846 1457.66 Q314.041 1461.2 314.041 1468.33 Q314.041 1475.44 315.846 1479.01 Q317.675 1482.55 321.286 1482.55 Q324.921 1482.55 326.726 1479.01 Q328.555 1475.44 328.555 1468.33 Q328.555 1461.2 326.726 1457.66 Q324.921 1454.1 321.286 1454.1 M321.286 1450.39 Q327.096 1450.39 330.152 1455 Q333.231 1459.58 333.231 1468.33 Q333.231 1477.06 330.152 1481.67 Q327.096 1486.25 321.286 1486.25 Q315.476 1486.25 312.397 1481.67 Q309.342 1477.06 309.342 1468.33 Q309.342 1459.58 312.397 1455 Q315.476 1450.39 321.286 1450.39 Z" fill="#000000" fill-rule="nonzero" fill-opacity="1" /><path clip-path="url(#clip810)" d="M729.939 1468.75 L759.615 1468.75 L759.615 1472.69 L729.939 1472.69 L729.939 1468.75 Z" fill="#000000" fill-rule="nonzero" fill-opacity="1" /><path clip-path="url(#clip810)" d="M779.707 1454.1 Q776.096 1454.1 774.268 1457.66 Q772.462 1461.2 772.462 1468.33 Q772.462 1475.44 774.268 1479.01 Q776.096 1482.55 779.707 1482.55 Q783.342 1482.55 785.147 1479.01 Q786.976 1475.44 786.976 1468.33 Q786.976 1461.2 785.147 1457.66 Q783.342 1454.1 779.707 1454.1 M779.707 1450.39 Q785.518 1450.39 788.573 1455 Q791.652 1459.58 791.652 1468.33 Q791.652 1477.06 788.573 1481.67 Q785.518 1486.25 779.707 1486.25 Q773.897 1486.25 770.819 1481.67 Q767.763 1477.06 767.763 1468.33 Q767.763 1459.58 770.819 1455 Q773.897 1450.39 779.707 1450.39 Z" fill="#000000" fill-rule="nonzero" fill-opacity="1" /><path clip-path="url(#clip810)" d="M799.869 1479.7 L804.754 1479.7 L804.754 1485.58 L799.869 1485.58 L799.869 1479.7 Z" fill="#000000" fill-rule="nonzero" fill-opacity="1" /><path clip-path="url(#clip810)" d="M814.985 1451.02 L833.341 1451.02 L833.341 1454.96 L819.267 1454.96 L819.267 1463.43 Q820.286 1463.08 821.304 1462.92 Q822.323 1462.73 823.341 1462.73 Q829.128 1462.73 832.508 1465.9 Q835.888 1469.08 835.888 1474.49 Q835.888 1480.07 832.415 1483.17 Q828.943 1486.25 822.624 1486.25 Q820.448 1486.25 818.179 1485.88 Q815.934 1485.51 813.527 1484.77 L813.527 1480.07 Q815.61 1481.2 817.832 1481.76 Q820.054 1482.32 822.531 1482.32 Q826.536 1482.32 828.874 1480.21 Q831.212 1478.1 831.212 1474.49 Q831.212 1470.88 828.874 1468.77 Q826.536 1466.67 822.531 1466.67 Q820.656 1466.67 818.781 1467.08 Q816.929 1467.5 814.985 1468.38 L814.985 1451.02 Z" fill="#000000" fill-rule="nonzero" fill-opacity="1" /><path clip-path="url(#clip810)" d="M1263.45 1454.1 Q1259.84 1454.1 1258.01 1457.66 Q1256.21 1461.2 1256.21 1468.33 Q1256.21 1475.44 1258.01 1479.01 Q1259.84 1482.55 1263.45 1482.55 Q1267.09 1482.55 1268.89 1479.01 Q1270.72 1475.44 1270.72 1468.33 Q1270.72 1461.2 1268.89 1457.66 Q1267.09 1454.1 1263.45 1454.1 M1263.45 1450.39 Q1269.26 1450.39 1272.32 1455 Q1275.4 1459.58 1275.4 1468.33 Q1275.4 1477.06 1272.32 1481.67 Q1269.26 1486.25 1263.45 1486.25 Q1257.64 1486.25 1254.56 1481.67 Q1251.51 1477.06 1251.51 1468.33 Q1251.51 1459.58 1254.56 1455 Q1257.64 1450.39 1263.45 1450.39 Z" fill="#000000" fill-rule="nonzero" fill-opacity="1" /><path clip-path="url(#clip810)" d="M1283.61 1479.7 L1288.5 1479.7 L1288.5 1485.58 L1283.61 1485.58 L1283.61 1479.7 Z" fill="#000000" fill-rule="nonzero" fill-opacity="1" /><path clip-path="url(#clip810)" d="M1308.68 1454.1 Q1305.07 1454.1 1303.24 1457.66 Q1301.44 1461.2 1301.44 1468.33 Q1301.44 1475.44 1303.24 1479.01 Q1305.07 1482.55 1308.68 1482.55 Q1312.32 1482.55 1314.12 1479.01 Q1315.95 1475.44 1315.95 1468.33 Q1315.95 1461.2 1314.12 1457.66 Q1312.32 1454.1 1308.68 1454.1 M1308.68 1450.39 Q1314.49 1450.39 1317.55 1455 Q1320.63 1459.58 1320.63 1468.33 Q1320.63 1477.06 1317.55 1481.67 Q1314.49 1486.25 1308.68 1486.25 Q1302.87 1486.25 1299.79 1481.67 Q1296.74 1477.06 1296.74 1468.33 Q1296.74 1459.58 1299.79 1455 Q1302.87 1450.39 1308.68 1450.39 Z" fill="#000000" fill-rule="nonzero" fill-opacity="1" /><path clip-path="url(#clip810)" d="M1767.1 1454.1 Q1763.49 1454.1 1761.66 1457.66 Q1759.86 1461.2 1759.86 1468.33 Q1759.86 1475.44 1761.66 1479.01 Q1763.49 1482.55 1767.1 1482.55 Q1770.74 1482.55 1772.54 1479.01 Q1774.37 1475.44 1774.37 1468.33 Q1774.37 1461.2 1772.54 1457.66 Q1770.74 1454.1 1767.1 1454.1 M1767.1 1450.39 Q1772.91 1450.39 1775.97 1455 Q1779.05 1459.58 1779.05 1468.33 Q1779.05 1477.06 1775.97 1481.67 Q1772.91 1486.25 1767.1 1486.25 Q1761.29 1486.25 1758.22 1481.67 Q1755.16 1477.06 1755.16 1468.33 Q1755.16 1459.58 1758.22 1455 Q1761.29 1450.39 1767.1 1450.39 Z" fill="#000000" fill-rule="nonzero" fill-opacity="1" /><path clip-path="url(#clip810)" d="M1787.27 1479.7 L1792.15 1479.7 L1792.15 1485.58 L1787.27 1485.58 L1787.27 1479.7 Z" fill="#000000" fill-rule="nonzero" fill-opacity="1" /><path clip-path="url(#clip810)" d="M1802.38 1451.02 L1820.74 1451.02 L1820.74 1454.96 L1806.66 1454.96 L1806.66 1463.43 Q1807.68 1463.08 1808.7 1462.92 Q1809.72 1462.73 1810.74 1462.73 Q1816.53 1462.73 1819.91 1465.9 Q1823.29 1469.08 1823.29 1474.49 Q1823.29 1480.07 1819.81 1483.17 Q1816.34 1486.25 1810.02 1486.25 Q1807.85 1486.25 1805.58 1485.88 Q1803.33 1485.51 1800.92 1484.77 L1800.92 1480.07 Q1803.01 1481.2 1805.23 1481.76 Q1807.45 1482.32 1809.93 1482.32 Q1813.93 1482.32 1816.27 1480.21 Q1818.61 1478.1 1818.61 1474.49 Q1818.61 1470.88 1816.27 1468.77 Q1813.93 1466.67 1809.93 1466.67 Q1808.05 1466.67 1806.18 1467.08 Q1804.33 1467.5 1802.38 1468.38 L1802.38 1451.02 Z" fill="#000000" fill-rule="nonzero" fill-opacity="1" /><path clip-path="url(#clip810)" d="M2259.53 1481.64 L2267.17 1481.64 L2267.17 1455.28 L2258.86 1456.95 L2258.86 1452.69 L2267.12 1451.02 L2271.8 1451.02 L2271.8 1481.64 L2279.44 1481.64 L2279.44 1485.58 L2259.53 1485.58 L2259.53 1481.64 Z" fill="#000000" fill-rule="nonzero" fill-opacity="1" /><path clip-path="url(#clip810)" d="M2288.88 1479.7 L2293.77 1479.7 L2293.77 1485.58 L2288.88 1485.58 L2288.88 1479.7 Z" fill="#000000" fill-rule="nonzero" fill-opacity="1" /><path clip-path="url(#clip810)" d="M2313.95 1454.1 Q2310.34 1454.1 2308.51 1457.66 Q2306.71 1461.2 2306.71 1468.33 Q2306.71 1475.44 2308.51 1479.01 Q2310.34 1482.55 2313.95 1482.55 Q2317.59 1482.55 2319.39 1479.01 Q2321.22 1475.44 2321.22 1468.33 Q2321.22 1461.2 2319.39 1457.66 Q2317.59 1454.1 2313.95 1454.1 M2313.95 1450.39 Q2319.76 1450.39 2322.82 1455 Q2325.9 1459.58 2325.9 1468.33 Q2325.9 1477.06 2322.82 1481.67 Q2319.76 1486.25 2313.95 1486.25 Q2308.14 1486.25 2305.06 1481.67 Q2302.01 1477.06 2302.01 1468.33 Q2302.01 1459.58 2305.06 1455 Q2308.14 1450.39 2313.95 1450.39 Z" fill="#000000" fill-rule="nonzero" fill-opacity="1" /><path clip-path="url(#clip810)" d="M1208.31 1548.76 L1208.31 1551.62 L1181.38 1551.62 Q1181.77 1557.67 1185.01 1560.85 Q1188.29 1564 1194.12 1564 Q1197.49 1564 1200.64 1563.17 Q1203.82 1562.35 1206.94 1560.69 L1206.94 1566.23 Q1203.79 1567.57 1200.48 1568.27 Q1197.17 1568.97 1193.77 1568.97 Q1185.24 1568.97 1180.24 1564 Q1175.27 1559.04 1175.27 1550.57 Q1175.27 1541.82 1179.98 1536.69 Q1184.73 1531.54 1192.75 1531.54 Q1199.94 1531.54 1204.11 1536.18 Q1208.31 1540.8 1208.31 1548.76 M1202.45 1547.04 Q1202.39 1542.23 1199.75 1539.37 Q1197.14 1536.5 1192.81 1536.5 Q1187.91 1536.5 1184.95 1539.27 Q1182.02 1542.04 1181.57 1547.07 L1202.45 1547.04 Z" fill="#000000" fill-rule="nonzero" fill-opacity="1" /><path clip-path="url(#clip810)" d="M1247.56 1546.53 L1247.56 1568.04 L1241.7 1568.04 L1241.7 1546.72 Q1241.7 1541.66 1239.73 1539.14 Q1237.75 1536.63 1233.81 1536.63 Q1229.06 1536.63 1226.33 1539.65 Q1223.59 1542.68 1223.59 1547.9 L1223.59 1568.04 L1217.7 1568.04 L1217.7 1532.4 L1223.59 1532.4 L1223.59 1537.93 Q1225.69 1534.72 1228.52 1533.13 Q1231.39 1531.54 1235.11 1531.54 Q1241.25 1531.54 1244.4 1535.36 Q1247.56 1539.14 1247.56 1546.53 Z" fill="#000000" fill-rule="nonzero" fill-opacity="1" /><path clip-path="url(#clip810)" d="M1289.73 1548.76 L1289.73 1551.62 L1262.8 1551.62 Q1263.18 1557.67 1266.43 1560.85 Q1269.71 1564 1275.53 1564 Q1278.91 1564 1282.06 1563.17 Q1285.24 1562.35 1288.36 1560.69 L1288.36 1566.23 Q1285.21 1567.57 1281.9 1568.27 Q1278.59 1568.97 1275.18 1568.97 Q1266.65 1568.97 1261.66 1564 Q1256.69 1559.04 1256.69 1550.57 Q1256.69 1541.82 1261.4 1536.69 Q1266.14 1531.54 1274.16 1531.54 Q1281.36 1531.54 1285.53 1536.18 Q1289.73 1540.8 1289.73 1548.76 M1283.87 1547.04 Q1283.81 1542.23 1281.17 1539.37 Q1278.56 1536.5 1274.23 1536.5 Q1269.33 1536.5 1266.37 1539.27 Q1263.44 1542.04 1262.99 1547.07 L1283.87 1547.04 Z" fill="#000000" fill-rule="nonzero" fill-opacity="1" /><path clip-path="url(#clip810)" d="M1320 1537.87 Q1319.01 1537.3 1317.83 1537.04 Q1316.69 1536.76 1315.29 1536.76 Q1310.32 1536.76 1307.65 1540 Q1305.01 1543.22 1305.01 1549.27 L1305.01 1568.04 L1299.12 1568.04 L1299.12 1532.4 L1305.01 1532.4 L1305.01 1537.93 Q1306.85 1534.69 1309.81 1533.13 Q1312.77 1531.54 1317.01 1531.54 Q1317.61 1531.54 1318.34 1531.63 Q1319.07 1531.7 1319.97 1531.85 L1320 1537.87 Z" fill="#000000" fill-rule="nonzero" fill-opacity="1" /><path clip-path="url(#clip810)" d="M1348.45 1549.81 Q1348.45 1543.44 1345.81 1539.94 Q1343.2 1536.44 1338.46 1536.44 Q1333.75 1536.44 1331.11 1539.94 Q1328.5 1543.44 1328.5 1549.81 Q1328.5 1556.14 1331.11 1559.64 Q1333.75 1563.14 1338.46 1563.14 Q1343.2 1563.14 1345.81 1559.64 Q1348.45 1556.14 1348.45 1549.81 M1354.31 1563.62 Q1354.31 1572.72 1350.27 1577.15 Q1346.22 1581.6 1337.88 1581.6 Q1334.8 1581.6 1332.06 1581.13 Q1329.32 1580.68 1326.74 1579.72 L1326.74 1574.03 Q1329.32 1575.43 1331.84 1576.1 Q1334.35 1576.76 1336.96 1576.76 Q1342.72 1576.76 1345.59 1573.74 Q1348.45 1570.75 1348.45 1564.67 L1348.45 1561.77 Q1346.64 1564.92 1343.8 1566.48 Q1340.97 1568.04 1337.03 1568.04 Q1330.47 1568.04 1326.46 1563.05 Q1322.45 1558.05 1322.45 1549.81 Q1322.45 1541.53 1326.46 1536.53 Q1330.47 1531.54 1337.03 1531.54 Q1340.97 1531.54 1343.8 1533.1 Q1346.64 1534.66 1348.45 1537.81 L1348.45 1532.4 L1354.31 1532.4 L1354.31 1563.62 Z" fill="#000000" fill-rule="nonzero" fill-opacity="1" /><path clip-path="url(#clip810)" d="M1381.2 1571.35 Q1378.72 1577.72 1376.37 1579.66 Q1374.01 1581.6 1370.06 1581.6 L1365.38 1581.6 L1365.38 1576.7 L1368.82 1576.7 Q1371.24 1576.7 1372.58 1575.56 Q1373.91 1574.41 1375.54 1570.14 L1376.59 1567.47 L1362.17 1532.4 L1368.38 1532.4 L1379.52 1560.28 L1390.66 1532.4 L1396.86 1532.4 L1381.2 1571.35 Z" fill="#000000" fill-rule="nonzero" fill-opacity="1" /><polyline clip-path="url(#clip812)" style="stroke:#000000; stroke-linecap:round; stroke-linejoin:round; stroke-width:2; stroke-opacity:0.1; fill:none" points="219.38,1386.52 2352.76,1386.52 "/>
<polyline clip-path="url(#clip812)" style="stroke:#000000; stroke-linecap:round; stroke-linejoin:round; stroke-width:2; stroke-opacity:0.1; fill:none" points="219.38,970.797 2352.76,970.797 "/>
<polyline clip-path="url(#clip812)" style="stroke:#000000; stroke-linecap:round; stroke-linejoin:round; stroke-width:2; stroke-opacity:0.1; fill:none" points="219.38,555.075 2352.76,555.075 "/>
<polyline clip-path="url(#clip812)" style="stroke:#000000; stroke-linecap:round; stroke-linejoin:round; stroke-width:2; stroke-opacity:0.1; fill:none" points="219.38,139.352 2352.76,139.352 "/>
<polyline clip-path="url(#clip810)" style="stroke:#000000; stroke-linecap:round; stroke-linejoin:round; stroke-width:4; stroke-opacity:1; fill:none" points="219.38,1423.18 219.38,123.472 "/>
<polyline clip-path="url(#clip810)" style="stroke:#000000; stroke-linecap:round; stroke-linejoin:round; stroke-width:4; stroke-opacity:1; fill:none" points="219.38,1386.52 238.278,1386.52 "/>
<polyline clip-path="url(#clip810)" style="stroke:#000000; stroke-linecap:round; stroke-linejoin:round; stroke-width:4; stroke-opacity:1; fill:none" points="219.38,970.797 238.278,970.797 "/>
<polyline clip-path="url(#clip810)" style="stroke:#000000; stroke-linecap:round; stroke-linejoin:round; stroke-width:4; stroke-opacity:1; fill:none" points="219.38,555.075 238.278,555.075 "/>
<polyline clip-path="url(#clip810)" style="stroke:#000000; stroke-linecap:round; stroke-linejoin:round; stroke-width:4; stroke-opacity:1; fill:none" points="219.38,139.352 238.278,139.352 "/>
<path clip-path="url(#clip810)" d="M126.205 1372.32 Q122.593 1372.32 120.765 1375.88 Q118.959 1379.42 118.959 1386.55 Q118.959 1393.66 120.765 1397.23 Q122.593 1400.77 126.205 1400.77 Q129.839 1400.77 131.644 1397.23 Q133.473 1393.66 133.473 1386.55 Q133.473 1379.42 131.644 1375.88 Q129.839 1372.32 126.205 1372.32 M126.205 1368.61 Q132.015 1368.61 135.07 1373.22 Q138.149 1377.8 138.149 1386.55 Q138.149 1395.28 135.07 1399.89 Q132.015 1404.47 126.205 1404.47 Q120.394 1404.47 117.316 1399.89 Q114.26 1395.28 114.26 1386.55 Q114.26 1377.8 117.316 1373.22 Q120.394 1368.61 126.205 1368.61 Z" fill="#000000" fill-rule="nonzero" fill-opacity="1" /><path clip-path="url(#clip810)" d="M146.366 1397.92 L151.251 1397.92 L151.251 1403.8 L146.366 1403.8 L146.366 1397.92 Z" fill="#000000" fill-rule="nonzero" fill-opacity="1" /><path clip-path="url(#clip810)" d="M171.436 1372.32 Q167.825 1372.32 165.996 1375.88 Q164.19 1379.42 164.19 1386.55 Q164.19 1393.66 165.996 1397.23 Q167.825 1400.77 171.436 1400.77 Q175.07 1400.77 176.876 1397.23 Q178.704 1393.66 178.704 1386.55 Q178.704 1379.42 176.876 1375.88 Q175.07 1372.32 171.436 1372.32 M171.436 1368.61 Q177.246 1368.61 180.301 1373.22 Q183.38 1377.8 183.38 1386.55 Q183.38 1395.28 180.301 1399.89 Q177.246 1404.47 171.436 1404.47 Q165.626 1404.47 162.547 1399.89 Q159.491 1395.28 159.491 1386.55 Q159.491 1377.8 162.547 1373.22 Q165.626 1368.61 171.436 1368.61 Z" fill="#000000" fill-rule="nonzero" fill-opacity="1" /><path clip-path="url(#clip810)" d="M127.2 956.596 Q123.589 956.596 121.76 960.161 Q119.955 963.702 119.955 970.832 Q119.955 977.938 121.76 981.503 Q123.589 985.045 127.2 985.045 Q130.834 985.045 132.64 981.503 Q134.468 977.938 134.468 970.832 Q134.468 963.702 132.64 960.161 Q130.834 956.596 127.2 956.596 M127.2 952.892 Q133.01 952.892 136.066 957.499 Q139.144 962.082 139.144 970.832 Q139.144 979.559 136.066 984.165 Q133.01 988.748 127.2 988.748 Q121.39 988.748 118.311 984.165 Q115.256 979.559 115.256 970.832 Q115.256 962.082 118.311 957.499 Q121.39 952.892 127.2 952.892 Z" fill="#000000" fill-rule="nonzero" fill-opacity="1" /><path clip-path="url(#clip810)" d="M147.362 982.198 L152.246 982.198 L152.246 988.077 L147.362 988.077 L147.362 982.198 Z" fill="#000000" fill-rule="nonzero" fill-opacity="1" /><path clip-path="url(#clip810)" d="M162.477 953.517 L180.834 953.517 L180.834 957.452 L166.76 957.452 L166.76 965.925 Q167.778 965.577 168.797 965.415 Q169.815 965.23 170.834 965.23 Q176.621 965.23 180.001 968.401 Q183.38 971.573 183.38 976.989 Q183.38 982.568 179.908 985.67 Q176.436 988.748 170.116 988.748 Q167.94 988.748 165.672 988.378 Q163.427 988.008 161.019 987.267 L161.019 982.568 Q163.102 983.702 165.325 984.258 Q167.547 984.813 170.024 984.813 Q174.028 984.813 176.366 982.707 Q178.704 980.6 178.704 976.989 Q178.704 973.378 176.366 971.272 Q174.028 969.165 170.024 969.165 Q168.149 969.165 166.274 969.582 Q164.422 969.999 162.477 970.878 L162.477 953.517 Z" fill="#000000" fill-rule="nonzero" fill-opacity="1" /><path clip-path="url(#clip810)" d="M117.015 568.419 L124.654 568.419 L124.654 542.054 L116.343 543.721 L116.343 539.461 L124.607 537.795 L129.283 537.795 L129.283 568.419 L136.922 568.419 L136.922 572.355 L117.015 572.355 L117.015 568.419 Z" fill="#000000" fill-rule="nonzero" fill-opacity="1" /><path clip-path="url(#clip810)" d="M146.366 566.475 L151.251 566.475 L151.251 572.355 L146.366 572.355 L146.366 566.475 Z" fill="#000000" fill-rule="nonzero" fill-opacity="1" /><path clip-path="url(#clip810)" d="M171.436 540.873 Q167.825 540.873 165.996 544.438 Q164.19 547.98 164.19 555.109 Q164.19 562.216 165.996 565.781 Q167.825 569.322 171.436 569.322 Q175.07 569.322 176.876 565.781 Q178.704 562.216 178.704 555.109 Q178.704 547.98 176.876 544.438 Q175.07 540.873 171.436 540.873 M171.436 537.17 Q177.246 537.17 180.301 541.776 Q183.38 546.359 183.38 555.109 Q183.38 563.836 180.301 568.443 Q177.246 573.026 171.436 573.026 Q165.626 573.026 162.547 568.443 Q159.491 563.836 159.491 555.109 Q159.491 546.359 162.547 541.776 Q165.626 537.17 171.436 537.17 Z" fill="#000000" fill-rule="nonzero" fill-opacity="1" /><path clip-path="url(#clip810)" d="M118.01 152.697 L125.649 152.697 L125.649 126.331 L117.339 127.998 L117.339 123.739 L125.603 122.072 L130.279 122.072 L130.279 152.697 L137.917 152.697 L137.917 156.632 L118.01 156.632 L118.01 152.697 Z" fill="#000000" fill-rule="nonzero" fill-opacity="1" /><path clip-path="url(#clip810)" d="M147.362 150.752 L152.246 150.752 L152.246 156.632 L147.362 156.632 L147.362 150.752 Z" fill="#000000" fill-rule="nonzero" fill-opacity="1" /><path clip-path="url(#clip810)" d="M162.477 122.072 L180.834 122.072 L180.834 126.007 L166.76 126.007 L166.76 134.479 Q167.778 134.132 168.797 133.97 Q169.815 133.785 170.834 133.785 Q176.621 133.785 180.001 136.956 Q183.38 140.128 183.38 145.544 Q183.38 151.123 179.908 154.225 Q176.436 157.303 170.116 157.303 Q167.94 157.303 165.672 156.933 Q163.427 156.563 161.019 155.822 L161.019 151.123 Q163.102 152.257 165.325 152.813 Q167.547 153.368 170.024 153.368 Q174.028 153.368 176.366 151.262 Q178.704 149.155 178.704 145.544 Q178.704 141.933 176.366 139.827 Q174.028 137.72 170.024 137.72 Q168.149 137.72 166.274 138.137 Q164.422 138.553 162.477 139.433 L162.477 122.072 Z" fill="#000000" fill-rule="nonzero" fill-opacity="1" /><path clip-path="url(#clip810)" d="M33.7671 864.053 L14.479 864.053 L14.479 858.197 L64.0042 858.197 L64.0042 864.053 L58.657 864.053 Q61.8398 865.899 63.3994 868.732 Q64.9272 871.533 64.9272 875.48 Q64.9272 881.941 59.771 886.015 Q54.6147 890.057 46.212 890.057 Q37.8093 890.057 32.6531 886.015 Q27.4968 881.941 27.4968 875.48 Q27.4968 871.533 29.0564 868.732 Q30.5842 865.899 33.7671 864.053 M46.212 884.01 Q52.6732 884.01 56.3653 881.368 Q60.0256 878.694 60.0256 874.047 Q60.0256 869.4 56.3653 866.727 Q52.6732 864.053 46.212 864.053 Q39.7508 864.053 36.0905 866.727 Q32.3984 869.4 32.3984 874.047 Q32.3984 878.694 36.0905 881.368 Q39.7508 884.01 46.212 884.01 Z" fill="#000000" fill-rule="nonzero" fill-opacity="1" /><path clip-path="url(#clip810)" d="M44.7161 815.642 L47.5806 815.642 L47.5806 842.569 Q53.6281 842.187 56.8109 838.941 Q59.9619 835.662 59.9619 829.838 Q59.9619 826.464 59.1344 823.313 Q58.3069 820.13 56.6518 817.011 L62.1899 817.011 Q63.5267 820.162 64.227 823.472 Q64.9272 826.782 64.9272 830.188 Q64.9272 838.718 59.9619 843.715 Q54.9967 848.68 46.5303 848.68 Q37.7774 848.68 32.6531 843.969 Q27.4968 839.227 27.4968 831.206 Q27.4968 824.013 32.1438 819.843 Q36.7589 815.642 44.7161 815.642 M42.9973 821.498 Q38.1912 821.562 35.3266 824.204 Q32.4621 826.814 32.4621 831.143 Q32.4621 836.044 35.2312 839.004 Q38.0002 841.932 43.0292 842.378 L42.9973 821.498 Z" fill="#000000" fill-rule="nonzero" fill-opacity="1" /><path clip-path="url(#clip810)" d="M42.4881 776.397 L64.0042 776.397 L64.0042 782.254 L42.679 782.254 Q37.6183 782.254 35.1038 784.227 Q32.5894 786.201 32.5894 790.147 Q32.5894 794.89 35.6131 797.627 Q38.6368 800.364 43.8567 800.364 L64.0042 800.364 L64.0042 806.253 L28.3562 806.253 L28.3562 800.364 L33.8944 800.364 Q30.6797 798.264 29.0883 795.431 Q27.4968 792.566 27.4968 788.842 Q27.4968 782.699 31.3163 779.548 Q35.1038 776.397 42.4881 776.397 Z" fill="#000000" fill-rule="nonzero" fill-opacity="1" /><path clip-path="url(#clip810)" d="M29.4065 741.991 L34.9447 741.991 Q33.6716 744.473 33.035 747.147 Q32.3984 749.821 32.3984 752.685 Q32.3984 757.046 33.7352 759.242 Q35.072 761.406 37.7456 761.406 Q39.7826 761.406 40.9603 759.847 Q42.1061 758.287 43.1565 753.576 L43.6021 751.571 Q44.9389 745.333 47.3897 742.723 Q49.8086 740.081 54.1691 740.081 Q59.1344 740.081 62.0308 744.028 Q64.9272 747.943 64.9272 754.818 Q64.9272 757.682 64.3543 760.801 Q63.8132 763.889 62.6992 767.326 L56.6518 767.326 Q58.3387 764.08 59.198 760.929 Q60.0256 757.778 60.0256 754.69 Q60.0256 750.553 58.6251 748.325 Q57.1929 746.097 54.6147 746.097 Q52.2276 746.097 50.9545 747.72 Q49.6813 749.311 48.5037 754.754 L48.0262 756.791 Q46.8804 762.234 44.5251 764.653 Q42.138 767.072 38.0002 767.072 Q32.9713 767.072 30.2341 763.507 Q27.4968 759.942 27.4968 753.385 Q27.4968 750.139 27.9743 747.274 Q28.4517 744.41 29.4065 741.991 Z" fill="#000000" fill-rule="nonzero" fill-opacity="1" /><path clip-path="url(#clip810)" d="M28.3562 730.755 L28.3562 724.899 L64.0042 724.899 L64.0042 730.755 L28.3562 730.755 M14.479 730.755 L14.479 724.899 L21.895 724.899 L21.895 730.755 L14.479 730.755 Z" fill="#000000" fill-rule="nonzero" fill-opacity="1" /><path clip-path="url(#clip810)" d="M18.2347 706.852 L28.3562 706.852 L28.3562 694.789 L32.9077 694.789 L32.9077 706.852 L52.2594 706.852 Q56.6199 706.852 57.8613 705.674 Q59.1026 704.465 59.1026 700.805 L59.1026 694.789 L64.0042 694.789 L64.0042 700.805 Q64.0042 707.584 61.4897 710.162 Q58.9434 712.74 52.2594 712.74 L32.9077 712.74 L32.9077 717.037 L28.3562 717.037 L28.3562 712.74 L18.2347 712.74 L18.2347 706.852 Z" fill="#000000" fill-rule="nonzero" fill-opacity="1" /><path clip-path="url(#clip810)" d="M67.3143 672.254 Q73.68 674.737 75.6216 677.092 Q77.5631 679.448 77.5631 683.394 L77.5631 688.073 L72.6615 688.073 L72.6615 684.636 Q72.6615 682.217 71.5157 680.88 Q70.3699 679.543 66.1048 677.92 L63.4312 676.87 L28.3562 691.288 L28.3562 685.081 L56.238 673.941 L28.3562 662.801 L28.3562 656.595 L67.3143 672.254 Z" fill="#000000" fill-rule="nonzero" fill-opacity="1" /><path clip-path="url(#clip810)" d="M1001.55 18.8205 L1001.55 65.8515 L1011.44 65.8515 Q1023.95 65.8515 1029.75 60.1802 Q1035.58 54.509 1035.58 42.2752 Q1035.58 30.1225 1029.75 24.4918 Q1023.95 18.8205 1011.44 18.8205 L1001.55 18.8205 M993.37 12.096 L1010.18 12.096 Q1027.76 12.096 1035.99 19.4281 Q1044.21 26.7198 1044.21 42.2752 Q1044.21 57.9117 1035.94 65.2439 Q1027.68 72.576 1010.18 72.576 L993.37 72.576 L993.37 12.096 Z" fill="#000000" fill-rule="nonzero" fill-opacity="1" /><path clip-path="url(#clip810)" d="M1081.8 17.6457 Q1072.89 17.6457 1067.62 24.2892 Q1062.4 30.9327 1062.4 42.3968 Q1062.4 53.8203 1067.62 60.4638 Q1072.89 67.1073 1081.8 67.1073 Q1090.71 67.1073 1095.9 60.4638 Q1101.12 53.8203 1101.12 42.3968 Q1101.12 30.9327 1095.9 24.2892 Q1090.71 17.6457 1081.8 17.6457 M1081.8 11.0023 Q1094.52 11.0023 1102.14 19.5497 Q1109.75 28.0566 1109.75 42.3968 Q1109.75 56.6965 1102.14 65.2439 Q1094.52 73.7508 1081.8 73.7508 Q1069.04 73.7508 1061.38 65.2439 Q1053.77 56.737 1053.77 42.3968 Q1053.77 28.0566 1061.38 19.5497 Q1069.04 11.0023 1081.8 11.0023 Z" fill="#000000" fill-rule="nonzero" fill-opacity="1" /><path clip-path="url(#clip810)" d="M1158.81 14.0809 L1158.81 22.0612 Q1154.15 19.8332 1150.02 18.7395 Q1145.89 17.6457 1142.04 17.6457 Q1135.35 17.6457 1131.71 20.2383 Q1128.1 22.8309 1128.1 27.611 Q1128.1 31.6214 1130.49 33.6873 Q1132.92 35.7128 1139.65 36.9686 L1144.59 37.9813 Q1153.75 39.7232 1158.08 44.1387 Q1162.45 48.5136 1162.45 55.8863 Q1162.45 64.6767 1156.54 69.2137 Q1150.67 73.7508 1139.28 73.7508 Q1134.99 73.7508 1130.13 72.7785 Q1125.31 71.8063 1120.12 69.9024 L1120.12 61.4765 Q1125.11 64.2716 1129.89 65.6895 Q1134.67 67.1073 1139.28 67.1073 Q1146.29 67.1073 1150.1 64.3527 Q1153.91 61.598 1153.91 56.4939 Q1153.91 52.0379 1151.15 49.5264 Q1148.44 47.0148 1142.2 45.759 L1137.22 44.7868 Q1128.06 42.9639 1123.97 39.075 Q1119.88 35.1862 1119.88 28.2591 Q1119.88 20.2383 1125.51 15.6203 Q1131.18 11.0023 1141.11 11.0023 Q1145.36 11.0023 1149.78 11.7719 Q1154.19 12.5416 1158.81 14.0809 Z" fill="#000000" fill-rule="nonzero" fill-opacity="1" /><path clip-path="url(#clip810)" d="M1196.93 27.2059 L1204.38 27.2059 L1213.7 62.6108 L1222.98 27.2059 L1231.77 27.2059 L1241.08 62.6108 L1250.36 27.2059 L1257.81 27.2059 L1245.94 72.576 L1237.15 72.576 L1227.39 35.3887 L1217.59 72.576 L1208.8 72.576 L1196.93 27.2059 Z" fill="#000000" fill-rule="nonzero" fill-opacity="1" /><path clip-path="url(#clip810)" d="M1307.92 48.0275 L1307.92 51.6733 L1273.65 51.6733 Q1274.14 59.3701 1278.27 63.421 Q1282.44 67.4314 1289.86 67.4314 Q1294.15 67.4314 1298.16 66.3781 Q1302.21 65.3249 1306.18 63.2184 L1306.18 70.267 Q1302.17 71.9684 1297.96 72.8596 Q1293.74 73.7508 1289.41 73.7508 Q1278.55 73.7508 1272.19 67.4314 Q1265.87 61.1119 1265.87 50.3365 Q1265.87 39.1965 1271.87 32.6746 Q1277.91 26.1121 1288.11 26.1121 Q1297.27 26.1121 1302.58 32.0264 Q1307.92 37.9003 1307.92 48.0275 M1300.47 45.84 Q1300.39 39.7232 1297.03 36.0774 Q1293.7 32.4315 1288.19 32.4315 Q1281.96 32.4315 1278.19 35.9558 Q1274.46 39.4801 1273.9 45.8805 L1300.47 45.84 Z" fill="#000000" fill-rule="nonzero" fill-opacity="1" /><path clip-path="url(#clip810)" d="M1339.03 76.7889 Q1335.87 84.8907 1332.88 87.3618 Q1329.88 89.8329 1324.86 89.8329 L1318.9 89.8329 L1318.9 83.5945 L1323.28 83.5945 Q1326.35 83.5945 1328.06 82.1361 Q1329.76 80.6778 1331.82 75.2496 L1333.16 71.8468 L1314.81 27.2059 L1322.71 27.2059 L1336.89 62.6918 L1351.06 27.2059 L1358.96 27.2059 L1339.03 76.7889 Z" fill="#000000" fill-rule="nonzero" fill-opacity="1" /><path clip-path="url(#clip810)" d="M1369.25 9.54393 L1376.71 9.54393 L1376.71 72.576 L1369.25 72.576 L1369.25 9.54393 Z" fill="#000000" fill-rule="nonzero" fill-opacity="1" /><path clip-path="url(#clip810)" d="M1419 12.096 L1427.18 12.096 L1427.18 37.6572 L1454.32 12.096 L1464.85 12.096 L1434.84 40.2903 L1467 72.576 L1456.23 72.576 L1427.18 43.45 L1427.18 72.576 L1419 72.576 L1419 12.096 Z" fill="#000000" fill-rule="nonzero" fill-opacity="1" /><path clip-path="url(#clip810)" d="M1481.58 18.8205 L1481.58 41.5461 L1491.87 41.5461 Q1497.59 41.5461 1500.71 38.5889 Q1503.82 35.6318 1503.82 30.163 Q1503.82 24.7348 1500.71 21.7777 Q1497.59 18.8205 1491.87 18.8205 L1481.58 18.8205 M1473.4 12.096 L1491.87 12.096 Q1502.04 12.096 1507.23 16.714 Q1512.45 21.2916 1512.45 30.163 Q1512.45 39.1155 1507.23 43.6931 Q1502.04 48.2706 1491.87 48.2706 L1481.58 48.2706 L1481.58 72.576 L1473.4 72.576 L1473.4 12.096 Z" fill="#000000" fill-rule="nonzero" fill-opacity="1" /><path clip-path="url(#clip810)" d="M1523.43 12.096 L1535.62 12.096 L1551.06 53.2532 L1566.57 12.096 L1578.77 12.096 L1578.77 72.576 L1570.79 72.576 L1570.79 19.4686 L1555.19 60.9499 L1546.97 60.9499 L1531.37 19.4686 L1531.37 72.576 L1523.43 72.576 L1523.43 12.096 Z" fill="#000000" fill-rule="nonzero" fill-opacity="1" /><polyline clip-path="url(#clip812)" style="stroke:#009af9; stroke-linecap:round; stroke-linejoin:round; stroke-width:4; stroke-opacity:1; fill:none" points="280.765,1386.29 281.77,1378.44 282.776,1374.62 283.782,1370.84 284.788,1367.58 285.794,1365.93 286.799,1362.29 287.805,1361.81 288.811,1359.38 289.817,1357.51 290.823,1355.91 291.828,1355.04 292.834,1352.22 293.84,1351.01 294.846,1350.9 295.852,1347.39 296.857,1346.07 297.863,1347.13 298.869,1344.48 299.875,1342.78 300.881,1342.72 301.886,1341.04 302.892,1340.48 303.898,1338.19 304.904,1336.53 305.91,1336.66 306.915,1336.31 307.921,1335.63 308.927,1332.73 309.933,1330.78 310.939,1330.65 311.945,1331.62 312.95,1329 313.956,1326.14 314.962,1326.86 315.968,1327.57 316.974,1326.38 317.979,1324.23 318.985,1322.78 319.991,1322.03 320.997,1322.31 322.003,1321.92 323.008,1320.4 324.014,1318.41 325.02,1317.27 326.026,1317.62 327.032,1316.52 328.037,1314.82 329.043,1314.98 330.049,1315.13 331.055,1313.69 332.061,1311.15 333.066,1310.05 334.072,1311.38 335.078,1311.42 336.084,1309.13 337.09,1307.49 338.095,1306.84 339.101,1306.09 340.107,1305.25 341.113,1305.06 342.119,1305.7 343.125,1305.12 344.13,1302.45 345.136,1300.11 346.142,1299.86 347.148,1301.02 348.154,1301.2 349.159,1298.94 350.165,1296.21 351.171,1295.42 352.177,1296.09 353.183,1295.97 354.188,1294.32 355.194,1292.98 356.2,1293.17 357.206,1293.27 358.212,1291.94 359.217,1290.15 360.223,1289.06 361.229,1288.86 362.235,1289.14 363.241,1289.15 364.246,1288.4 365.252,1287.12 366.258,1285.74 367.264,1284.5 368.27,1283.63 369.275,1283.36 370.281,1283.59 371.287,1283.74 372.293,1283.18 373.299,1281.7 374.305,1279.49 375.31,1277.41 376.316,1276.73 377.322,1277.57 378.328,1278.55 379.334,1278.41 380.339,1276.91 381.345,1274.57 382.351,1272.64 383.357,1272.12 384.363,1272.51 385.368,1272.69 386.374,1272.53 387.38,1272.26 388.386,1271.35 389.392,1269.39 390.397,1267.22 391.403,1266.12 392.409,1266.35 393.415,1266.98 394.421,1267.01 395.426,1266.11 396.432,1264.59 397.438,1262.99 398.444,1261.8 399.45,1261.3 400.455,1261.31 401.461,1261.25 402.467,1260.69 403.473,1259.58 404.479,1258.19 405.485,1257.06 406.49,1256.71 407.496,1256.87 408.502,1256.51 409.508,1255.11 410.514,1253.46 411.519,1252.62 412.525,1252.68 413.531,1252.99 414.537,1252.84 415.543,1251.84 416.548,1250.11 417.554,1248.53 418.56,1247.95 419.566,1248.17 420.572,1248.17 421.577,1247.43 422.583,1246.25 423.589,1245.04 424.595,1243.94 425.601,1243.09 426.606,1242.58 427.612,1242.19 428.618,1241.5 429.624,1240.39 430.63,1239.36 431.635,1238.95 432.641,1239.16 433.647,1239.31 434.653,1238.6 435.659,1236.77 436.665,1234.4 437.67,1232.57 438.676,1232.13 439.682,1233.09 440.688,1234.4 441.694,1234.52 442.699,1232.71 443.705,1229.8 444.711,1227.59 445.717,1227.19 446.723,1228.11 447.728,1228.96 448.734,1228.71 449.74,1227.38 450.746,1225.6 451.752,1224.08 452.757,1223.21 453.763,1222.89 454.769,1222.63 455.775,1221.96 456.781,1220.89 457.786,1219.9 458.792,1219.36 459.798,1219.14 460.804,1218.76 461.81,1217.91 462.815,1216.64 463.821,1215.27 464.827,1214.08 465.833,1213.26 466.839,1212.89 467.845,1212.9 468.85,1212.99 469.856,1212.73 470.862,1211.86 471.868,1210.44 472.874,1208.82 473.879,1207.45 474.885,1206.63 475.891,1206.39 476.897,1206.39 477.903,1206.16 478.908,1205.37 479.914,1204.08 480.92,1202.7 481.926,1201.6 482.932,1200.86 483.937,1200.31 484.943,1199.76 485.949,1199.19 486.955,1198.67 487.961,1198.2 488.966,1197.61 489.972,1196.68 490.978,1195.33 491.984,1193.74 492.99,1192.37 493.995,1191.59 495.001,1191.45 496.007,1191.54 497.013,1191.3 498.019,1190.42 499.025,1188.98 500.03,1187.41 501.036,1186.15 502.042,1185.43 503.048,1185.17 504.054,1185.03 505.059,1184.67 506.065,1183.89 507.071,1182.77 508.077,1181.48 509.083,1180.13 510.088,1178.76 511.094,1177.45 512.1,1176.38 513.106,1175.75 514.112,1175.55 515.117,1175.51 516.123,1175.21 517.129,1174.35 518.135,1172.95 519.141,1171.37 520.146,1170.08 521.152,1169.36 522.158,1169.09 523.164,1168.81 524.17,1168.08 525.175,1166.73 526.181,1165.06 527.187,1163.57 528.193,1162.65 529.199,1162.3 530.205,1162.14 531.21,1161.67 532.216,1160.65 533.222,1159.21 534.228,1157.79 535.234,1156.77 536.239,1156.23 537.245,1155.87 538.251,1155.26 539.257,1154.12 540.263,1152.5 541.268,1150.74 542.274,1149.28 543.28,1148.4 544.286,1148.07 545.292,1147.98 546.297,1147.69 547.303,1146.9 548.309,1145.58 549.315,1143.97 550.321,1142.43 551.326,1141.27 552.332,1140.56 553.338,1140.16 554.344,1139.78 555.35,1139.07 556.355,1137.81 557.361,1136.03 558.367,1134 559.373,1132.17 560.379,1130.92 561.385,1130.39 562.39,1130.34 563.396,1130.27 564.402,1129.67 565.408,1128.31 566.414,1126.34 567.419,1124.29 568.425,1122.75 569.431,1122.01 570.437,1121.92 571.443,1121.9 572.448,1121.33 573.454,1119.86 574.46,1117.69 575.466,1115.43 576.472,1113.76 577.477,1113 578.483,1112.93 579.489,1112.89 580.495,1112.2 581.501,1110.57 582.506,1108.23 583.512,1105.77 584.518,1103.84 585.524,1102.74 586.53,1102.35 587.535,1102.19 588.541,1101.77 589.547,1100.83 590.553,1099.38 591.559,1097.72 592.565,1096.12 593.57,1094.75 594.576,1093.61 595.582,1092.61 596.588,1091.62 597.594,1090.6 598.599,1089.5 599.605,1088.25 600.611,1086.72 601.617,1084.86 602.623,1082.75 603.628,1080.68 604.634,1079.04 605.64,1078.08 606.646,1077.71 607.652,1077.47 608.657,1076.72 609.663,1075 610.669,1072.37 611.675,1069.41 612.681,1066.98 613.686,1065.68 614.692,1065.52 615.698,1065.88 616.704,1065.83 617.71,1064.65 618.715,1062.2 619.721,1059.04 620.727,1056.09 621.733,1054.16 622.739,1053.5 623.745,1053.64 624.75,1053.69 625.756,1052.73 626.762,1050.36 627.768,1046.9 628.774,1043.24 629.779,1040.38 630.785,1038.89 631.791,1038.61 632.797,1038.75 633.803,1038.28 634.808,1036.53 635.814,1033.51 636.82,1029.9 637.826,1026.65 638.832,1024.51 639.837,1023.61 640.843,1023.45 641.849,1023.18 642.855,1022.04 643.861,1019.73 644.866,1016.53 645.872,1013.12 646.878,1010.24 647.884,1008.3 648.89,1007.22 649.895,1006.49 650.901,1005.43 651.907,1003.54 652.913,1000.72 653.919,997.326 654.925,993.956 655.93,991.174 656.936,989.224 657.942,987.922 658.948,986.75 659.954,985.114 660.959,982.631 661.965,979.309 662.971,975.532 663.977,971.873 664.983,968.813 665.988,966.519 666.994,964.775 668,963.113 669.006,961.045 670.012,958.293 671.017,954.889 672.023,951.113 673.029,947.334 674.035,943.843 675.041,940.748 676.046,937.963 677.052,935.25 678.058,932.292 679.064,928.799 680.07,924.622 681.075,919.854 682.081,914.855 683.087,910.124 684.093,906.049 685.099,902.647 686.105,899.455 687.11,895.698 688.116,890.675 689.122,884.186 690.128,876.695 691.134,869.094 692.139,862.137 693.145,855.873 694.151,849.455 695.157,841.551 696.163,831.169 697.168,818.432 698.174,804.804 699.18,792.536 700.186,783.606 701.192,778.747 702.197,777.151 703.203,777.004 704.209,776.53 705.215,774.913 706.221,772.56 707.226,770.623 708.232,770.133 709.238,771.306 710.244,773.418 711.25,775.254 712.255,775.816 713.261,774.842 714.267,772.887 715.273,770.954 716.279,769.943 717.285,770.211 718.29,771.457 719.296,772.934 720.302,773.862 721.308,773.814 722.314,772.895 723.319,771.654 724.325,770.778 725.331,770.73 726.337,771.521 727.343,772.712 728.348,773.668 729.354,773.895 730.36,773.308 731.366,772.256 732.372,771.32 733.377,770.979 734.383,771.366 735.389,772.22 736.395,773.069 737.401,773.511 738.406,773.412 739.412,772.932 740.418,772.374 741.424,771.978 742.43,771.802 743.435,771.743 744.441,771.667 745.447,771.517 746.453,771.35 747.459,771.257 748.465,771.266 749.47,771.3 750.476,771.222 751.482,770.956 752.488,770.563 753.494,770.238 754.499,770.198 755.505,770.536 756.511,771.132 757.517,771.684 758.523,771.859 759.528,771.486 760.534,770.692 761.54,769.874 762.546,769.508 763.552,769.882 764.557,770.897 765.563,772.074 766.569,772.786 767.575,772.608 768.581,771.581 769.586,770.216 770.592,769.219 771.598,769.078 772.604,769.775 773.61,770.794 774.615,771.433 775.621,771.22 776.627,770.186 777.633,768.811 778.639,767.714 779.645,767.277 780.65,767.455 781.656,767.866 782.662,768.077 783.668,767.882 784.674,767.393 785.679,766.909 786.685,766.689 787.691,766.79 788.697,767.075 789.703,767.351 790.708,767.514 791.714,767.585 792.72,767.629 793.726,767.638 794.732,767.494 795.737,767.056 796.743,766.314 797.749,765.477 798.755,764.894 799.761,764.857 800.766,765.385 801.772,766.17 802.778,766.73 803.784,766.694 804.79,766.033 805.795,765.084 806.801,764.341 807.807,764.147 808.813,764.485 809.819,765.001 810.825,765.249 811.83,764.979 812.836,764.282 813.842,763.508 814.848,763.016 815.854,762.943 816.859,763.137 817.865,763.287 818.871,763.146 819.877,762.686 820.883,762.083 821.888,761.572 822.894,761.279 823.9,761.152 824.906,761.043 825.912,760.848 826.917,760.605 827.923,760.467 828.929,760.574 829.935,760.915 830.941,761.298 831.946,761.444 832.952,761.162 833.958,760.478 834.964,759.638 835.97,758.973 836.975,758.701 837.981,758.8 838.987,759.008 839.993,758.98 840.999,758.489 842.005,757.562 843.01,756.464 844.016,755.55 845.022,755.064 846.028,755.012 847.034,755.175 848.039,755.265 849.045,755.097 850.051,754.688 851.057,754.209 852.063,753.84 853.068,753.621 854.074,753.426 855.08,753.063 856.086,752.447 857.092,751.699 858.097,751.102 859.103,750.916 860.109,751.171 861.115,751.595 862.121,751.735 863.126,751.232 864.132,750.067 865.138,748.615 866.144,747.461 867.15,747.055 868.155,747.433 869.161,748.162 870.167,748.578 871.173,748.164 872.179,746.856 873.184,745.09 874.19,743.546 875.196,742.766 876.202,742.855 877.208,743.449 878.214,743.952 879.219,743.893 880.225,743.178 881.231,742.092 882.237,741.08 883.243,740.454 884.248,740.221 885.254,740.114 886.26,739.786 887.266,739.012 888.272,737.752 889.277,736.052 890.283,733.878 891.289,731.018 892.295,727.161 893.301,722.108 894.306,715.982 895.312,709.278 896.318,702.7 897.324,696.862 898.33,692.024 899.335,688.008 900.341,684.357 901.347,680.618 902.353,676.592 903.359,672.399 904.364,668.346 905.37,664.692 906.376,661.47 907.382,658.464 908.388,655.358 909.394,651.926 910.399,648.159 911.405,644.236 912.411,640.396 913.417,636.791 914.423,633.423 915.428,630.196 916.434,627.021 917.44,623.883 918.446,620.829 919.452,617.881 920.457,614.963 921.463,611.905 922.469,608.547 923.475,604.849 924.481,600.948 925.486,597.092 926.492,593.487 927.498,590.173 928.504,586.993 929.51,583.697 930.515,580.094 931.521,576.163 932.527,572.04 933.533,567.914 934.539,563.9 935.544,559.988 936.55,556.086 937.556,552.118 938.562,548.084 939.568,544.041 940.574,540.029 941.579,536.009 942.585,531.874 943.591,527.525 944.597,522.958 945.603,518.27 946.608,513.587 947.614,508.95 948.62,504.257 949.626,499.308 950.632,493.944 951.637,488.166 952.643,482.162 953.649,476.196 954.655,470.449 955.661,464.896 956.666,459.318 957.672,453.425 958.678,447.024 959.684,440.108 960.69,432.824 961.695,425.347 962.701,417.75 963.707,409.958 964.713,401.795 965.719,393.095 966.724,383.769 967.73,373.796 968.736,363.136 969.742,351.621 970.748,338.919 971.754,324.609 972.759,308.363 973.765,290.154 974.771,270.407 975.777,250.009 976.783,230.173 977.788,212.182 978.794,197.095 979.8,185.527 980.806,177.553 981.812,172.763 982.817,170.446 983.823,169.803 984.829,170.138 985.835,170.948 986.841,171.935 987.846,172.941 988.852,173.883 989.858,174.705 990.864,175.376 991.87,175.9 992.875,176.332 993.881,176.764 994.887,177.288 995.893,177.958 996.899,178.756 997.904,179.596 998.91,180.358 999.916,180.944 1000.92,181.324 1001.93,181.562 1002.93,181.786 1003.94,182.137 1004.95,182.691 1005.95,183.41 1006.96,184.144 1007.96,184.694 1008.97,184.904 1009.97,184.742 1010.98,184.334 1011.99,183.909 1012.99,183.702 1014,183.846 1015,184.305 1016.01,184.893 1017.01,185.348 1018.02,185.431 1019.03,185.012 1020.03,184.096 1021.04,182.812 1022.04,181.364 1023.05,179.97 1024.06,178.803 1025.06,177.946 1026.07,177.347 1027.07,176.824 1028.08,176.11 1029.08,174.947 1030.09,173.197 1031.1,170.911 1032.1,168.314 1033.11,165.72 1034.11,163.412 1035.12,161.596 1036.13,160.479 1037.13,160.45 1038.14,162.27 1039.14,167.137 1040.15,176.511 1041.15,191.721 1042.16,213.493 1043.17,241.589 1044.17,274.743 1045.18,310.947 1046.18,347.979 1047.19,383.997 1048.19,417.946 1049.2,449.667 1050.21,479.685 1051.21,508.79 1052.22,537.602 1053.22,566.265 1054.23,594.366 1055.24,621.084 1056.24,645.474 1057.25,666.78 1058.25,684.658 1059.26,699.264 1060.26,711.182 1061.27,721.25 1062.28,730.36 1063.28,739.291 1064.29,748.616 1065.29,758.682 1066.3,769.625 1067.31,781.401 1068.31,793.814 1069.32,806.546 1070.32,819.221 1071.33,831.484 1072.33,843.09 1073.34,853.957 1074.35,864.161 1075.35,873.864 1076.36,883.212 1077.36,892.263 1078.37,900.964 1079.37,909.203 1080.38,916.891 1081.39,924.019 1082.39,930.685 1083.4,937.049 1084.4,943.277 1085.41,949.481 1086.42,955.706 1087.42,961.933 1088.43,968.111 1089.43,974.176 1090.44,980.068 1091.44,985.729 1092.45,991.122 1093.46,996.243 1094.46,1001.14 1095.47,1005.93 1096.47,1010.72 1097.48,1015.62 1098.49,1020.67 1099.49,1025.82 1100.5,1030.95 1101.5,1035.91 1102.51,1040.61 1103.51,1044.99 1104.52,1049.08 1105.53,1052.99 1106.53,1056.83 1107.54,1060.69 1108.54,1064.65 1109.55,1068.71 1110.55,1072.87 1111.56,1077.05 1112.57,1081.18 1113.57,1085.18 1114.58,1088.99 1115.58,1092.58 1116.59,1095.98 1117.6,1099.23 1118.6,1102.43 1119.61,1105.66 1120.61,1108.98 1121.62,1112.41 1122.62,1115.89 1123.63,1119.37 1124.64,1122.74 1125.64,1125.95 1126.65,1128.96 1127.65,1131.83 1128.66,1134.62 1129.67,1137.46 1130.67,1140.42 1131.68,1143.57 1132.68,1146.86 1133.69,1150.21 1134.69,1153.5 1135.7,1156.6 1136.71,1159.44 1137.71,1162.01 1138.72,1164.39 1139.72,1166.71 1140.73,1169.1 1141.73,1171.66 1142.74,1174.42 1143.75,1177.31 1144.75,1180.22 1145.76,1183.02 1146.76,1185.63 1147.77,1188.01 1148.78,1190.24 1149.78,1192.41 1150.79,1194.61 1151.79,1196.89 1152.8,1199.26 1153.8,1201.64 1154.81,1203.99 1155.82,1206.25 1156.82,1208.42 1157.83,1210.54 1158.83,1212.66 1159.84,1214.8 1160.85,1216.99 1161.85,1219.21 1162.86,1221.43 1163.86,1223.66 1164.87,1225.89 1165.87,1228.14 1166.88,1230.4 1167.89,1232.66 1168.89,1234.87 1169.9,1237 1170.9,1239.02 1171.91,1240.94 1172.91,1242.78 1173.92,1244.62 1174.93,1246.48 1175.93,1248.39 1176.94,1250.32 1177.94,1252.22 1178.95,1254.07 1179.96,1255.86 1180.96,1257.61 1181.97,1259.37 1182.97,1261.17 1183.98,1263.04 1184.98,1264.94 1185.99,1266.83 1187,1268.67 1188,1270.41 1189.01,1272.07 1190.01,1273.68 1191.02,1275.28 1192.03,1276.9 1193.03,1278.56 1194.04,1280.26 1195.04,1281.97 1196.05,1283.67 1197.05,1285.34 1198.06,1286.97 1199.07,1288.58 1200.07,1290.16 1201.08,1291.71 1202.08,1293.27 1203.09,1294.84 1204.09,1296.49 1205.1,1298.28 1206.11,1300.28 1207.11,1302.56 1208.12,1305.14 1209.12,1307.99 1210.13,1311.07 1211.14,1314.27 1212.14,1317.47 1213.15,1320.58 1214.15,1323.51 1215.16,1326.23 1216.16,1328.73 1217.17,1331.03 1218.18,1333.18 1219.18,1335.21 1220.19,1337.15 1221.19,1339.02 1222.2,1340.83 1223.21,1342.6 1224.21,1344.31 1225.22,1345.97 1226.22,1347.58 1227.23,1349.13 1228.23,1350.64 1229.24,1352.09 1230.25,1353.5 1231.25,1354.87 1232.26,1356.2 1233.26,1357.47 1234.27,1358.69 1235.27,1359.85 1236.28,1360.96 1237.29,1362.03 1238.29,1363.08 1239.3,1364.12 1240.3,1365.14 1241.31,1366.14 1242.32,1367.1 1243.32,1368.04 1244.33,1368.94 1245.33,1369.81 1246.34,1370.65 1247.34,1371.47 1248.35,1372.27 1249.36,1373.05 1250.36,1373.8 1251.37,1374.52 1252.37,1375.22 1253.38,1375.89 1254.39,1376.54 1255.39,1377.18 1256.4,1377.81 1257.4,1378.43 1258.41,1379.01 1259.41,1379.57 1260.42,1380.1 1261.43,1380.59 1262.43,1381.05 1263.44,1381.49 1264.44,1381.91 1265.45,1382.32 1266.45,1382.72 1267.46,1383.11 1268.47,1383.47 1269.47,1383.81 1270.48,1384.12 1271.48,1384.41 1272.49,1384.67 1273.5,1384.92 1274.5,1385.15 1275.51,1385.36 1276.51,1385.54 1277.52,1385.71 1278.52,1385.85 1279.53,1385.97 1280.54,1386.08 1281.54,1386.17 1282.55,1386.25 1283.55,1386.32 1284.56,1386.37 1285.57,1386.39 1286.57,1386.4 1287.58,1386.37 1288.58,1386.33 1289.59,1386.27 1290.59,1386.19 1291.6,1386.1 1292.61,1385.98 1293.61,1385.85 1294.62,1385.69 1295.62,1385.52 1296.63,1385.32 1297.63,1385.1 1298.64,1384.86 1299.65,1384.61 1300.65,1384.34 1301.66,1384.06 1302.66,1383.75 1303.67,1383.41 1304.68,1383.06 1305.68,1382.68 1306.69,1382.28 1307.69,1381.87 1308.7,1381.45 1309.7,1381.01 1310.71,1380.53 1311.72,1380.03 1312.72,1379.49 1313.73,1378.92 1314.73,1378.34 1315.74,1377.74 1316.75,1377.14 1317.75,1376.53 1318.76,1375.9 1319.76,1375.25 1320.77,1374.58 1321.77,1373.86 1322.78,1373.11 1323.79,1372.34 1324.79,1371.54 1325.8,1370.72 1326.8,1369.88 1327.81,1369.03 1328.81,1368.14 1329.82,1367.22 1330.83,1366.26 1331.83,1365.27 1332.84,1364.25 1333.84,1363.21 1334.85,1362.14 1335.86,1361.05 1336.86,1359.91 1337.87,1358.72 1338.87,1357.48 1339.88,1356.19 1340.88,1354.87 1341.89,1353.51 1342.9,1352.13 1343.9,1350.72 1344.91,1349.27 1345.91,1347.77 1346.92,1346.21 1347.93,1344.57 1348.93,1342.86 1349.94,1341.09 1350.94,1339.26 1351.95,1337.39 1352.95,1335.45 1353.96,1333.45 1354.97,1331.35 1355.97,1329.1 1356.98,1326.66 1357.98,1323.99 1358.99,1321.07 1359.99,1317.96 1361,1314.74 1362.01,1311.5 1363.01,1308.39 1364.02,1305.5 1365.02,1302.88 1366.03,1300.55 1367.04,1298.48 1368.04,1296.6 1369.05,1294.86 1370.05,1293.2 1371.06,1291.6 1372.06,1290.04 1373.07,1288.51 1374.08,1286.99 1375.08,1285.46 1376.09,1283.89 1377.09,1282.27 1378.1,1280.61 1379.11,1278.91 1380.11,1277.21 1381.12,1275.52 1382.12,1273.83 1383.13,1272.13 1384.13,1270.4 1385.14,1268.62 1386.15,1266.79 1387.15,1264.95 1388.16,1263.14 1389.16,1261.37 1390.17,1259.66 1391.17,1257.96 1392.18,1256.23 1393.19,1254.42 1394.19,1252.51 1395.2,1250.51 1396.2,1248.46 1397.21,1246.43 1398.22,1244.43 1399.22,1242.49 1400.23,1240.56 1401.23,1238.62 1402.24,1236.64 1403.24,1234.6 1404.25,1232.52 1405.26,1230.41 1406.26,1228.28 1407.27,1226.14 1408.27,1223.97 1409.28,1221.76 1410.29,1219.53 1411.29,1217.29 1412.3,1215.09 1413.3,1212.94 1414.31,1210.82 1415.31,1208.7 1416.32,1206.51 1417.33,1204.2 1418.33,1201.76 1419.34,1199.25 1420.34,1196.75 1421.35,1194.32 1422.35,1192.01 1423.36,1189.77 1424.37,1187.51 1425.37,1185.13 1426.38,1182.55 1427.38,1179.75 1428.39,1176.81 1429.4,1173.84 1430.4,1170.98 1431.41,1168.29 1432.41,1165.79 1433.42,1163.4 1434.42,1161.02 1435.43,1158.52 1436.44,1155.83 1437.44,1152.93 1438.45,1149.86 1439.45,1146.72 1440.46,1143.6 1441.47,1140.56 1442.47,1137.64 1443.48,1134.78 1444.48,1131.93 1445.49,1128.99 1446.49,1125.91 1447.5,1122.67 1448.51,1119.29 1449.51,1115.83 1450.52,1112.34 1451.52,1108.89 1452.53,1105.51 1453.53,1102.17 1454.54,1098.84 1455.55,1095.46 1456.55,1091.97 1457.56,1088.33 1458.56,1084.53 1459.57,1080.57 1460.58,1076.49 1461.58,1072.37 1462.59,1068.25 1463.59,1064.19 1464.6,1060.22 1465.6,1056.34 1466.61,1052.49 1467.62,1048.58 1468.62,1044.51 1469.63,1040.17 1470.63,1035.54 1471.64,1030.65 1472.65,1025.6 1473.65,1020.54 1474.66,1015.56 1475.66,1010.71 1476.67,1005.95 1477.67,1001.19 1478.68,996.325 1479.69,991.267 1480.69,985.973 1481.7,980.435 1482.7,974.668 1483.71,968.7 1484.71,962.571 1485.72,956.339 1486.73,950.065 1487.73,943.793 1488.74,937.504 1489.74,931.096 1490.75,924.405 1491.76,917.251 1492.76,909.522 1493.77,901.21 1494.77,892.415 1495.78,883.268 1496.78,873.855 1497.79,864.15 1498.8,854.024 1499.8,843.315 1500.81,831.926 1501.81,819.898 1502.82,807.432 1503.83,794.841 1504.83,782.478 1505.84,770.654 1506.84,759.58 1507.85,749.337 1508.85,739.829 1509.86,730.747 1510.87,721.538 1511.87,711.418 1512.88,699.471 1513.88,684.822 1514.89,666.86 1515.89,645.423 1516.9,620.877 1517.91,594.032 1518.91,565.888 1519.92,537.315 1520.92,508.736 1521.93,479.984 1522.94,450.383 1523.94,419.069 1524.95,385.451 1525.95,349.642 1526.96,312.676 1527.96,276.402 1528.97,243.064 1529.98,214.7 1530.98,192.612 1531.99,177.074 1532.99,167.396 1534,162.283 1535.01,160.298 1536.01,160.256 1537.02,161.388 1538.02,163.286 1539.03,165.721 1540.03,168.464 1541.04,171.214 1542.05,173.646 1543.05,175.515 1544.06,176.752 1545.06,177.468 1546.07,177.904 1547.07,178.323 1548.08,178.924 1549.09,179.793 1550.09,180.885 1551.1,182.058 1552.1,183.109 1553.11,183.84 1554.12,184.125 1555.12,183.97 1556.13,183.528 1557.13,183.054 1558.14,182.811 1559.14,182.954 1560.15,183.458 1561.16,184.122 1562.16,184.658 1563.17,184.82 1564.17,184.512 1565.18,183.822 1566.19,182.965 1567.19,182.175 1568.2,181.599 1569.2,181.245 1570.21,181.001 1571.21,180.711 1572.22,180.255 1573.23,179.611 1574.23,178.855 1575.24,178.116 1576.24,177.507 1577.25,177.075 1578.25,176.772 1579.26,176.482 1580.27,176.07 1581.27,175.437 1582.28,174.558 1583.28,173.48 1584.29,172.289 1585.3,171.083 1586.3,169.965 1587.31,169.092 1588.31,168.749 1589.32,169.423 1590.32,171.8 1591.33,176.67 1592.34,184.74 1593.34,196.405 1594.35,211.577 1595.35,229.626 1596.36,249.487 1597.37,269.883 1598.37,289.623 1599.38,307.842 1600.38,324.137 1601.39,338.544 1602.39,351.393 1603.4,363.098 1604.41,373.987 1605.41,384.218 1606.42,393.813 1607.42,402.754 1608.43,411.078 1609.43,418.899 1610.44,426.359 1611.45,433.541 1612.45,440.43 1613.46,446.945 1614.46,453.037 1615.47,458.78 1616.48,464.383 1617.48,470.095 1618.49,476.071 1619.49,482.262 1620.5,488.439 1621.5,494.314 1622.51,499.7 1623.52,504.605 1624.52,509.204 1625.53,513.72 1626.53,518.291 1627.54,522.918 1628.55,527.51 1629.55,531.974 1630.56,536.279 1631.56,540.448 1632.57,544.509 1633.57,548.444 1634.58,552.212 1635.59,555.815 1636.59,559.344 1637.6,562.963 1638.6,566.811 1639.61,570.894 1640.61,575.05 1641.62,579.028 1642.63,582.645 1643.63,585.914 1644.64,589.046 1645.64,592.335 1646.65,595.972 1647.66,599.932 1648.66,603.989 1649.67,607.852 1650.67,611.336 1651.68,614.446 1652.68,617.347 1653.69,620.247 1654.7,623.285 1655.7,626.499 1656.71,629.864 1657.71,633.363 1658.72,637.008 1659.73,640.796 1660.73,644.651 1661.74,648.404 1662.74,651.868 1663.75,654.971 1664.75,657.845 1665.76,660.81 1666.77,664.218 1667.77,668.252 1668.78,672.796 1669.78,677.489 1670.79,681.927 1671.79,685.925 1672.8,689.653 1673.81,693.565 1674.81,698.143 1675.82,703.601 1676.82,709.727 1677.83,715.954 1678.84,721.627 1679.84,726.291 1680.85,729.85 1681.85,732.512 1682.86,734.576 1683.86,736.232 1684.87,737.496 1685.88,738.304 1686.88,738.693 1687.89,738.888 1688.89,739.233 1689.9,739.985 1690.91,741.119 1691.91,742.31 1692.92,743.108 1693.92,743.246 1694.93,742.844 1695.93,742.402 1696.94,742.519 1697.95,743.541 1698.95,745.319 1699.96,747.263 1700.96,748.661 1701.97,749.084 1702.97,748.629 1703.98,747.855 1704.99,747.453 1705.99,747.843 1707,748.953 1708,750.29 1709.01,751.26 1710.02,751.522 1711.02,751.171 1712.03,750.65 1713.03,750.453 1714.04,750.838 1715.04,751.699 1716.05,752.683 1717.06,753.435 1718.06,753.816 1719.07,753.945 1720.07,754.071 1721.08,754.364 1722.09,754.793 1723.09,755.156 1724.1,755.253 1725.1,755.058 1726.11,754.773 1727.11,754.724 1728.12,755.155 1729.13,756.063 1730.13,757.178 1731.14,758.11 1732.14,758.566 1733.15,758.517 1734.15,758.207 1735.16,757.999 1736.17,758.165 1737.17,758.729 1738.18,759.473 1739.18,760.088 1740.19,760.364 1741.2,760.323 1742.2,760.18 1743.21,760.193 1744.21,760.48 1745.22,760.945 1746.22,761.349 1747.23,761.489 1748.24,761.347 1749.24,761.11 1750.25,761.036 1751.25,761.269 1752.26,761.729 1753.27,762.178 1754.27,762.396 1755.28,762.368 1756.28,762.309 1757.29,762.519 1758.29,763.154 1759.3,764.075 1760.31,764.911 1761.31,765.297 1762.32,765.126 1763.32,764.651 1764.33,764.338 1765.33,764.573 1766.34,765.407 1767.35,766.513 1768.35,767.384 1769.36,767.651 1770.36,767.294 1771.37,766.637 1772.38,766.134 1773.38,766.082 1774.39,766.475 1775.39,767.051 1776.4,767.492 1777.4,767.627 1778.41,767.491 1779.42,767.244 1780.42,767.013 1781.43,766.816 1782.43,766.602 1783.44,766.371 1784.45,766.249 1785.45,766.434 1786.46,767.027 1787.46,767.885 1788.47,768.634 1789.47,768.871 1790.48,768.44 1791.49,767.586 1792.49,766.858 1793.5,766.782 1794.5,767.517 1795.51,768.72 1796.51,769.729 1797.52,769.963 1798.53,769.289 1799.53,768.109 1800.54,767.121 1801.54,766.896 1802.55,767.548 1803.56,768.688 1804.56,769.683 1805.57,770.035 1806.57,769.658 1807.58,768.885 1808.58,768.242 1809.59,768.137 1810.6,768.649 1811.6,769.528 1812.61,770.369 1813.61,770.846 1814.62,770.875 1815.63,770.617 1816.63,770.358 1817.64,770.323 1818.64,770.555 1819.65,770.911 1820.65,771.169 1821.66,771.177 1822.67,770.953 1823.67,770.664 1824.68,770.51 1825.68,770.588 1826.69,770.837 1827.69,771.097 1828.7,771.236 1829.71,771.258 1830.71,771.292 1831.72,771.477 1832.72,771.822 1833.73,772.162 1834.74,772.255 1835.74,771.965 1836.75,771.394 1837.75,770.865 1838.76,770.733 1839.76,771.143 1840.77,771.894 1841.78,772.517 1842.78,772.533 1843.79,771.747 1844.79,770.403 1845.8,769.096 1846.81,768.486 1847.81,768.959 1848.82,770.407 1849.82,772.261 1850.83,773.741 1851.83,774.238 1852.84,773.616 1853.85,772.302 1854.85,771.1 1855.86,770.783 1856.86,771.673 1857.87,773.414 1858.87,775.107 1859.88,775.773 1860.89,774.923 1861.89,772.912 1862.9,770.819 1863.9,769.877 1864.91,770.745 1865.92,773.082 1866.92,775.733 1867.93,777.472 1868.93,777.885 1869.94,777.833 1870.94,779.153 1871.95,783.712 1872.96,792.369 1873.96,804.435 1874.97,817.975 1875.97,830.761 1876.98,841.312 1877.99,849.445 1878.99,856.072 1880,862.458 1881,869.411 1882.01,876.899 1883.01,884.22 1884.02,890.556 1885.03,895.511 1886.03,899.33 1887.04,902.706 1888.04,906.363 1889.05,910.677 1890.05,915.552 1891.06,920.554 1892.07,925.189 1893.07,929.14 1894.08,932.368 1895.08,935.071 1896.09,937.575 1897.1,940.214 1898.1,943.237 1899.11,946.726 1900.11,950.559 1901.12,954.431 1902.12,957.966 1903.13,960.892 1904.14,963.184 1905.14,965.1 1906.15,967.072 1907.15,969.5 1908.16,972.551 1909.17,976.068 1910.17,979.64 1911.18,982.778 1912.18,985.149 1913.19,986.739 1914.19,987.892 1915.2,989.172 1916.21,991.108 1917.21,993.935 1918.22,997.443 1919.22,1001.06 1920.23,1004.1 1921.23,1006.14 1922.24,1007.21 1923.25,1007.82 1924.25,1008.71 1925.26,1010.46 1926.26,1013.25 1927.27,1016.67 1928.28,1020 1929.28,1022.49 1930.29,1023.82 1931.29,1024.22 1932.3,1024.44 1933.3,1025.31 1934.31,1027.35 1935.32,1030.44 1936.32,1033.86 1937.33,1036.68 1938.33,1038.25 1939.34,1038.59 1940.35,1038.38 1941.35,1038.64 1942.36,1040.16 1943.36,1043.12 1944.37,1046.92 1945.37,1050.5 1946.38,1052.92 1947.39,1053.82 1948.39,1053.63 1949.4,1053.33 1950.4,1053.96 1951.41,1056.01 1952.41,1059.2 1953.42,1062.58 1954.43,1065.14 1955.43,1066.29 1956.44,1066.25 1957.44,1065.86 1958.45,1066.1 1959.46,1067.56 1960.46,1070.12 1961.47,1073.1 1962.47,1075.66 1963.48,1077.26 1964.48,1077.91 1965.49,1078.11 1966.5,1078.49 1967.5,1079.5 1968.51,1081.21 1969.51,1083.32 1970.52,1085.38 1971.53,1087.08 1972.53,1088.33 1973.54,1089.27 1974.54,1090.13 1975.55,1091.09 1976.55,1092.19 1977.56,1093.41 1978.57,1094.74 1979.57,1096.2 1980.58,1097.79 1981.58,1099.38 1982.59,1100.73 1983.59,1101.62 1984.6,1102.03 1985.61,1102.25 1986.61,1102.79 1987.62,1104.05 1988.62,1106.1 1989.63,1108.53 1990.64,1110.68 1991.64,1112.04 1992.65,1112.51 1993.65,1112.54 1994.66,1112.82 1995.66,1113.93 1996.67,1115.95 1997.68,1118.44 1998.68,1120.68 1999.69,1122.04 2000.69,1122.36 2001.7,1122.05 2002.71,1121.82 2003.71,1122.33 2004.72,1123.8 2005.72,1125.94 2006.73,1128.15 2007.73,1129.84 2008.74,1130.78 2009.75,1131.14 2010.75,1131.35 2011.76,1131.88 2012.76,1132.96 2013.77,1134.54 2014.77,1136.33 2015.78,1137.99 2016.79,1139.25 2017.79,1140.04 2018.8,1140.51 2019.8,1140.93 2020.81,1141.58 2021.82,1142.61 2022.82,1144 2023.83,1145.57 2024.83,1147.01 2025.84,1148.09 2026.84,1148.72 2027.85,1149.06 2028.86,1149.42 2029.86,1150.1 2030.87,1151.21 2031.87,1152.55 2032.88,1153.77 2033.89,1154.61 2034.89,1155.13 2035.9,1155.62 2036.9,1156.46 2037.91,1157.77 2038.91,1159.32 2039.92,1160.67 2040.93,1161.5 2041.93,1161.77 2042.94,1161.82 2043.94,1162.12 2044.95,1163.03 2045.95,1164.54 2046.96,1166.29 2047.97,1167.76 2048.97,1168.61 2049.98,1168.95 2050.98,1169.23 2051.99,1169.93 2053,1171.18 2054,1172.72 2055.01,1174.09 2056.01,1174.95 2057.02,1175.34 2058.02,1175.57 2059.03,1176.03 2060.04,1176.92 2061.04,1178.13 2062.05,1179.41 2063.05,1180.53 2064.06,1181.45 2065.07,1182.25 2066.07,1182.98 2067.08,1183.6 2068.08,1184.04 2069.09,1184.38 2070.09,1184.87 2071.1,1185.78 2072.11,1187.21 2073.11,1188.97 2074.12,1190.57 2075.12,1191.54 2076.13,1191.75 2077.13,1191.56 2078.14,1191.58 2079.15,1192.24 2080.15,1193.5 2081.16,1194.93 2082.16,1196.13 2083.17,1196.93 2084.18,1197.47 2085.18,1197.99 2086.19,1198.63 2087.19,1199.33 2088.2,1199.95 2089.2,1200.47 2090.21,1201.09 2091.22,1202.1 2092.22,1203.5 2093.23,1204.88 2094.23,1205.75 2095.24,1205.94 2096.25,1205.84 2097.25,1206.07 2098.26,1207.04 2099.26,1208.69 2100.27,1210.53 2101.27,1212 2102.28,1212.81 2103.29,1213.05 2104.29,1213.14 2105.3,1213.5 2106.3,1214.25 2107.31,1215.25 2108.31,1216.3 2109.32,1217.34 2110.33,1218.32 2111.33,1219.14 2112.34,1219.75 2113.34,1220.27 2114.35,1220.96 2115.36,1221.88 2116.36,1222.74 2117.37,1223.23 2118.37,1223.43 2119.38,1223.79 2120.38,1224.68 2121.39,1226.11 2122.4,1227.66 2123.4,1228.7 2124.41,1228.74 2125.41,1227.93 2126.42,1227.27 2127.43,1227.95 2128.43,1230.28 2129.44,1233.18 2130.44,1235.05 2131.45,1235.09 2132.45,1233.86 2133.46,1232.71 2134.47,1232.78 2135.47,1234.33 2136.48,1236.71 2137.48,1238.79 2138.49,1239.79 2139.49,1239.77 2140.5,1239.51 2141.51,1239.77 2142.51,1240.62 2143.52,1241.6 2144.52,1242.31 2145.53,1242.87 2146.54,1243.63 2147.54,1244.6 2148.55,1245.5 2149.55,1246.3 2150.56,1247.07 2151.56,1247.58 2152.57,1247.57 2153.58,1247.5 2154.58,1248.3 2155.59,1250.13 2156.59,1252.06 2157.6,1253.06 2158.61,1252.96 2159.61,1252.35 2160.62,1252.22 2161.62,1253.37 2162.63,1255.48 2163.63,1257.18 2164.64,1257.59 2165.65,1257.36 2166.65,1257.66 2167.66,1258.76 2168.66,1260.13 2169.67,1261.23 2170.67,1261.73 2171.68,1261.61 2172.69,1261.4 2173.69,1261.82 2174.7,1263.06 2175.7,1264.65 2176.71,1266 2177.72,1266.75 2178.72,1266.79 2179.73,1266.38 2180.73,1266.28 2181.74,1267.34 2182.74,1269.53 2183.75,1271.61 2184.76,1272.48 2185.76,1272.46 2186.77,1272.35 2187.77,1272.16 2188.78,1271.95 2189.79,1272.63 2190.79,1274.55 2191.8,1276.74 2192.8,1278.13 2193.81,1278.39 2194.81,1277.66 2195.82,1276.83 2196.83,1277.32 2197.83,1279.41 2198.84,1281.86 2199.84,1283.4 2200.85,1283.71 2201.85,1283.37 2202.86,1283.22 2203.87,1283.6 2204.87,1284.47 2205.88,1285.65 2206.88,1286.79 2207.89,1287.67 2208.9,1288.36 2209.9,1288.83 2210.91,1289.09 2211.91,1289.53 2212.92,1290.77 2213.92,1292.85 2214.93,1294.34 2215.94,1293.97 2216.94,1293.35 2217.95,1294.47 2218.95,1296.2 2219.96,1296.64 2220.97,1296.34 2221.97,1297.15 2222.98,1299.43 2223.98,1301.2 2224.99,1301 2225.99,1299.99 2227,1299.99 2228.01,1301.86 2229.01,1304.33 2230.02,1305.07 2231.02,1304.81 2232.03,1305.34 2233.03,1306.24 2234.04,1306.9 2235.05,1307.4 2236.05,1308.79 2237.06,1311 2238.06,1311.37 2239.07,1310.39 2240.08,1311.16 2241.08,1313.19 2242.09,1314.56 2243.09,1314.61 2244.1,1314.75 2245.1,1316.9 2246.11,1318.22 2247.12,1317.59 2248.12,1318.59 2249.13,1320.82 2250.13,1322.59 2251.14,1322.83 2252.15,1322.14 2253.15,1322.98 2254.16,1324.77 2255.16,1326.58 2256.17,1327.52 2257.17,1326.98 2258.18,1326.22 2259.19,1329.19 2260.19,1332.13 2261.2,1331.17 2262.2,1330.85 2263.21,1332.46 2264.21,1335.47 2265.22,1336.42 2266.23,1336.4 2267.23,1336.86 2268.24,1338.83 2269.24,1340.95 2270.25,1341.19 2271.26,1342.27 2272.26,1342.41 2273.27,1344.56 2274.27,1347.1 2275.28,1345.99 2276.28,1347.86 2277.29,1351.23 2278.3,1351.38 2279.3,1352.39 2280.31,1355.24 2281.31,1355.44 2282.32,1357.75 2283.33,1359.16 2284.33,1362.36 2285.34,1362.19 2286.34,1365.89 2287.35,1367.53 2288.35,1370.86 2289.36,1374.7 2290.37,1378.78 2291.37,1386.3 "/>
</svg>
