<?xml version="1.0" encoding="utf-8"?>
<svg xmlns="http://www.w3.org/2000/svg" xmlns:xlink="http://www.w3.org/1999/xlink" width="600" height="400" viewBox="0 0 2400 1600">
<defs>
  <clipPath id="clip410">
    <rect x="0" y="0" width="2400" height="1600"/>
  </clipPath>
</defs>
<path clip-path="url(#clip410)" d="M0 1600 L2400 1600 L2400 0 L0 0  Z" fill="#ffffff" fill-rule="evenodd" fill-opacity="1"/>
<defs>
  <clipPath id="clip411">
    <rect x="480" y="0" width="1681" height="1600"/>
  </clipPath>
</defs>
<path clip-path="url(#clip410)" d="M219.38 1423.18 L2352.76 1423.18 L2352.76 123.472 L219.38 123.472  Z" fill="#ffffff" fill-rule="evenodd" fill-opacity="1"/>
<defs>
  <clipPath id="clip412">
    <rect x="219" y="123" width="2134" height="1301"/>
  </clipPath>
</defs>
<polyline clip-path="url(#clip412)" style="stroke:#000000; stroke-linecap:round; stroke-linejoin:round; stroke-width:2; stroke-opacity:0.1; fill:none" points="279.759,1423.18 279.759,123.472 "/>
<polyline clip-path="url(#clip412)" style="stroke:#000000; stroke-linecap:round; stroke-linejoin:round; stroke-width:2; stroke-opacity:0.1; fill:none" points="782.913,1423.18 782.913,123.472 "/>
<polyline clip-path="url(#clip412)" style="stroke:#000000; stroke-linecap:round; stroke-linejoin:round; stroke-width:2; stroke-opacity:0.1; fill:none" points="1286.07,1423.18 1286.07,123.472 "/>
<polyline clip-path="url(#clip412)" style="stroke:#000000; stroke-linecap:round; stroke-linejoin:round; stroke-width:2; stroke-opacity:0.1; fill:none" points="1789.22,1423.18 1789.22,123.472 "/>
<polyline clip-path="url(#clip412)" style="stroke:#000000; stroke-linecap:round; stroke-linejoin:round; stroke-width:2; stroke-opacity:0.1; fill:none" points="2292.38,1423.18 2292.38,123.472 "/>
<polyline clip-path="url(#clip410)" style="stroke:#000000; stroke-linecap:round; stroke-linejoin:round; stroke-width:4; stroke-opacity:1; fill:none" points="219.38,1423.18 2352.76,1423.18 "/>
<polyline clip-path="url(#clip410)" style="stroke:#000000; stroke-linecap:round; stroke-linejoin:round; stroke-width:4; stroke-opacity:1; fill:none" points="279.759,1423.18 279.759,1404.28 "/>
<polyline clip-path="url(#clip410)" style="stroke:#000000; stroke-linecap:round; stroke-linejoin:round; stroke-width:4; stroke-opacity:1; fill:none" points="782.913,1423.18 782.913,1404.28 "/>
<polyline clip-path="url(#clip410)" style="stroke:#000000; stroke-linecap:round; stroke-linejoin:round; stroke-width:4; stroke-opacity:1; fill:none" points="1286.07,1423.18 1286.07,1404.28 "/>
<polyline clip-path="url(#clip410)" style="stroke:#000000; stroke-linecap:round; stroke-linejoin:round; stroke-width:4; stroke-opacity:1; fill:none" points="1789.22,1423.18 1789.22,1404.28 "/>
<polyline clip-path="url(#clip410)" style="stroke:#000000; stroke-linecap:round; stroke-linejoin:round; stroke-width:4; stroke-opacity:1; fill:none" points="2292.38,1423.18 2292.38,1404.28 "/>
<path clip-path="url(#clip410)" d="M226.287 1468.75 L255.963 1468.75 L255.963 1472.69 L226.287 1472.69 L226.287 1468.75 Z" fill="#000000" fill-rule="nonzero" fill-opacity="1" /><path clip-path="url(#clip410)" d="M266.865 1481.64 L274.504 1481.64 L274.504 1455.28 L266.194 1456.95 L266.194 1452.69 L274.458 1451.02 L279.134 1451.02 L279.134 1481.64 L286.773 1481.64 L286.773 1485.58 L266.865 1485.58 L266.865 1481.64 Z" fill="#000000" fill-rule="nonzero" fill-opacity="1" /><path clip-path="url(#clip410)" d="M296.217 1479.7 L301.101 1479.7 L301.101 1485.58 L296.217 1485.58 L296.217 1479.7 Z" fill="#000000" fill-rule="nonzero" fill-opacity="1" /><path clip-path="url(#clip410)" d="M321.286 1454.1 Q317.675 1454.1 315.846 1457.66 Q314.041 1461.2 314.041 1468.33 Q314.041 1475.44 315.846 1479.01 Q317.675 1482.55 321.286 1482.55 Q324.921 1482.55 326.726 1479.01 Q328.555 1475.44 328.555 1468.33 Q328.555 1461.2 326.726 1457.66 Q324.921 1454.1 321.286 1454.1 M321.286 1450.39 Q327.096 1450.39 330.152 1455 Q333.231 1459.58 333.231 1468.33 Q333.231 1477.06 330.152 1481.67 Q327.096 1486.25 321.286 1486.25 Q315.476 1486.25 312.397 1481.67 Q309.342 1477.06 309.342 1468.33 Q309.342 1459.58 312.397 1455 Q315.476 1450.39 321.286 1450.39 Z" fill="#000000" fill-rule="nonzero" fill-opacity="1" /><path clip-path="url(#clip410)" d="M729.939 1468.75 L759.615 1468.75 L759.615 1472.69 L729.939 1472.69 L729.939 1468.75 Z" fill="#000000" fill-rule="nonzero" fill-opacity="1" /><path clip-path="url(#clip410)" d="M779.707 1454.1 Q776.096 1454.1 774.268 1457.66 Q772.462 1461.2 772.462 1468.33 Q772.462 1475.44 774.268 1479.01 Q776.096 1482.55 779.707 1482.55 Q783.342 1482.55 785.147 1479.01 Q786.976 1475.44 786.976 1468.33 Q786.976 1461.2 785.147 1457.66 Q783.342 1454.1 779.707 1454.1 M779.707 1450.39 Q785.518 1450.39 788.573 1455 Q791.652 1459.58 791.652 1468.33 Q791.652 1477.06 788.573 1481.67 Q785.518 1486.25 779.707 1486.25 Q773.897 1486.25 770.819 1481.67 Q767.763 1477.06 767.763 1468.33 Q767.763 1459.58 770.819 1455 Q773.897 1450.39 779.707 1450.39 Z" fill="#000000" fill-rule="nonzero" fill-opacity="1" /><path clip-path="url(#clip410)" d="M799.869 1479.7 L804.754 1479.7 L804.754 1485.58 L799.869 1485.58 L799.869 1479.7 Z" fill="#000000" fill-rule="nonzero" fill-opacity="1" /><path clip-path="url(#clip410)" d="M814.985 1451.02 L833.341 1451.02 L833.341 1454.96 L819.267 1454.96 L819.267 1463.43 Q820.286 1463.08 821.304 1462.92 Q822.323 1462.73 823.341 1462.73 Q829.128 1462.73 832.508 1465.9 Q835.888 1469.08 835.888 1474.49 Q835.888 1480.07 832.415 1483.17 Q828.943 1486.25 822.624 1486.25 Q820.448 1486.25 818.179 1485.88 Q815.934 1485.51 813.527 1484.77 L813.527 1480.07 Q815.61 1481.2 817.832 1481.76 Q820.054 1482.32 822.531 1482.32 Q826.536 1482.32 828.874 1480.21 Q831.212 1478.1 831.212 1474.49 Q831.212 1470.88 828.874 1468.77 Q826.536 1466.67 822.531 1466.67 Q820.656 1466.67 818.781 1467.08 Q816.929 1467.5 814.985 1468.38 L814.985 1451.02 Z" fill="#000000" fill-rule="nonzero" fill-opacity="1" /><path clip-path="url(#clip410)" d="M1263.45 1454.1 Q1259.84 1454.1 1258.01 1457.66 Q1256.21 1461.2 1256.21 1468.33 Q1256.21 1475.44 1258.01 1479.01 Q1259.84 1482.55 1263.45 1482.55 Q1267.09 1482.55 1268.89 1479.01 Q1270.72 1475.44 1270.72 1468.33 Q1270.72 1461.2 1268.89 1457.66 Q1267.09 1454.1 1263.45 1454.1 M1263.45 1450.39 Q1269.26 1450.39 1272.32 1455 Q1275.4 1459.58 1275.4 1468.33 Q1275.4 1477.06 1272.32 1481.67 Q1269.26 1486.25 1263.45 1486.25 Q1257.64 1486.25 1254.56 1481.67 Q1251.51 1477.06 1251.51 1468.33 Q1251.51 1459.58 1254.56 1455 Q1257.64 1450.39 1263.45 1450.39 Z" fill="#000000" fill-rule="nonzero" fill-opacity="1" /><path clip-path="url(#clip410)" d="M1283.61 1479.7 L1288.5 1479.7 L1288.5 1485.58 L1283.61 1485.58 L1283.61 1479.7 Z" fill="#000000" fill-rule="nonzero" fill-opacity="1" /><path clip-path="url(#clip410)" d="M1308.68 1454.1 Q1305.07 1454.1 1303.24 1457.66 Q1301.44 1461.2 1301.44 1468.33 Q1301.44 1475.44 1303.24 1479.01 Q1305.07 1482.55 1308.68 1482.55 Q1312.32 1482.55 1314.12 1479.01 Q1315.95 1475.44 1315.95 1468.33 Q1315.95 1461.2 1314.12 1457.66 Q1312.32 1454.1 1308.68 1454.1 M1308.68 1450.39 Q1314.49 1450.39 1317.55 1455 Q1320.63 1459.58 1320.63 1468.33 Q1320.63 1477.06 1317.55 1481.67 Q1314.49 1486.25 1308.68 1486.25 Q1302.87 1486.25 1299.79 1481.67 Q1296.74 1477.06 1296.74 1468.33 Q1296.74 1459.58 1299.79 1455 Q1302.87 1450.39 1308.68 1450.39 Z" fill="#000000" fill-rule="nonzero" fill-opacity="1" /><path clip-path="url(#clip410)" d="M1767.1 1454.1 Q1763.49 1454.1 1761.66 1457.66 Q1759.86 1461.2 1759.86 1468.33 Q1759.86 1475.44 1761.66 1479.01 Q1763.49 1482.55 1767.1 1482.55 Q1770.74 1482.55 1772.54 1479.01 Q1774.37 1475.44 1774.37 1468.33 Q1774.37 1461.2 1772.54 1457.66 Q1770.74 1454.1 1767.1 1454.1 M1767.1 1450.39 Q1772.91 1450.39 1775.97 1455 Q1779.05 1459.58 1779.05 1468.33 Q1779.05 1477.06 1775.97 1481.67 Q1772.91 1486.25 1767.1 1486.25 Q1761.29 1486.25 1758.22 1481.67 Q1755.16 1477.06 1755.16 1468.33 Q1755.16 1459.58 1758.22 1455 Q1761.29 1450.39 1767.1 1450.39 Z" fill="#000000" fill-rule="nonzero" fill-opacity="1" /><path clip-path="url(#clip410)" d="M1787.27 1479.7 L1792.15 1479.7 L1792.15 1485.58 L1787.27 1485.58 L1787.27 1479.7 Z" fill="#000000" fill-rule="nonzero" fill-opacity="1" /><path clip-path="url(#clip410)" d="M1802.38 1451.02 L1820.74 1451.02 L1820.74 1454.96 L1806.66 1454.96 L1806.66 1463.43 Q1807.68 1463.08 1808.7 1462.92 Q1809.72 1462.73 1810.74 1462.73 Q1816.53 1462.73 1819.91 1465.9 Q1823.29 1469.08 1823.29 1474.49 Q1823.29 1480.07 1819.81 1483.17 Q1816.34 1486.25 1810.02 1486.25 Q1807.85 1486.25 1805.58 1485.88 Q1803.33 1485.51 1800.92 1484.77 L1800.92 1480.07 Q1803.01 1481.2 1805.23 1481.76 Q1807.45 1482.32 1809.93 1482.32 Q1813.93 1482.32 1816.27 1480.21 Q1818.61 1478.1 1818.61 1474.49 Q1818.61 1470.88 1816.27 1468.77 Q1813.93 1466.67 1809.93 1466.67 Q1808.05 1466.67 1806.18 1467.08 Q1804.33 1467.5 1802.38 1468.38 L1802.38 1451.02 Z" fill="#000000" fill-rule="nonzero" fill-opacity="1" /><path clip-path="url(#clip410)" d="M2259.53 1481.64 L2267.17 1481.64 L2267.17 1455.28 L2258.86 1456.95 L2258.86 1452.69 L2267.12 1451.02 L2271.8 1451.02 L2271.8 1481.64 L2279.44 1481.64 L2279.44 1485.58 L2259.53 1485.58 L2259.53 1481.64 Z" fill="#000000" fill-rule="nonzero" fill-opacity="1" /><path clip-path="url(#clip410)" d="M2288.88 1479.7 L2293.77 1479.7 L2293.77 1485.58 L2288.88 1485.58 L2288.88 1479.7 Z" fill="#000000" fill-rule="nonzero" fill-opacity="1" /><path clip-path="url(#clip410)" d="M2313.95 1454.1 Q2310.34 1454.1 2308.51 1457.66 Q2306.71 1461.2 2306.71 1468.33 Q2306.71 1475.44 2308.51 1479.01 Q2310.34 1482.55 2313.95 1482.55 Q2317.59 1482.55 2319.39 1479.01 Q2321.22 1475.44 2321.22 1468.33 Q2321.22 1461.2 2319.39 1457.66 Q2317.59 1454.1 2313.95 1454.1 M2313.95 1450.39 Q2319.76 1450.39 2322.82 1455 Q2325.9 1459.58 2325.9 1468.33 Q2325.9 1477.06 2322.82 1481.67 Q2319.76 1486.25 2313.95 1486.25 Q2308.14 1486.25 2305.06 1481.67 Q2302.01 1477.06 2302.01 1468.33 Q2302.01 1459.58 2305.06 1455 Q2308.14 1450.39 2313.95 1450.39 Z" fill="#000000" fill-rule="nonzero" fill-opacity="1" /><path clip-path="url(#clip410)" d="M1208.31 1548.76 L1208.31 1551.62 L1181.38 1551.62 Q1181.77 1557.67 1185.01 1560.85 Q1188.29 1564 1194.12 1564 Q1197.49 1564 1200.64 1563.17 Q1203.82 1562.35 1206.94 1560.69 L1206.94 1566.23 Q1203.79 1567.57 1200.48 1568.27 Q1197.17 1568.97 1193.77 1568.97 Q1185.24 1568.97 1180.24 1564 Q1175.27 1559.04 1175.27 1550.57 Q1175.27 1541.82 1179.98 1536.69 Q1184.73 1531.54 1192.75 1531.54 Q1199.94 1531.54 1204.11 1536.18 Q1208.31 1540.8 1208.31 1548.76 M1202.45 1547.04 Q1202.39 1542.23 1199.75 1539.37 Q1197.14 1536.5 1192.81 1536.5 Q1187.91 1536.5 1184.95 1539.27 Q1182.02 1542.04 1181.57 1547.07 L1202.45 1547.04 Z" fill="#000000" fill-rule="nonzero" fill-opacity="1" /><path clip-path="url(#clip410)" d="M1247.56 1546.53 L1247.56 1568.04 L1241.7 1568.04 L1241.7 1546.72 Q1241.7 1541.66 1239.73 1539.14 Q1237.75 1536.63 1233.81 1536.63 Q1229.06 1536.63 1226.33 1539.65 Q1223.59 1542.68 1223.59 1547.9 L1223.59 1568.04 L1217.7 1568.04 L1217.7 1532.4 L1223.59 1532.4 L1223.59 1537.93 Q1225.69 1534.72 1228.52 1533.13 Q1231.39 1531.54 1235.11 1531.54 Q1241.25 1531.54 1244.4 1535.36 Q1247.56 1539.14 1247.56 1546.53 Z" fill="#000000" fill-rule="nonzero" fill-opacity="1" /><path clip-path="url(#clip410)" d="M1289.73 1548.76 L1289.73 1551.62 L1262.8 1551.62 Q1263.18 1557.67 1266.43 1560.85 Q1269.71 1564 1275.53 1564 Q1278.91 1564 1282.06 1563.17 Q1285.24 1562.35 1288.36 1560.69 L1288.36 1566.23 Q1285.21 1567.57 1281.9 1568.27 Q1278.59 1568.97 1275.18 1568.97 Q1266.65 1568.97 1261.66 1564 Q1256.69 1559.04 1256.69 1550.57 Q1256.69 1541.82 1261.4 1536.69 Q1266.14 1531.54 1274.16 1531.54 Q1281.36 1531.54 1285.53 1536.18 Q1289.73 1540.8 1289.73 1548.76 M1283.87 1547.04 Q1283.81 1542.23 1281.17 1539.37 Q1278.56 1536.5 1274.23 1536.5 Q1269.33 1536.5 1266.37 1539.27 Q1263.44 1542.04 1262.99 1547.07 L1283.87 1547.04 Z" fill="#000000" fill-rule="nonzero" fill-opacity="1" /><path clip-path="url(#clip410)" d="M1320 1537.87 Q1319.01 1537.3 1317.83 1537.04 Q1316.69 1536.76 1315.29 1536.76 Q1310.32 1536.76 1307.65 1540 Q1305.01 1543.22 1305.01 1549.27 L1305.01 1568.04 L1299.12 1568.04 L1299.12 1532.4 L1305.01 1532.4 L1305.01 1537.93 Q1306.85 1534.69 1309.81 1533.13 Q1312.77 1531.54 1317.01 1531.54 Q1317.61 1531.54 1318.34 1531.63 Q1319.07 1531.7 1319.97 1531.85 L1320 1537.87 Z" fill="#000000" fill-rule="nonzero" fill-opacity="1" /><path clip-path="url(#clip410)" d="M1348.45 1549.81 Q1348.45 1543.44 1345.81 1539.94 Q1343.2 1536.44 1338.46 1536.44 Q1333.75 1536.44 1331.11 1539.94 Q1328.5 1543.44 1328.5 1549.81 Q1328.5 1556.14 1331.11 1559.64 Q1333.75 1563.14 1338.46 1563.14 Q1343.2 1563.14 1345.81 1559.64 Q1348.45 1556.14 1348.45 1549.81 M1354.31 1563.62 Q1354.31 1572.72 1350.27 1577.15 Q1346.22 1581.6 1337.88 1581.6 Q1334.8 1581.6 1332.06 1581.13 Q1329.32 1580.68 1326.74 1579.72 L1326.74 1574.03 Q1329.32 1575.43 1331.84 1576.1 Q1334.35 1576.76 1336.96 1576.76 Q1342.72 1576.76 1345.59 1573.74 Q1348.45 1570.75 1348.45 1564.67 L1348.45 1561.77 Q1346.64 1564.92 1343.8 1566.48 Q1340.97 1568.04 1337.03 1568.04 Q1330.47 1568.04 1326.46 1563.05 Q1322.45 1558.05 1322.45 1549.81 Q1322.45 1541.53 1326.46 1536.53 Q1330.47 1531.54 1337.03 1531.54 Q1340.97 1531.54 1343.8 1533.1 Q1346.64 1534.66 1348.45 1537.81 L1348.45 1532.4 L1354.31 1532.4 L1354.31 1563.62 Z" fill="#000000" fill-rule="nonzero" fill-opacity="1" /><path clip-path="url(#clip410)" d="M1381.2 1571.35 Q1378.72 1577.72 1376.37 1579.66 Q1374.01 1581.6 1370.06 1581.6 L1365.38 1581.6 L1365.38 1576.7 L1368.82 1576.7 Q1371.24 1576.7 1372.58 1575.56 Q1373.91 1574.41 1375.54 1570.14 L1376.59 1567.47 L1362.17 1532.4 L1368.38 1532.4 L1379.52 1560.28 L1390.66 1532.4 L1396.86 1532.4 L1381.2 1571.35 Z" fill="#000000" fill-rule="nonzero" fill-opacity="1" /><polyline clip-path="url(#clip412)" style="stroke:#000000; stroke-linecap:round; stroke-linejoin:round; stroke-width:2; stroke-opacity:0.1; fill:none" points="219.38,1386.52 2352.76,1386.52 "/>
<polyline clip-path="url(#clip412)" style="stroke:#000000; stroke-linecap:round; stroke-linejoin:round; stroke-width:2; stroke-opacity:0.1; fill:none" points="219.38,971.168 2352.76,971.168 "/>
<polyline clip-path="url(#clip412)" style="stroke:#000000; stroke-linecap:round; stroke-linejoin:round; stroke-width:2; stroke-opacity:0.1; fill:none" points="219.38,555.818 2352.76,555.818 "/>
<polyline clip-path="url(#clip412)" style="stroke:#000000; stroke-linecap:round; stroke-linejoin:round; stroke-width:2; stroke-opacity:0.1; fill:none" points="219.38,140.468 2352.76,140.468 "/>
<polyline clip-path="url(#clip410)" style="stroke:#000000; stroke-linecap:round; stroke-linejoin:round; stroke-width:4; stroke-opacity:1; fill:none" points="219.38,1423.18 219.38,123.472 "/>
<polyline clip-path="url(#clip410)" style="stroke:#000000; stroke-linecap:round; stroke-linejoin:round; stroke-width:4; stroke-opacity:1; fill:none" points="219.38,1386.52 238.278,1386.52 "/>
<polyline clip-path="url(#clip410)" style="stroke:#000000; stroke-linecap:round; stroke-linejoin:round; stroke-width:4; stroke-opacity:1; fill:none" points="219.38,971.168 238.278,971.168 "/>
<polyline clip-path="url(#clip410)" style="stroke:#000000; stroke-linecap:round; stroke-linejoin:round; stroke-width:4; stroke-opacity:1; fill:none" points="219.38,555.818 238.278,555.818 "/>
<polyline clip-path="url(#clip410)" style="stroke:#000000; stroke-linecap:round; stroke-linejoin:round; stroke-width:4; stroke-opacity:1; fill:none" points="219.38,140.468 238.278,140.468 "/>
<path clip-path="url(#clip410)" d="M126.205 1372.32 Q122.593 1372.32 120.765 1375.88 Q118.959 1379.42 118.959 1386.55 Q118.959 1393.66 120.765 1397.22 Q122.593 1400.77 126.205 1400.77 Q129.839 1400.77 131.644 1397.22 Q133.473 1393.66 133.473 1386.55 Q133.473 1379.42 131.644 1375.88 Q129.839 1372.32 126.205 1372.32 M126.205 1368.61 Q132.015 1368.61 135.07 1373.22 Q138.149 1377.8 138.149 1386.55 Q138.149 1395.28 135.07 1399.89 Q132.015 1404.47 126.205 1404.47 Q120.394 1404.47 117.316 1399.89 Q114.26 1395.28 114.26 1386.55 Q114.26 1377.8 117.316 1373.22 Q120.394 1368.61 126.205 1368.61 Z" fill="#000000" fill-rule="nonzero" fill-opacity="1" /><path clip-path="url(#clip410)" d="M146.366 1397.92 L151.251 1397.92 L151.251 1403.8 L146.366 1403.8 L146.366 1397.92 Z" fill="#000000" fill-rule="nonzero" fill-opacity="1" /><path clip-path="url(#clip410)" d="M171.436 1372.32 Q167.825 1372.32 165.996 1375.88 Q164.19 1379.42 164.19 1386.55 Q164.19 1393.66 165.996 1397.22 Q167.825 1400.77 171.436 1400.77 Q175.07 1400.77 176.876 1397.22 Q178.704 1393.66 178.704 1386.55 Q178.704 1379.42 176.876 1375.88 Q175.07 1372.32 171.436 1372.32 M171.436 1368.61 Q177.246 1368.61 180.301 1373.22 Q183.38 1377.8 183.38 1386.55 Q183.38 1395.28 180.301 1399.89 Q177.246 1404.47 171.436 1404.47 Q165.626 1404.47 162.547 1399.89 Q159.491 1395.28 159.491 1386.55 Q159.491 1377.8 162.547 1373.22 Q165.626 1368.61 171.436 1368.61 Z" fill="#000000" fill-rule="nonzero" fill-opacity="1" /><path clip-path="url(#clip410)" d="M127.2 956.967 Q123.589 956.967 121.76 960.532 Q119.955 964.074 119.955 971.203 Q119.955 978.31 121.76 981.874 Q123.589 985.416 127.2 985.416 Q130.834 985.416 132.64 981.874 Q134.468 978.31 134.468 971.203 Q134.468 964.074 132.64 960.532 Q130.834 956.967 127.2 956.967 M127.2 953.263 Q133.01 953.263 136.066 957.87 Q139.144 962.453 139.144 971.203 Q139.144 979.93 136.066 984.536 Q133.01 989.12 127.2 989.12 Q121.39 989.12 118.311 984.536 Q115.256 979.93 115.256 971.203 Q115.256 962.453 118.311 957.87 Q121.39 953.263 127.2 953.263 Z" fill="#000000" fill-rule="nonzero" fill-opacity="1" /><path clip-path="url(#clip410)" d="M147.362 982.569 L152.246 982.569 L152.246 988.448 L147.362 988.448 L147.362 982.569 Z" fill="#000000" fill-rule="nonzero" fill-opacity="1" /><path clip-path="url(#clip410)" d="M162.477 953.888 L180.834 953.888 L180.834 957.824 L166.76 957.824 L166.76 966.296 Q167.778 965.949 168.797 965.786 Q169.815 965.601 170.834 965.601 Q176.621 965.601 180.001 968.773 Q183.38 971.944 183.38 977.36 Q183.38 982.939 179.908 986.041 Q176.436 989.12 170.116 989.12 Q167.94 989.12 165.672 988.749 Q163.427 988.379 161.019 987.638 L161.019 982.939 Q163.102 984.073 165.325 984.629 Q167.547 985.185 170.024 985.185 Q174.028 985.185 176.366 983.078 Q178.704 980.972 178.704 977.36 Q178.704 973.749 176.366 971.643 Q174.028 969.536 170.024 969.536 Q168.149 969.536 166.274 969.953 Q164.422 970.37 162.477 971.249 L162.477 953.888 Z" fill="#000000" fill-rule="nonzero" fill-opacity="1" /><path clip-path="url(#clip410)" d="M117.015 569.163 L124.654 569.163 L124.654 542.798 L116.343 544.464 L116.343 540.205 L124.607 538.538 L129.283 538.538 L129.283 569.163 L136.922 569.163 L136.922 573.098 L117.015 573.098 L117.015 569.163 Z" fill="#000000" fill-rule="nonzero" fill-opacity="1" /><path clip-path="url(#clip410)" d="M146.366 567.219 L151.251 567.219 L151.251 573.098 L146.366 573.098 L146.366 567.219 Z" fill="#000000" fill-rule="nonzero" fill-opacity="1" /><path clip-path="url(#clip410)" d="M171.436 541.617 Q167.825 541.617 165.996 545.182 Q164.19 548.724 164.19 555.853 Q164.19 562.96 165.996 566.524 Q167.825 570.066 171.436 570.066 Q175.07 570.066 176.876 566.524 Q178.704 562.96 178.704 555.853 Q178.704 548.724 176.876 545.182 Q175.07 541.617 171.436 541.617 M171.436 537.913 Q177.246 537.913 180.301 542.52 Q183.38 547.103 183.38 555.853 Q183.38 564.58 180.301 569.186 Q177.246 573.77 171.436 573.77 Q165.626 573.77 162.547 569.186 Q159.491 564.58 159.491 555.853 Q159.491 547.103 162.547 542.52 Q165.626 537.913 171.436 537.913 Z" fill="#000000" fill-rule="nonzero" fill-opacity="1" /><path clip-path="url(#clip410)" d="M118.01 153.813 L125.649 153.813 L125.649 127.448 L117.339 129.114 L117.339 124.855 L125.603 123.188 L130.279 123.188 L130.279 153.813 L137.917 153.813 L137.917 157.748 L118.01 157.748 L118.01 153.813 Z" fill="#000000" fill-rule="nonzero" fill-opacity="1" /><path clip-path="url(#clip410)" d="M147.362 151.869 L152.246 151.869 L152.246 157.748 L147.362 157.748 L147.362 151.869 Z" fill="#000000" fill-rule="nonzero" fill-opacity="1" /><path clip-path="url(#clip410)" d="M162.477 123.188 L180.834 123.188 L180.834 127.124 L166.76 127.124 L166.76 135.596 Q167.778 135.249 168.797 135.086 Q169.815 134.901 170.834 134.901 Q176.621 134.901 180.001 138.073 Q183.38 141.244 183.38 146.661 Q183.38 152.239 179.908 155.341 Q176.436 158.42 170.116 158.42 Q167.94 158.42 165.672 158.049 Q163.427 157.679 161.019 156.938 L161.019 152.239 Q163.102 153.373 165.325 153.929 Q167.547 154.485 170.024 154.485 Q174.028 154.485 176.366 152.378 Q178.704 150.272 178.704 146.661 Q178.704 143.049 176.366 140.943 Q174.028 138.836 170.024 138.836 Q168.149 138.836 166.274 139.253 Q164.422 139.67 162.477 140.549 L162.477 123.188 Z" fill="#000000" fill-rule="nonzero" fill-opacity="1" /><path clip-path="url(#clip410)" d="M33.7671 864.053 L14.479 864.053 L14.479 858.197 L64.0042 858.197 L64.0042 864.053 L58.657 864.053 Q61.8398 865.899 63.3994 868.732 Q64.9272 871.533 64.9272 875.48 Q64.9272 881.941 59.771 886.015 Q54.6147 890.057 46.212 890.057 Q37.8093 890.057 32.6531 886.015 Q27.4968 881.941 27.4968 875.48 Q27.4968 871.533 29.0564 868.732 Q30.5842 865.899 33.7671 864.053 M46.212 884.01 Q52.6732 884.01 56.3653 881.368 Q60.0256 878.694 60.0256 874.047 Q60.0256 869.4 56.3653 866.727 Q52.6732 864.053 46.212 864.053 Q39.7508 864.053 36.0905 866.727 Q32.3984 869.4 32.3984 874.047 Q32.3984 878.694 36.0905 881.368 Q39.7508 884.01 46.212 884.01 Z" fill="#000000" fill-rule="nonzero" fill-opacity="1" /><path clip-path="url(#clip410)" d="M44.7161 815.642 L47.5806 815.642 L47.5806 842.569 Q53.6281 842.187 56.8109 838.941 Q59.9619 835.662 59.9619 829.838 Q59.9619 826.464 59.1344 823.313 Q58.3069 820.13 56.6518 817.011 L62.1899 817.011 Q63.5267 820.162 64.227 823.472 Q64.9272 826.782 64.9272 830.188 Q64.9272 838.718 59.9619 843.715 Q54.9967 848.68 46.5303 848.68 Q37.7774 848.68 32.6531 843.969 Q27.4968 839.227 27.4968 831.206 Q27.4968 824.013 32.1438 819.843 Q36.7589 815.642 44.7161 815.642 M42.9973 821.498 Q38.1912 821.562 35.3266 824.204 Q32.4621 826.814 32.4621 831.143 Q32.4621 836.044 35.2312 839.004 Q38.0002 841.932 43.0292 842.378 L42.9973 821.498 Z" fill="#000000" fill-rule="nonzero" fill-opacity="1" /><path clip-path="url(#clip410)" d="M42.4881 776.397 L64.0042 776.397 L64.0042 782.254 L42.679 782.254 Q37.6183 782.254 35.1038 784.227 Q32.5894 786.201 32.5894 790.147 Q32.5894 794.89 35.6131 797.627 Q38.6368 800.364 43.8567 800.364 L64.0042 800.364 L64.0042 806.253 L28.3562 806.253 L28.3562 800.364 L33.8944 800.364 Q30.6797 798.264 29.0883 795.431 Q27.4968 792.566 27.4968 788.842 Q27.4968 782.699 31.3163 779.548 Q35.1038 776.397 42.4881 776.397 Z" fill="#000000" fill-rule="nonzero" fill-opacity="1" /><path clip-path="url(#clip410)" d="M29.4065 741.991 L34.9447 741.991 Q33.6716 744.473 33.035 747.147 Q32.3984 749.821 32.3984 752.685 Q32.3984 757.046 33.7352 759.242 Q35.072 761.406 37.7456 761.406 Q39.7826 761.406 40.9603 759.847 Q42.1061 758.287 43.1565 753.576 L43.6021 751.571 Q44.9389 745.333 47.3897 742.723 Q49.8086 740.081 54.1691 740.081 Q59.1344 740.081 62.0308 744.028 Q64.9272 747.943 64.9272 754.818 Q64.9272 757.682 64.3543 760.801 Q63.8132 763.889 62.6992 767.326 L56.6518 767.326 Q58.3387 764.08 59.198 760.929 Q60.0256 757.778 60.0256 754.69 Q60.0256 750.553 58.6251 748.325 Q57.1929 746.097 54.6147 746.097 Q52.2276 746.097 50.9545 747.72 Q49.6813 749.311 48.5037 754.754 L48.0262 756.791 Q46.8804 762.234 44.5251 764.653 Q42.138 767.072 38.0002 767.072 Q32.9713 767.072 30.2341 763.507 Q27.4968 759.942 27.4968 753.385 Q27.4968 750.139 27.9743 747.274 Q28.4517 744.41 29.4065 741.991 Z" fill="#000000" fill-rule="nonzero" fill-opacity="1" /><path clip-path="url(#clip410)" d="M28.3562 730.755 L28.3562 724.899 L64.0042 724.899 L64.0042 730.755 L28.3562 730.755 M14.479 730.755 L14.479 724.899 L21.895 724.899 L21.895 730.755 L14.479 730.755 Z" fill="#000000" fill-rule="nonzero" fill-opacity="1" /><path clip-path="url(#clip410)" d="M18.2347 706.852 L28.3562 706.852 L28.3562 694.789 L32.9077 694.789 L32.9077 706.852 L52.2594 706.852 Q56.6199 706.852 57.8613 705.674 Q59.1026 704.465 59.1026 700.805 L59.1026 694.789 L64.0042 694.789 L64.0042 700.805 Q64.0042 707.584 61.4897 710.162 Q58.9434 712.74 52.2594 712.74 L32.9077 712.74 L32.9077 717.037 L28.3562 717.037 L28.3562 712.74 L18.2347 712.74 L18.2347 706.852 Z" fill="#000000" fill-rule="nonzero" fill-opacity="1" /><path clip-path="url(#clip410)" d="M67.3143 672.254 Q73.68 674.737 75.6216 677.092 Q77.5631 679.448 77.5631 683.394 L77.5631 688.073 L72.6615 688.073 L72.6615 684.636 Q72.6615 682.217 71.5157 680.88 Q70.3699 679.543 66.1048 677.92 L63.4312 676.87 L28.3562 691.288 L28.3562 685.081 L56.238 673.941 L28.3562 662.801 L28.3562 656.595 L67.3143 672.254 Z" fill="#000000" fill-rule="nonzero" fill-opacity="1" /><path clip-path="url(#clip410)" d="M1001.55 18.8205 L1001.55 65.8515 L1011.44 65.8515 Q1023.95 65.8515 1029.75 60.1802 Q1035.58 54.509 1035.58 42.2752 Q1035.58 30.1225 1029.75 24.4918 Q1023.95 18.8205 1011.44 18.8205 L1001.55 18.8205 M993.37 12.096 L1010.18 12.096 Q1027.76 12.096 1035.99 19.4281 Q1044.21 26.7198 1044.21 42.2752 Q1044.21 57.9117 1035.94 65.2439 Q1027.68 72.576 1010.18 72.576 L993.37 72.576 L993.37 12.096 Z" fill="#000000" fill-rule="nonzero" fill-opacity="1" /><path clip-path="url(#clip410)" d="M1081.8 17.6457 Q1072.89 17.6457 1067.62 24.2892 Q1062.4 30.9327 1062.4 42.3968 Q1062.4 53.8203 1067.62 60.4638 Q1072.89 67.1073 1081.8 67.1073 Q1090.71 67.1073 1095.9 60.4638 Q1101.12 53.8203 1101.12 42.3968 Q1101.12 30.9327 1095.9 24.2892 Q1090.71 17.6457 1081.8 17.6457 M1081.8 11.0023 Q1094.52 11.0023 1102.14 19.5497 Q1109.75 28.0566 1109.75 42.3968 Q1109.75 56.6965 1102.14 65.2439 Q1094.52 73.7508 1081.8 73.7508 Q1069.04 73.7508 1061.38 65.2439 Q1053.77 56.737 1053.77 42.3968 Q1053.77 28.0566 1061.38 19.5497 Q1069.04 11.0023 1081.8 11.0023 Z" fill="#000000" fill-rule="nonzero" fill-opacity="1" /><path clip-path="url(#clip410)" d="M1158.81 14.0809 L1158.81 22.0612 Q1154.15 19.8332 1150.02 18.7395 Q1145.89 17.6457 1142.04 17.6457 Q1135.35 17.6457 1131.71 20.2383 Q1128.1 22.8309 1128.1 27.611 Q1128.1 31.6214 1130.49 33.6873 Q1132.92 35.7128 1139.65 36.9686 L1144.59 37.9813 Q1153.75 39.7232 1158.08 44.1387 Q1162.45 48.5136 1162.45 55.8863 Q1162.45 64.6767 1156.54 69.2137 Q1150.67 73.7508 1139.28 73.7508 Q1134.99 73.7508 1130.13 72.7785 Q1125.31 71.8063 1120.12 69.9024 L1120.12 61.4765 Q1125.11 64.2716 1129.89 65.6895 Q1134.67 67.1073 1139.28 67.1073 Q1146.29 67.1073 1150.1 64.3527 Q1153.91 61.598 1153.91 56.4939 Q1153.91 52.0379 1151.15 49.5264 Q1148.44 47.0148 1142.2 45.759 L1137.22 44.7868 Q1128.06 42.9639 1123.97 39.075 Q1119.88 35.1862 1119.88 28.2591 Q1119.88 20.2383 1125.51 15.6203 Q1131.18 11.0023 1141.11 11.0023 Q1145.36 11.0023 1149.78 11.7719 Q1154.19 12.5416 1158.81 14.0809 Z" fill="#000000" fill-rule="nonzero" fill-opacity="1" /><path clip-path="url(#clip410)" d="M1196.93 27.2059 L1204.38 27.2059 L1213.7 62.6108 L1222.98 27.2059 L1231.77 27.2059 L1241.08 62.6108 L1250.36 27.2059 L1257.81 27.2059 L1245.94 72.576 L1237.15 72.576 L1227.39 35.3887 L1217.59 72.576 L1208.8 72.576 L1196.93 27.2059 Z" fill="#000000" fill-rule="nonzero" fill-opacity="1" /><path clip-path="url(#clip410)" d="M1307.92 48.0275 L1307.92 51.6733 L1273.65 51.6733 Q1274.14 59.3701 1278.27 63.421 Q1282.44 67.4314 1289.86 67.4314 Q1294.15 67.4314 1298.16 66.3781 Q1302.21 65.3249 1306.18 63.2184 L1306.18 70.267 Q1302.17 71.9684 1297.96 72.8596 Q1293.74 73.7508 1289.41 73.7508 Q1278.55 73.7508 1272.19 67.4314 Q1265.87 61.1119 1265.87 50.3365 Q1265.87 39.1965 1271.87 32.6746 Q1277.91 26.1121 1288.11 26.1121 Q1297.27 26.1121 1302.58 32.0264 Q1307.92 37.9003 1307.92 48.0275 M1300.47 45.84 Q1300.39 39.7232 1297.03 36.0774 Q1293.7 32.4315 1288.19 32.4315 Q1281.96 32.4315 1278.19 35.9558 Q1274.46 39.4801 1273.9 45.8805 L1300.47 45.84 Z" fill="#000000" fill-rule="nonzero" fill-opacity="1" /><path clip-path="url(#clip410)" d="M1339.03 76.7889 Q1335.87 84.8907 1332.88 87.3618 Q1329.88 89.8329 1324.86 89.8329 L1318.9 89.8329 L1318.9 83.5945 L1323.28 83.5945 Q1326.35 83.5945 1328.06 82.1361 Q1329.76 80.6778 1331.82 75.2496 L1333.16 71.8468 L1314.81 27.2059 L1322.71 27.2059 L1336.89 62.6918 L1351.06 27.2059 L1358.96 27.2059 L1339.03 76.7889 Z" fill="#000000" fill-rule="nonzero" fill-opacity="1" /><path clip-path="url(#clip410)" d="M1369.25 9.54393 L1376.71 9.54393 L1376.71 72.576 L1369.25 72.576 L1369.25 9.54393 Z" fill="#000000" fill-rule="nonzero" fill-opacity="1" /><path clip-path="url(#clip410)" d="M1419 12.096 L1427.18 12.096 L1427.18 37.6572 L1454.32 12.096 L1464.85 12.096 L1434.84 40.2903 L1467 72.576 L1456.23 72.576 L1427.18 43.45 L1427.18 72.576 L1419 72.576 L1419 12.096 Z" fill="#000000" fill-rule="nonzero" fill-opacity="1" /><path clip-path="url(#clip410)" d="M1481.58 18.8205 L1481.58 41.5461 L1491.87 41.5461 Q1497.59 41.5461 1500.71 38.5889 Q1503.82 35.6318 1503.82 30.163 Q1503.82 24.7348 1500.71 21.7777 Q1497.59 18.8205 1491.87 18.8205 L1481.58 18.8205 M1473.4 12.096 L1491.87 12.096 Q1502.04 12.096 1507.23 16.714 Q1512.45 21.2916 1512.45 30.163 Q1512.45 39.1155 1507.23 43.6931 Q1502.04 48.2706 1491.87 48.2706 L1481.58 48.2706 L1481.58 72.576 L1473.4 72.576 L1473.4 12.096 Z" fill="#000000" fill-rule="nonzero" fill-opacity="1" /><path clip-path="url(#clip410)" d="M1523.43 12.096 L1535.62 12.096 L1551.06 53.2532 L1566.57 12.096 L1578.77 12.096 L1578.77 72.576 L1570.79 72.576 L1570.79 19.4686 L1555.19 60.9499 L1546.97 60.9499 L1531.37 19.4686 L1531.37 72.576 L1523.43 72.576 L1523.43 12.096 Z" fill="#000000" fill-rule="nonzero" fill-opacity="1" /><polyline clip-path="url(#clip412)" style="stroke:#009af9; stroke-linecap:round; stroke-linejoin:round; stroke-width:4; stroke-opacity:1; fill:none" points="280.765,1386.28 281.77,1378.45 282.776,1374.79 283.782,1370.84 284.788,1367.35 285.794,1366.16 286.799,1362.2 287.805,1362.8 288.811,1359.43 289.817,1357.35 290.823,1355.83 291.828,1354.84 292.834,1352.59 293.84,1350.92 294.846,1351.13 295.852,1347.6 296.857,1346.34 297.863,1347.72 298.869,1344.29 299.875,1342.38 300.881,1342.71 301.886,1341.31 302.892,1340.99 303.898,1339.02 304.904,1337.19 305.91,1336.84 306.915,1335.88 307.921,1335.06 308.927,1332.88 309.933,1331.11 310.939,1331.29 311.945,1332.53 312.95,1329.54 313.956,1326.47 314.962,1326.99 315.968,1327.36 316.974,1326.75 317.979,1325.02 318.985,1323.07 319.991,1321.84 320.997,1322.23 322.003,1322.03 323.008,1320.36 324.014,1318.38 325.02,1317.55 326.026,1318.27 327.032,1317.07 328.037,1314.74 329.043,1314.44 330.049,1314.45 331.055,1313.05 332.061,1311.03 333.066,1310.38 334.072,1311.38 335.078,1310.88 336.084,1308.63 337.09,1307.42 338.095,1306.93 339.101,1305.96 340.107,1305.01 341.113,1304.93 342.119,1305.63 343.125,1304.94 344.13,1302.21 345.136,1300.06 346.142,1299.88 347.148,1300.74 348.154,1300.92 349.159,1299.18 350.165,1296.63 351.171,1295.54 352.177,1296.21 353.183,1296.49 354.188,1295.04 355.194,1293.68 356.2,1294.03 357.206,1294.31 358.212,1292.65 359.217,1290.19 360.223,1288.76 361.229,1288.61 362.235,1288.9 363.241,1288.89 364.246,1288.28 365.252,1287.14 366.258,1285.76 367.264,1284.54 368.27,1283.76 369.275,1283.56 370.281,1283.85 371.287,1284.01 372.293,1283.29 373.299,1281.51 374.305,1279.13 375.31,1277.19 376.316,1276.77 377.322,1277.69 378.328,1278.49 379.334,1278.15 380.339,1276.69 381.345,1274.68 382.351,1273.04 383.357,1272.51 384.363,1272.68 385.368,1272.73 386.374,1272.62 387.38,1272.34 388.386,1271.19 389.392,1268.94 390.397,1266.74 391.403,1265.85 392.409,1266.27 393.415,1267.04 394.421,1267.28 395.426,1266.67 396.432,1265.33 397.438,1263.75 398.444,1262.54 399.45,1261.99 400.455,1261.89 401.461,1261.72 402.467,1261.17 403.473,1260.21 404.479,1258.98 405.485,1257.9 406.49,1257.44 407.496,1257.41 408.502,1256.91 409.508,1255.49 410.514,1253.86 411.519,1253.07 412.525,1253.23 413.531,1253.7 414.537,1253.64 415.543,1252.49 416.548,1250.35 417.554,1248.27 418.56,1247.34 419.566,1247.47 420.572,1247.7 421.577,1247.41 422.583,1246.67 423.589,1245.69 424.595,1244.51 425.601,1243.33 426.606,1242.46 427.612,1241.93 428.618,1241.42 429.624,1240.71 430.63,1240.03 431.635,1239.71 432.641,1239.76 433.647,1239.67 434.653,1238.79 435.659,1236.99 436.665,1234.88 437.67,1233.37 438.676,1233.11 439.682,1233.99 440.688,1235.05 441.694,1234.97 442.699,1233.01 443.705,1229.89 444.711,1227.37 445.717,1226.71 446.723,1227.59 447.728,1228.53 448.734,1228.34 449.74,1227 450.746,1225.29 451.752,1224.02 452.757,1223.51 453.763,1223.49 454.769,1223.41 455.775,1222.82 456.781,1221.77 457.786,1220.7 458.792,1219.94 459.798,1219.4 460.804,1218.77 461.81,1217.86 462.815,1216.74 463.821,1215.56 464.827,1214.4 465.833,1213.42 466.839,1212.84 467.845,1212.74 468.85,1212.86 469.856,1212.7 470.862,1211.9 471.868,1210.52 472.874,1208.9 473.879,1207.49 474.885,1206.6 475.891,1206.32 476.897,1206.41 477.903,1206.39 478.908,1205.81 479.914,1204.67 480.92,1203.34 481.926,1202.27 482.932,1201.55 483.937,1200.97 484.943,1200.29 485.949,1199.49 486.955,1198.74 487.961,1198.11 488.966,1197.48 489.972,1196.6 490.978,1195.26 491.984,1193.59 492.99,1192.02 493.995,1191.02 495.001,1190.73 496.007,1190.83 497.013,1190.77 498.019,1190.13 499.025,1188.92 500.03,1187.52 501.036,1186.35 502.042,1185.68 503.048,1185.41 504.054,1185.22 505.059,1184.78 506.065,1183.94 507.071,1182.79 508.077,1181.53 509.083,1180.26 510.088,1179.02 511.094,1177.86 512.1,1176.92 513.106,1176.36 514.112,1176.15 515.117,1176.03 516.123,1175.59 517.129,1174.54 518.135,1172.93 519.141,1171.18 520.146,1169.8 521.152,1169.05 522.158,1168.75 523.164,1168.41 524.17,1167.55 525.175,1166.08 526.181,1164.37 527.187,1162.97 528.193,1162.25 529.199,1162.17 530.205,1162.29 531.21,1162.06 532.216,1161.17 533.222,1159.72 534.228,1158.15 535.234,1156.95 536.239,1156.32 537.245,1156.06 538.251,1155.7 539.257,1154.83 540.263,1153.39 541.268,1151.67 542.274,1150.12 543.28,1149.07 544.286,1148.54 545.292,1148.21 546.297,1147.7 547.303,1146.74 548.309,1145.35 549.315,1143.75 550.321,1142.27 551.326,1141.16 552.332,1140.49 553.338,1140.16 554.344,1139.89 555.35,1139.3 556.355,1138.15 557.361,1136.39 558.367,1134.34 559.373,1132.46 560.379,1131.21 561.385,1130.7 562.39,1130.65 563.396,1130.52 564.402,1129.76 565.408,1128.16 566.414,1126 567.419,1123.9 568.425,1122.51 569.431,1122.11 570.437,1122.44 571.443,1122.81 572.448,1122.46 573.454,1121.03 574.46,1118.71 575.466,1116.21 576.472,1114.27 577.477,1113.31 578.483,1113.17 579.489,1113.22 580.495,1112.78 581.501,1111.47 582.506,1109.42 583.512,1107.16 584.518,1105.29 585.524,1104.15 586.53,1103.65 587.535,1103.35 588.541,1102.79 589.547,1101.67 590.553,1100.02 591.559,1098.09 592.565,1096.18 593.57,1094.5 594.576,1093.1 595.582,1091.95 596.588,1090.98 597.594,1090.15 598.599,1089.33 599.605,1088.34 600.611,1086.97 601.617,1085.08 602.623,1082.82 603.628,1080.56 604.634,1078.77 605.64,1077.78 606.646,1077.49 607.652,1077.4 608.657,1076.82 609.663,1075.29 610.669,1072.84 611.675,1070.02 612.681,1067.66 613.686,1066.33 614.692,1066.02 615.698,1066.14 616.704,1065.79 617.71,1064.31 618.715,1061.65 619.721,1058.41 620.727,1055.54 621.733,1053.82 622.739,1053.42 623.745,1053.78 624.75,1053.94 625.756,1052.99 626.762,1050.59 627.768,1047.15 628.774,1043.61 629.779,1040.95 630.785,1039.68 631.791,1039.6 632.797,1039.87 633.803,1039.49 634.808,1037.81 635.814,1034.86 636.82,1031.34 637.826,1028.2 638.832,1026.15 639.837,1025.32 640.843,1025.18 641.849,1024.84 642.855,1023.52 643.861,1020.91 644.866,1017.36 645.872,1013.65 646.878,1010.59 647.884,1008.64 648.89,1007.69 649.895,1007.11 650.901,1006.11 651.907,1004.12 652.913,1001.05 653.919,997.328 654.925,993.638 655.93,990.591 656.936,988.445 657.942,987.023 658.948,985.825 659.954,984.274 660.959,981.981 661.965,978.902 662.971,975.347 663.977,971.828 664.983,968.821 665.988,966.544 666.994,964.846 668,963.29 669.006,961.367 670.012,958.74 671.017,955.398 672.023,951.622 673.029,947.828 674.035,944.354 675.041,941.322 676.046,938.609 677.052,935.92 678.058,932.903 679.064,929.285 680.07,924.978 681.075,920.145 682.081,915.179 683.087,910.564 684.093,906.636 685.099,903.353 686.105,900.213 687.11,896.425 688.116,891.304 689.122,884.671 690.128,877.022 691.134,869.275 692.139,862.198 693.145,855.843 694.151,849.365 695.157,841.442 696.163,831.11 697.168,818.539 698.174,805.223 699.18,793.407 700.186,785.005 701.192,780.643 702.197,779.391 703.203,779.34 704.209,778.685 705.215,776.654 706.221,773.771 707.226,771.335 708.232,770.51 709.238,771.579 710.244,773.797 711.25,775.857 712.255,776.642 713.261,775.805 714.267,773.88 715.273,771.914 716.279,770.879 717.285,771.182 718.29,772.52 719.296,774.094 720.302,775.047 721.308,774.886 722.314,773.698 723.319,772.073 724.325,770.796 725.331,770.451 726.337,771.133 727.343,772.422 728.348,773.607 729.354,774.063 730.36,773.574 731.366,772.43 732.372,771.24 733.377,770.592 734.383,770.733 735.389,771.473 736.395,772.334 737.401,772.851 738.406,772.822 739.412,772.376 740.418,771.83 741.424,771.47 742.43,771.396 743.435,771.513 744.441,771.651 745.447,771.697 746.453,771.655 747.459,771.592 748.465,771.55 749.47,771.487 750.476,771.309 751.482,770.961 752.488,770.506 753.494,770.127 754.499,770.037 755.505,770.345 756.511,770.957 757.517,771.587 758.523,771.882 759.528,771.617 760.534,770.843 761.54,769.901 762.546,769.263 763.552,769.272 764.557,769.916 765.563,770.806 766.569,771.375 767.575,771.219 768.581,770.369 769.586,769.308 770.592,768.696 771.598,768.97 772.604,770.049 773.61,771.362 774.615,772.178 775.621,772.034 776.627,771.006 777.633,769.638 778.639,768.598 779.645,768.279 780.65,768.611 781.656,769.159 782.662,769.437 783.668,769.207 784.674,768.578 785.679,767.878 786.685,767.413 787.691,767.293 788.697,767.419 789.703,767.611 790.708,767.753 791.714,767.836 792.72,767.898 793.726,767.921 794.732,767.802 795.737,767.425 796.743,766.801 797.749,766.126 798.755,765.713 799.761,765.803 800.766,766.381 801.772,767.136 802.778,767.621 803.784,767.517 804.79,766.838 805.795,765.938 806.801,765.294 807.807,765.208 808.813,765.622 809.819,766.157 810.825,766.362 811.83,766.003 812.836,765.198 813.842,764.324 814.848,763.766 815.854,763.675 816.859,763.901 817.865,764.125 818.871,764.081 819.877,763.725 820.883,763.226 821.888,762.819 822.894,762.632 823.9,762.604 824.906,762.559 825.912,762.347 826.917,761.967 827.923,761.565 828.929,761.32 829.935,761.309 830.941,761.43 831.946,761.465 832.952,761.218 833.958,760.649 834.964,759.909 835.97,759.251 836.975,758.88 837.981,758.821 838.987,758.907 839.993,758.886 840.999,758.577 842.005,757.989 843.01,757.312 844.016,756.795 845.022,756.582 846.028,756.619 847.034,756.692 848.039,756.568 849.045,756.152 850.051,755.546 851.057,754.967 852.063,754.583 853.068,754.373 854.074,754.129 855.08,753.596 856.086,752.679 857.092,751.55 858.097,750.581 859.103,750.125 860.109,750.269 861.115,750.743 862.121,751.052 863.126,750.764 864.132,749.797 865.138,748.496 866.144,747.455 867.15,747.163 868.155,747.702 869.161,748.666 870.167,749.384 871.173,749.296 872.179,748.279 873.184,746.707 874.19,745.235 875.196,744.411 876.202,744.379 877.208,744.825 878.214,745.195 879.219,745.035 880.225,744.246 881.231,743.098 882.237,742.021 883.243,741.329 884.248,741.034 885.254,740.876 886.26,740.504 887.266,739.676 888.272,738.34 889.277,736.543 890.283,734.275 891.289,731.366 892.295,727.546 893.301,722.631 894.306,716.718 895.312,710.243 896.318,703.842 897.324,698.075 898.33,693.185 899.335,689.024 900.341,685.185 901.347,681.274 902.353,677.137 903.359,672.919 904.364,668.934 905.37,665.437 906.376,662.446 907.382,659.722 908.388,656.911 909.394,653.739 910.399,650.15 911.405,646.296 912.411,642.419 913.417,638.698 914.423,635.179 915.428,631.806 916.434,628.51 917.44,625.28 918.446,622.149 919.452,619.123 920.457,616.112 921.463,612.943 922.469,609.454 923.475,605.611 924.481,601.558 925.486,597.549 926.492,593.804 927.498,590.367 928.504,587.089 929.51,583.722 930.515,580.084 931.521,576.17 932.527,572.138 933.533,568.191 934.539,564.433 935.544,560.808 936.55,557.151 937.556,553.3 938.562,549.193 939.568,544.879 940.574,540.445 941.579,535.949 942.585,531.394 943.591,526.773 944.597,522.129 945.603,517.562 946.608,513.161 947.614,508.906 948.62,504.627 949.626,500.061 950.632,494.995 951.637,489.393 952.643,483.429 953.649,477.384 954.655,471.479 955.661,465.746 956.666,460.018 957.672,454.043 958.678,447.63 959.684,440.743 960.69,433.482 961.695,425.972 962.701,418.259 963.707,410.267 964.713,401.856 965.719,392.909 966.724,383.393 967.73,373.328 968.736,362.688 969.742,351.292 970.748,338.777 971.754,324.686 972.759,308.66 973.765,290.651 974.771,271.072 975.777,250.808 976.783,231.071 977.788,213.143 978.794,198.088 979.8,186.527 980.806,178.54 981.812,173.728 982.817,171.381 983.823,170.696 984.829,170.967 985.835,171.686 986.841,172.553 987.846,173.419 988.852,174.215 989.858,174.905 990.864,175.476 991.87,175.949 992.875,176.39 993.881,176.898 994.887,177.566 995.893,178.431 996.899,179.445 997.904,180.484 998.91,181.389 999.916,182.036 1000.92,182.389 1001.93,182.528 1002.93,182.616 1003.94,182.827 1004.95,183.263 1005.95,183.894 1006.96,184.561 1007.96,185.047 1008.97,185.177 1009.97,184.915 1010.98,184.392 1011.99,183.863 1012.99,183.602 1014,183.775 1015,184.373 1016.01,185.208 1017.01,185.989 1018.02,186.425 1019.03,186.328 1020.03,185.662 1021.04,184.543 1022.04,183.192 1023.05,181.864 1024.06,180.769 1025.06,180.003 1026.07,179.5 1027.07,179.044 1028.08,178.329 1029.08,177.076 1030.09,175.147 1031.1,172.615 1032.1,169.735 1033.11,166.842 1034.11,164.224 1035.12,162.084 1036.13,160.627 1037.13,160.256 1038.14,161.774 1039.14,166.432 1040.15,175.745 1041.15,191.072 1042.16,213.128 1043.17,241.621 1044.17,275.195 1045.18,311.743 1046.18,348.964 1047.19,384.973 1048.19,418.724 1049.2,450.114 1050.21,479.748 1051.21,508.509 1052.22,537.089 1053.22,565.671 1054.23,593.851 1055.24,620.777 1056.24,645.457 1057.25,667.077 1058.25,685.246 1059.26,700.089 1060.26,712.178 1061.27,722.357 1062.28,731.538 1063.28,740.523 1064.29,749.91 1065.29,760.061 1066.3,771.115 1067.31,783.021 1068.31,795.56 1069.32,808.386 1070.32,821.095 1071.33,833.315 1072.33,844.801 1073.34,855.498 1074.35,865.521 1075.35,875.078 1076.36,884.35 1077.36,893.404 1078.37,902.173 1079.37,910.511 1080.38,918.285 1081.39,925.456 1082.39,932.109 1083.4,938.417 1084.4,944.568 1085.41,950.706 1086.42,956.893 1087.42,963.122 1088.43,969.341 1089.43,975.479 1090.44,981.457 1091.44,987.205 1092.45,992.665 1093.46,997.819 1094.46,1002.7 1095.47,1007.41 1096.47,1012.08 1097.48,1016.82 1098.49,1021.68 1099.49,1026.63 1100.5,1031.57 1101.5,1036.36 1102.51,1040.9 1103.51,1045.15 1104.52,1049.14 1105.53,1052.99 1106.53,1056.81 1107.54,1060.7 1108.54,1064.69 1109.55,1068.81 1110.55,1072.99 1111.56,1077.17 1112.57,1081.29 1113.57,1085.27 1114.58,1089.06 1115.58,1092.64 1116.59,1096.04 1117.6,1099.3 1118.6,1102.52 1119.61,1105.76 1120.61,1109.09 1121.62,1112.53 1122.62,1116.03 1123.63,1119.54 1124.64,1122.97 1125.64,1126.25 1126.65,1129.35 1127.65,1132.3 1128.66,1135.16 1129.67,1138.02 1130.67,1140.95 1131.68,1143.98 1132.68,1147.1 1133.69,1150.24 1134.69,1153.31 1135.7,1156.23 1136.71,1158.97 1137.71,1161.52 1138.72,1163.97 1139.72,1166.4 1140.73,1168.91 1141.73,1171.57 1142.74,1174.37 1143.75,1177.27 1144.75,1180.16 1145.76,1182.94 1146.76,1185.57 1147.77,1188.05 1148.78,1190.43 1149.78,1192.79 1150.79,1195.19 1151.79,1197.66 1152.8,1200.16 1153.8,1202.64 1154.81,1205.03 1155.82,1207.3 1156.82,1209.46 1157.83,1211.55 1158.83,1213.63 1159.84,1215.74 1160.85,1217.87 1161.85,1220.03 1162.86,1222.18 1163.86,1224.31 1164.87,1226.42 1165.87,1228.53 1166.88,1230.64 1167.89,1232.76 1168.89,1234.84 1169.9,1236.89 1170.9,1238.87 1171.91,1240.79 1172.91,1242.7 1173.92,1244.61 1174.93,1246.54 1175.93,1248.49 1176.94,1250.42 1177.94,1252.29 1178.95,1254.06 1179.96,1255.76 1180.96,1257.41 1181.97,1259.07 1182.97,1260.81 1183.98,1262.63 1184.98,1264.52 1185.99,1266.41 1187,1268.27 1188,1270.04 1189.01,1271.72 1190.01,1273.35 1191.02,1274.97 1192.03,1276.6 1193.03,1278.28 1194.04,1279.98 1195.04,1281.7 1196.05,1283.4 1197.05,1285.08 1198.06,1286.71 1199.07,1288.32 1200.07,1289.9 1201.08,1291.49 1202.08,1293.11 1203.09,1294.78 1204.09,1296.54 1205.1,1298.46 1206.11,1300.58 1207.11,1302.94 1208.12,1305.56 1209.12,1308.43 1210.13,1311.47 1211.14,1314.63 1212.14,1317.78 1213.15,1320.84 1214.15,1323.74 1215.16,1326.42 1216.16,1328.9 1217.17,1331.19 1218.18,1333.32 1219.18,1335.35 1220.19,1337.28 1221.19,1339.16 1222.2,1340.98 1223.21,1342.74 1224.21,1344.44 1225.22,1346.08 1226.22,1347.66 1227.23,1349.18 1228.23,1350.66 1229.24,1352.08 1230.25,1353.47 1231.25,1354.82 1232.26,1356.14 1233.26,1357.42 1234.27,1358.65 1235.27,1359.84 1236.28,1360.99 1237.29,1362.1 1238.29,1363.18 1239.3,1364.23 1240.3,1365.25 1241.31,1366.24 1242.32,1367.2 1243.32,1368.13 1244.33,1369.02 1245.33,1369.89 1246.34,1370.75 1247.34,1371.58 1248.35,1372.39 1249.36,1373.17 1250.36,1373.92 1251.37,1374.63 1252.37,1375.31 1253.38,1375.95 1254.39,1376.56 1255.39,1377.17 1256.4,1377.76 1257.4,1378.35 1258.41,1378.93 1259.41,1379.49 1260.42,1380.02 1261.43,1380.53 1262.43,1381 1263.44,1381.46 1264.44,1381.89 1265.45,1382.31 1266.45,1382.72 1267.46,1383.1 1268.47,1383.47 1269.47,1383.8 1270.48,1384.11 1271.48,1384.39 1272.49,1384.65 1273.5,1384.89 1274.5,1385.12 1275.51,1385.33 1276.51,1385.52 1277.52,1385.69 1278.52,1385.84 1279.53,1385.97 1280.54,1386.09 1281.54,1386.18 1282.55,1386.26 1283.55,1386.33 1284.56,1386.37 1285.57,1386.39 1286.57,1386.4 1287.58,1386.38 1288.58,1386.33 1289.59,1386.28 1290.59,1386.2 1291.6,1386.11 1292.61,1386 1293.61,1385.87 1294.62,1385.71 1295.62,1385.53 1296.63,1385.33 1297.63,1385.1 1298.64,1384.87 1299.65,1384.62 1300.65,1384.36 1301.66,1384.08 1302.66,1383.77 1303.67,1383.44 1304.68,1383.07 1305.68,1382.68 1306.69,1382.27 1307.69,1381.84 1308.7,1381.4 1309.7,1380.95 1310.71,1380.49 1311.72,1380 1312.72,1379.49 1313.73,1378.96 1314.73,1378.4 1315.74,1377.82 1316.75,1377.22 1317.75,1376.61 1318.76,1375.97 1319.76,1375.31 1320.77,1374.61 1321.77,1373.88 1322.78,1373.12 1323.79,1372.33 1324.79,1371.52 1325.8,1370.69 1326.8,1369.84 1327.81,1368.97 1328.81,1368.07 1329.82,1367.14 1330.83,1366.16 1331.83,1365.14 1332.84,1364.08 1333.84,1362.99 1334.85,1361.89 1335.86,1360.76 1336.86,1359.62 1337.87,1358.45 1338.87,1357.26 1339.88,1356.03 1340.88,1354.78 1341.89,1353.49 1342.9,1352.15 1343.9,1350.76 1344.91,1349.31 1345.91,1347.79 1346.92,1346.21 1347.93,1344.57 1348.93,1342.88 1349.94,1341.14 1350.94,1339.34 1351.95,1337.49 1352.95,1335.56 1353.96,1333.55 1354.97,1331.42 1355.97,1329.13 1356.98,1326.67 1357.98,1324.01 1358.99,1321.15 1359.99,1318.13 1361,1315.01 1362.01,1311.89 1363.01,1308.85 1364.02,1305.99 1365.02,1303.37 1366.03,1301.01 1367.04,1298.89 1368.04,1296.96 1369.05,1295.18 1370.05,1293.48 1371.06,1291.84 1372.06,1290.22 1373.07,1288.61 1374.08,1286.99 1375.08,1285.37 1376.09,1283.73 1377.09,1282.08 1378.1,1280.4 1379.11,1278.72 1380.11,1277.04 1381.12,1275.37 1382.12,1273.7 1383.13,1272.01 1384.13,1270.28 1385.14,1268.5 1386.15,1266.68 1387.15,1264.85 1388.16,1263.07 1389.16,1261.33 1390.17,1259.65 1391.17,1257.97 1392.18,1256.23 1393.19,1254.39 1394.19,1252.42 1395.2,1250.35 1396.2,1248.23 1397.21,1246.14 1398.22,1244.1 1399.22,1242.14 1400.23,1240.22 1401.23,1238.3 1402.24,1236.35 1403.24,1234.33 1404.25,1232.27 1405.26,1230.17 1406.26,1228.06 1407.27,1225.93 1408.27,1223.78 1409.28,1221.61 1410.29,1219.41 1411.29,1217.22 1412.3,1215.07 1413.3,1212.97 1414.31,1210.91 1415.31,1208.84 1416.32,1206.7 1417.33,1204.44 1418.33,1202.05 1419.34,1199.57 1420.34,1197.07 1421.35,1194.61 1422.35,1192.24 1423.36,1189.92 1424.37,1187.6 1425.37,1185.2 1426.38,1182.67 1427.38,1180 1428.39,1177.27 1429.4,1174.53 1430.4,1171.88 1431.41,1169.31 1432.41,1166.81 1433.42,1164.29 1434.42,1161.67 1435.43,1158.87 1436.44,1155.87 1437.44,1152.72 1438.45,1149.5 1439.45,1146.31 1440.46,1143.23 1441.47,1140.31 1442.47,1137.53 1443.48,1134.82 1444.48,1132.08 1445.49,1129.2 1446.49,1126.13 1447.5,1122.85 1448.51,1119.41 1449.51,1115.89 1450.52,1112.36 1451.52,1108.92 1452.53,1105.59 1453.53,1102.36 1454.54,1099.18 1455.55,1095.96 1456.55,1092.64 1457.56,1089.14 1458.56,1085.44 1459.57,1081.53 1460.58,1077.47 1461.58,1073.32 1462.59,1069.17 1463.59,1065.09 1464.6,1061.14 1465.6,1057.31 1466.61,1053.55 1467.62,1049.74 1468.62,1045.73 1469.63,1041.4 1470.63,1036.7 1471.64,1031.67 1472.65,1026.43 1473.65,1021.18 1474.66,1016.06 1475.66,1011.15 1476.67,1006.41 1477.67,1001.7 1478.68,996.865 1479.69,991.769 1480.69,986.343 1481.7,980.59 1482.7,974.566 1483.71,968.354 1484.71,962.041 1485.72,955.705 1486.73,949.401 1487.73,943.144 1488.74,936.889 1489.74,930.518 1490.75,923.866 1491.76,916.775 1492.76,909.151 1493.77,900.997 1494.77,892.403 1495.78,883.479 1496.78,874.277 1497.79,864.744 1498.8,854.74 1499.8,844.103 1500.81,832.749 1501.81,820.737 1502.82,808.275 1503.83,795.677 1504.83,783.287 1505.84,771.404 1506.84,760.235 1507.85,749.862 1508.85,740.203 1509.86,730.97 1510.87,721.632 1511.87,711.426 1512.88,699.448 1513.88,684.83 1514.89,666.959 1515.89,645.665 1516.9,621.305 1517.91,594.665 1518.91,566.725 1519.92,538.324 1520.92,509.861 1521.93,481.149 1522.94,451.505 1523.94,420.073 1524.95,386.278 1525.95,350.255 1526.96,313.056 1527.96,276.549 1528.97,242.991 1529.98,214.444 1530.98,192.232 1531.99,176.658 1532.99,167.057 1534,162.142 1535.01,160.469 1536.01,160.826 1537.02,162.405 1538.02,164.756 1539.03,167.608 1540.03,170.695 1541.04,173.689 1542.05,176.251 1543.05,178.143 1544.06,179.317 1545.06,179.932 1546.07,180.274 1547.07,180.645 1548.08,181.256 1549.09,182.18 1550.09,183.344 1551.1,184.58 1552.1,185.677 1553.11,186.454 1554.12,186.808 1555.12,186.749 1556.13,186.4 1557.13,185.95 1558.14,185.584 1559.14,185.4 1560.15,185.37 1561.16,185.358 1562.16,185.186 1563.17,184.734 1564.17,184.004 1565.18,183.126 1566.19,182.309 1567.19,181.741 1568.2,181.515 1569.2,181.591 1570.21,181.819 1571.21,182.003 1572.22,181.974 1573.23,181.647 1574.23,181.036 1575.24,180.228 1576.24,179.344 1577.25,178.489 1578.25,177.72 1579.26,177.04 1580.27,176.414 1581.27,175.792 1582.28,175.135 1583.28,174.416 1584.29,173.62 1585.3,172.737 1586.3,171.792 1587.31,170.902 1588.31,170.364 1589.32,170.71 1590.32,172.702 1591.33,177.215 1592.34,185.031 1593.34,196.594 1594.35,211.821 1595.35,230.042 1596.36,250.122 1597.37,270.713 1598.37,290.575 1599.38,308.84 1600.38,325.138 1601.39,339.551 1602.39,352.43 1603.4,364.166 1604.41,375.023 1605.41,385.086 1606.42,394.339 1607.42,402.796 1608.43,410.592 1609.43,417.981 1610.44,425.234 1611.45,432.507 1612.45,439.773 1613.46,446.867 1614.46,453.614 1615.47,459.968 1616.48,466.047 1617.48,472.066 1618.49,478.181 1619.49,484.374 1620.5,490.453 1621.5,496.16 1622.51,501.335 1623.52,506.006 1624.52,510.369 1625.53,514.661 1626.53,519.033 1627.54,523.498 1628.55,527.972 1629.55,532.376 1630.56,536.696 1631.56,540.977 1632.57,545.258 1633.57,549.517 1634.58,553.682 1635.59,557.701 1636.59,561.606 1637.6,565.51 1638.6,569.532 1639.61,573.687 1640.61,577.841 1641.62,581.775 1642.63,585.317 1643.63,588.467 1644.64,591.41 1645.64,594.42 1646.65,597.7 1647.66,601.27 1648.66,604.978 1649.67,608.609 1650.67,612.019 1651.68,615.205 1652.68,618.271 1653.69,621.332 1654.7,624.443 1655.7,627.588 1656.71,630.745 1657.71,633.942 1658.72,637.262 1659.73,640.768 1660.73,644.426 1661.74,648.083 1662.74,651.542 1663.75,654.711 1664.75,657.703 1665.76,660.819 1666.77,664.397 1667.77,668.604 1668.78,673.313 1669.78,678.155 1670.79,682.72 1671.79,686.822 1672.8,690.626 1673.81,694.578 1674.81,699.147 1675.82,704.537 1676.82,710.534 1677.83,716.578 1678.84,722.027 1679.84,726.447 1680.85,729.763 1681.85,732.207 1682.86,734.108 1683.86,735.68 1684.87,736.955 1685.88,737.87 1686.88,738.436 1687.89,738.842 1688.89,739.397 1689.9,740.342 1690.91,741.669 1691.91,743.081 1692.92,744.156 1693.92,744.616 1694.93,744.54 1695.93,744.347 1696.94,744.566 1697.95,745.503 1698.95,747.027 1699.96,748.619 1700.96,749.661 1701.97,749.81 1702.97,749.206 1703.98,748.408 1704.99,748.066 1705.99,748.552 1707,749.755 1708,751.163 1709.01,752.178 1710.02,752.461 1711.02,752.104 1712.03,751.535 1713.03,751.243 1714.04,751.49 1715.04,752.194 1716.05,753.037 1717.06,753.697 1718.06,754.048 1719.07,754.212 1720.07,754.421 1721.08,754.834 1722.09,755.412 1723.09,755.952 1724.1,756.239 1725.1,756.212 1726.11,756.024 1727.11,755.955 1728.12,756.234 1729.13,756.893 1730.13,757.743 1731.14,758.488 1732.14,758.904 1733.15,758.976 1734.15,758.898 1735.16,758.943 1736.17,759.289 1737.17,759.899 1738.18,760.541 1739.18,760.927 1740.19,760.893 1741.2,760.501 1742.2,760.012 1743.21,759.733 1744.21,759.841 1745.22,760.305 1746.22,760.927 1747.23,761.489 1748.24,761.893 1749.24,762.19 1750.25,762.495 1751.25,762.852 1752.26,763.163 1753.27,763.252 1754.27,763.022 1755.28,762.587 1756.28,762.26 1757.29,762.384 1758.29,763.102 1759.3,764.224 1760.31,765.307 1761.31,765.907 1762.32,765.853 1763.32,765.361 1764.33,764.901 1765.33,764.906 1766.34,765.501 1767.35,766.44 1768.35,767.268 1769.36,767.613 1770.36,767.405 1771.37,766.888 1772.38,766.436 1773.38,766.308 1774.39,766.506 1775.39,766.826 1776.4,767.03 1777.4,767.022 1778.41,766.882 1779.42,766.777 1780.42,766.806 1781.43,766.931 1782.43,767.037 1783.44,767.064 1784.45,767.093 1785.45,767.305 1786.46,767.823 1787.46,768.562 1788.47,769.222 1789.47,769.469 1790.48,769.175 1791.49,768.558 1792.49,768.094 1793.5,768.219 1794.5,769.025 1795.51,770.158 1796.51,771.003 1797.52,771.067 1798.53,770.304 1799.53,769.172 1800.54,768.365 1801.54,768.4 1802.55,769.301 1803.56,770.593 1804.56,771.593 1805.57,771.808 1806.57,771.207 1807.58,770.2 1808.58,769.381 1809.59,769.188 1810.6,769.683 1811.6,770.565 1812.61,771.374 1813.61,771.748 1814.62,771.597 1815.63,771.112 1816.63,770.623 1817.64,770.41 1818.64,770.568 1819.65,770.986 1820.65,771.447 1821.66,771.768 1822.67,771.899 1823.67,771.92 1824.68,771.951 1825.68,772.043 1826.69,772.145 1827.69,772.16 1828.7,772.057 1829.71,771.938 1830.71,771.992 1831.72,772.35 1832.72,772.947 1833.73,773.503 1834.74,773.67 1835.74,773.266 1836.75,772.428 1837.75,771.587 1838.76,771.23 1839.76,771.601 1840.77,772.529 1841.78,773.493 1842.78,773.908 1843.79,773.462 1844.79,772.309 1845.8,771.008 1846.81,770.234 1847.81,770.424 1848.82,771.539 1849.82,773.058 1850.83,774.23 1851.83,774.436 1852.84,773.519 1853.85,771.892 1854.85,770.369 1855.86,769.773 1856.86,770.494 1857.87,772.235 1858.87,774.108 1859.88,775.084 1860.89,774.579 1861.89,772.844 1862.9,770.891 1863.9,769.951 1864.91,770.743 1865.92,773.022 1866.92,775.722 1867.93,777.664 1868.93,778.438 1869.94,778.86 1870.94,780.68 1871.95,785.661 1872.96,794.549 1873.96,806.57 1874.97,819.77 1875.97,831.99 1876.98,841.892 1877.99,849.466 1878.99,855.764 1880,862.106 1881,869.275 1882.01,877.146 1883.01,884.904 1884.02,891.622 1885.03,896.814 1886.03,900.652 1887.04,903.797 1888.04,906.995 1889.05,910.719 1890.05,915.02 1891.06,919.621 1892.07,924.126 1893.07,928.225 1894.08,931.794 1895.08,934.903 1896.09,937.761 1897.1,940.647 1898.1,943.812 1899.11,947.387 1900.11,951.3 1901.12,955.272 1902.12,958.92 1903.13,961.939 1904.14,964.267 1905.14,966.147 1906.15,968.027 1907.15,970.347 1908.16,973.315 1909.17,976.794 1910.17,980.349 1911.18,983.454 1912.18,985.749 1913.19,987.231 1914.19,988.287 1915.2,989.526 1916.21,991.487 1917.21,994.356 1918.22,997.854 1919.22,1001.35 1920.23,1004.19 1921.23,1006.01 1922.24,1006.96 1923.25,1007.65 1924.25,1008.8 1925.26,1010.94 1926.26,1014.06 1927.27,1017.66 1928.28,1020.92 1929.28,1023.18 1930.29,1024.21 1931.29,1024.41 1932.3,1024.59 1933.3,1025.61 1934.31,1027.92 1935.32,1031.29 1936.32,1034.95 1937.33,1037.87 1938.33,1039.38 1939.34,1039.5 1940.35,1038.94 1941.35,1038.81 1942.36,1039.99 1943.36,1042.69 1944.37,1046.34 1945.37,1049.91 1946.38,1052.43 1947.39,1053.53 1948.39,1053.57 1949.4,1053.45 1950.4,1054.11 1951.41,1056.03 1952.41,1058.97 1953.42,1062.16 1954.43,1064.7 1955.43,1066.06 1956.44,1066.34 1957.44,1066.24 1958.45,1066.61 1959.46,1068.06 1960.46,1070.54 1961.47,1073.47 1962.47,1076.04 1963.48,1077.66 1964.48,1078.29 1965.49,1078.37 1966.5,1078.58 1967.5,1079.46 1968.51,1081.12 1969.51,1083.29 1970.52,1085.48 1971.53,1087.3 1972.53,1088.62 1973.54,1089.54 1974.54,1090.29 1975.55,1091.05 1976.55,1091.9 1977.56,1092.89 1978.57,1094.1 1979.57,1095.62 1980.58,1097.47 1981.58,1099.46 1982.59,1101.24 1983.59,1102.48 1984.6,1103.08 1985.61,1103.32 1986.61,1103.76 1987.62,1104.88 1988.62,1106.8 1989.63,1109.15 1990.64,1111.27 1991.64,1112.57 1992.65,1112.91 1993.65,1112.7 1994.66,1112.7 1995.66,1113.55 1996.67,1115.44 1997.68,1117.92 1998.68,1120.23 1999.69,1121.67 2000.69,1122.09 2001.7,1121.88 2002.71,1121.8 2003.71,1122.49 2004.72,1124.14 2005.72,1126.41 2006.73,1128.66 2007.73,1130.33 2008.74,1131.21 2009.75,1131.52 2010.75,1131.75 2011.76,1132.35 2012.76,1133.54 2013.77,1135.21 2014.77,1136.99 2015.78,1138.49 2016.79,1139.49 2017.79,1139.97 2018.8,1140.18 2019.8,1140.42 2020.81,1140.97 2021.82,1141.96 2022.82,1143.34 2023.83,1144.9 2024.83,1146.34 2025.84,1147.42 2026.84,1148.09 2027.85,1148.5 2028.86,1148.99 2029.86,1149.85 2030.87,1151.15 2031.87,1152.69 2032.88,1154.06 2033.89,1154.95 2034.89,1155.36 2035.9,1155.61 2036.9,1156.16 2037.91,1157.26 2038.91,1158.77 2039.92,1160.28 2040.93,1161.37 2041.93,1161.92 2042.94,1162.18 2043.94,1162.64 2044.95,1163.67 2045.95,1165.27 2046.96,1167.02 2047.97,1168.36 2048.97,1168.96 2049.98,1169.01 2050.98,1169.09 2051.99,1169.76 2053,1171.16 2054,1172.96 2055.01,1174.6 2056.01,1175.71 2057.02,1176.25 2058.02,1176.51 2059.03,1176.85 2060.04,1177.48 2061.04,1178.38 2062.05,1179.41 2063.05,1180.47 2064.06,1181.56 2065.07,1182.69 2066.07,1183.77 2067.08,1184.59 2068.08,1185 2069.09,1185.12 2070.09,1185.33 2071.1,1186.02 2072.11,1187.32 2073.11,1188.97 2074.12,1190.46 2075.12,1191.34 2076.13,1191.54 2077.13,1191.45 2078.14,1191.65 2079.15,1192.48 2080.15,1193.82 2081.16,1195.23 2082.16,1196.33 2083.17,1197.05 2084.18,1197.62 2085.18,1198.28 2086.19,1199.11 2087.19,1199.98 2088.2,1200.71 2089.2,1201.34 2090.21,1202.09 2091.22,1203.21 2092.22,1204.62 2093.23,1205.91 2094.23,1206.63 2095.24,1206.66 2096.25,1206.34 2097.25,1206.21 2098.26,1206.72 2099.26,1208 2100.27,1209.76 2101.27,1211.42 2102.28,1212.47 2103.29,1212.83 2104.29,1212.89 2105.3,1213.16 2106.3,1213.85 2107.31,1214.83 2108.31,1215.86 2109.32,1216.83 2110.33,1217.66 2111.33,1218.28 2112.34,1218.67 2113.34,1219.02 2114.35,1219.65 2115.36,1220.62 2116.36,1221.62 2117.37,1222.3 2118.37,1222.67 2119.38,1223.17 2120.38,1224.27 2121.39,1226.04 2122.4,1228 2123.4,1229.36 2124.41,1229.5 2125.41,1228.58 2126.42,1227.74 2127.43,1228.31 2128.43,1230.64 2129.44,1233.54 2130.44,1235.32 2131.45,1235.23 2132.45,1233.98 2133.46,1233.02 2134.47,1233.36 2135.47,1235.05 2136.48,1237.3 2137.48,1239.13 2138.49,1239.94 2139.49,1239.88 2140.5,1239.6 2141.51,1239.77 2142.51,1240.54 2143.52,1241.53 2144.52,1242.25 2145.53,1242.71 2146.54,1243.33 2147.54,1244.31 2148.55,1245.44 2149.55,1246.43 2150.56,1247.2 2151.56,1247.6 2152.57,1247.53 2153.58,1247.47 2154.58,1248.26 2155.59,1250.07 2156.59,1252.03 2157.6,1253.21 2158.61,1253.39 2159.61,1253.02 2160.62,1252.9 2161.62,1253.78 2162.63,1255.49 2163.63,1256.88 2164.64,1257.12 2165.65,1256.78 2166.65,1257.04 2167.66,1258.23 2168.66,1259.8 2169.67,1261.01 2170.67,1261.47 2171.68,1261.26 2172.69,1260.99 2173.69,1261.37 2174.7,1262.53 2175.7,1264.06 2176.71,1265.49 2177.72,1266.48 2178.72,1266.82 2179.73,1266.62 2180.73,1266.64 2181.74,1267.77 2182.74,1269.95 2183.75,1271.92 2184.76,1272.7 2185.76,1272.69 2186.77,1272.62 2187.77,1272.38 2188.78,1271.96 2189.79,1272.36 2190.79,1274.17 2191.8,1276.54 2192.8,1278.22 2193.81,1278.59 2194.81,1277.82 2195.82,1276.95 2196.83,1277.33 2197.83,1279.18 2198.84,1281.48 2199.84,1283.09 2200.85,1283.55 2201.85,1283.21 2202.86,1282.96 2203.87,1283.37 2204.87,1284.41 2205.88,1285.9 2206.88,1287.54 2207.89,1288.92 2208.9,1289.65 2209.9,1289.65 2210.91,1289.35 2211.91,1289.32 2212.92,1290.17 2213.92,1292.02 2214.93,1293.6 2215.94,1293.61 2216.94,1293.41 2217.95,1294.67 2218.95,1296.01 2219.96,1295.86 2220.97,1295.47 2221.97,1296.8 2222.98,1299.45 2223.98,1301.05 2224.99,1300.56 2225.99,1299.51 2227,1299.72 2228.01,1301.91 2229.01,1304.54 2230.02,1305.15 2231.02,1304.63 2232.03,1304.97 2233.03,1305.88 2234.04,1306.79 2235.05,1307.4 2236.05,1308.61 2237.06,1310.94 2238.06,1311.55 2239.07,1310.33 2240.08,1310.88 2241.08,1313.19 2242.09,1314.81 2243.09,1314.86 2244.1,1314.99 2245.1,1316.71 2246.11,1317.46 2247.12,1316.95 2248.12,1318.38 2249.13,1320.83 2250.13,1322.76 2251.14,1322.78 2252.15,1321.73 2253.15,1322.92 2254.16,1324.94 2255.16,1326.65 2256.17,1327.65 2257.17,1327.24 2258.18,1326.56 2259.19,1329.37 2260.19,1332.24 2261.2,1331.41 2262.2,1331.13 2263.21,1332.73 2264.21,1335.53 2265.22,1336.28 2266.23,1336.83 2267.23,1337.14 2268.24,1338.16 2269.24,1340.7 2270.25,1341.31 2271.26,1342.44 2272.26,1343.29 2273.27,1345.13 2274.27,1347.51 2275.28,1346.58 2276.28,1348.04 2277.29,1351.32 2278.3,1351.3 2279.3,1352.09 2280.31,1354.77 2281.31,1356.43 2282.32,1357.58 2283.33,1359.18 2284.33,1362.04 2285.34,1362.24 2286.34,1366.21 2287.35,1367.33 2288.35,1370.45 2289.36,1374.61 2290.37,1378.97 2291.37,1386.28 "/>
</svg>
